<?xml version="1.0" encoding="UTF-8"?>
<svg version="1.1" xmlns="http://www.w3.org/2000/svg" width="1024" height="1024">
<path d="M0 0 C337.92 0 675.84 0 1024 0 C1024 337.92 1024 675.84 1024 1024 C686.08 1024 348.16 1024 0 1024 C0 686.08 0 348.16 0 0 Z " fill="#203B55" transform="translate(0,0)"/>
<path d="M0 0 C2.99753049 0.52398774 5.98972642 0.98464822 9.00439453 1.39550781 C41.76211334 5.87775743 74.56134017 16.61415615 104.46923828 30.60644531 C105.99556885 31.30326416 105.99556885 31.30326416 107.55273438 32.01416016 C130.88308296 42.68094038 152.90777959 55.23738482 173.46923828 70.60644531 C174.06124023 71.04827148 174.65324219 71.49009766 175.26318359 71.9453125 C179.0405671 74.77993549 182.76617792 77.67505808 186.46923828 80.60644531 C187.86722656 81.71246094 187.86722656 81.71246094 189.29345703 82.84082031 C195.70150182 87.99650827 201.79988181 93.4526034 207.81103516 99.06152344 C209.58272343 100.71217764 211.36159303 102.35486445 213.14111328 103.99707031 C223.70218374 113.76646647 234.18103314 123.59671939 243.46923828 134.60644531 C244.25298828 135.50105469 245.03673828 136.39566406 245.84423828 137.31738281 C273.93600648 169.5736004 297.21028245 208.6996127 312.46923828 248.60644531 C312.8229248 249.51974609 313.17661133 250.43304688 313.54101562 251.37402344 C344.57604944 332.18070307 350.61926677 425.70388918 323.46923828 508.60644531 C322.88515591 510.58539106 322.301857 512.56456816 321.71923828 514.54394531 C316.98880664 529.84393516 311.30124542 544.79125059 304.53759766 559.30517578 C303.42016753 561.71214478 302.32761793 564.12959117 301.23486328 566.54785156 C292.39605916 585.8563641 281.65259096 604.21802169 269.46923828 621.60644531 C269.0519043 622.20634277 268.63457031 622.80624023 268.20458984 623.42431641 C263.47658425 630.20494215 258.61546317 636.84739924 253.38720703 643.25488281 C252.10244833 644.83008595 250.83424098 646.41892633 249.58251953 648.02050781 C241.02739642 658.95301808 231.36822781 668.89426385 221.5625 678.69848633 C219.96469936 680.2984905 218.37512278 681.90638146 216.78564453 683.51464844 C210.33560782 689.99939749 203.63343508 695.90539005 196.46923828 701.60644531 C195.35548425 702.55271414 194.24742898 703.50579531 193.14892578 704.46972656 C184.69719046 711.85028095 175.74996088 718.31121294 166.46923828 724.60644531 C165.71288086 725.12464844 164.95652344 725.64285156 164.17724609 726.17675781 C134.84299518 746.18466352 102.65568263 761.2181492 69.46923828 773.60644531 C68.72270996 773.88713867 67.97618164 774.16783203 67.20703125 774.45703125 C63.00982495 776.01411164 58.76970201 777.36923197 54.46923828 778.60644531 C53.58171875 778.86345215 52.69419922 779.12045898 51.77978516 779.38525391 C38.09424532 783.28115369 24.34470975 786.37173162 10.34423828 788.85644531 C9.68426849 788.97519012 9.02429871 789.09393494 8.34432983 789.21627808 C3.39791352 790.09755432 -1.559278 790.88033678 -6.53076172 791.60644531 C-7.44444519 791.74021576 -8.35812866 791.87398621 -9.29949951 792.0118103 C-25.22433262 794.28024095 -40.83234141 795.06522717 -56.90576172 794.91894531 C-58.57254974 794.91004776 -58.57254974 794.91004776 -60.27301025 794.90097046 C-86.9267842 794.75682752 -112.31524951 792.6538798 -138.53076172 787.60644531 C-139.43262207 787.43886719 -140.33448242 787.27128906 -141.26367188 787.09863281 C-172.35227217 781.30671675 -202.12999913 770.33664676 -230.53076172 756.60644531 C-231.49175781 756.14447754 -232.45275391 755.68250977 -233.44287109 755.20654297 C-251.09274645 746.68333809 -267.54957377 737.07327601 -283.78076172 726.10644531 C-284.3668219 725.71142822 -284.95288208 725.31641113 -285.55670166 724.90942383 C-297.22755957 717.02214909 -308.48689602 708.75072061 -318.80029297 699.12597656 C-320.90667427 697.18232 -323.03671278 695.3015839 -325.20751953 693.43237305 C-329.4423055 689.73172862 -333.4541528 685.84445523 -337.43310547 681.87207031 C-338.5161068 680.79406158 -338.5161068 680.79406158 -339.62098694 679.6942749 C-341.13738245 678.18290772 -342.65245717 676.67021427 -344.16625977 675.15625 C-346.45357249 672.87112052 -348.7487679 670.5941167 -351.04443359 668.31738281 C-358.66565721 660.72551959 -365.97404423 653.1517751 -372.53076172 644.60644531 C-373.43465882 643.4753964 -374.33944658 642.34505796 -375.24560547 641.21582031 C-380.88749705 633.95771023 -386.1146811 626.50962981 -391.10888672 618.79248047 C-392.65080332 616.42188959 -394.21611942 614.06755981 -395.78076172 611.71191406 C-405.10148988 597.53208842 -412.97754285 582.79018572 -420.53076172 567.60644531 C-420.9298877 566.81995605 -421.32901367 566.0334668 -421.74023438 565.22314453 C-458.15516556 493.45000287 -468.85059923 405.34972278 -454.53076172 326.60644531 C-454.16624231 324.41176754 -453.80529999 322.21649122 -453.44873047 320.02050781 C-451.9067182 310.74718602 -450.01992158 301.69066547 -447.18066406 292.71679688 C-446.40177081 290.18758827 -445.68080236 287.64402168 -444.95654297 285.09863281 C-432.0583777 240.53559457 -411.12737083 197.89748613 -383.53076172 160.60644531 C-382.77666016 159.57003906 -382.02255859 158.53363281 -381.24560547 157.46582031 C-368.96242211 140.79100878 -355.44225209 125.46456822 -340.84326172 110.79394531 C-340.04710449 109.99303467 -339.25094727 109.19212402 -338.43066406 108.36694336 C-333.6252767 103.57504025 -328.70544507 98.99623769 -323.53076172 94.60644531 C-322.89468994 94.06366943 -322.25861816 93.52089355 -321.60327148 92.96166992 C-310.96738114 83.94559422 -299.93512675 75.6210074 -288.53076172 67.60644531 C-287.73436279 67.04070801 -286.93796387 66.4749707 -286.11743164 65.89208984 C-270.38394687 54.76610441 -253.81194044 45.11400734 -236.53076172 36.60644531 C-235.15742676 35.9301709 -235.15742676 35.9301709 -233.75634766 35.24023438 C-203.28379576 20.40920653 -170.75111732 9.30005504 -137.53076172 2.60644531 C-136.6295459 2.42484863 -135.72833008 2.24325195 -134.79980469 2.05615234 C-128.0681772 0.73140642 -121.31592891 -0.38116812 -114.53076172 -1.39355469 C-113.54575684 -1.54598633 -112.56075195 -1.69841797 -111.54589844 -1.85546875 C-74.91393286 -7.28546717 -36.41138044 -6.46060539 0 0 Z " fill="#F7F8F8" transform="translate(572.53076171875,116.3935546875)"/>
<path d="M0 0 C1.28051743 -0.00570007 2.56103485 -0.01140015 3.88035583 -0.01727295 C6.58747748 -0.02771771 9.2945701 -0.03359991 12.00170898 -0.03710938 C14.7212496 -0.04145292 17.44046558 -0.05519488 20.15991211 -0.078125 C37.85957667 -0.22414426 55.05525035 0.49567757 72.55859375 3.203125 C73.35983673 3.3261499 74.16107971 3.4491748 74.98660278 3.57592773 C79.77754828 4.32748905 84.54321451 5.17895169 89.30859375 6.078125 C90.00560394 6.20862244 90.70261414 6.33911987 91.42074585 6.47357178 C96.13840994 7.35857159 100.84944047 8.27394225 105.55859375 9.203125 C107.01096436 9.48446289 107.01096436 9.48446289 108.49267578 9.77148438 C143.66374533 16.74822703 177.63157533 31.30965481 209.55859375 47.203125 C210.40518555 47.62174805 211.25177734 48.04037109 212.12402344 48.47167969 C237.83932778 61.27167422 261.74196379 77.40009775 283.79833984 95.74707031 C286.25808853 97.78173621 288.75554172 99.76885825 291.24609375 101.765625 C297.01095068 106.48780975 302.4391136 111.5450605 307.875 116.63720703 C309.58052795 118.2235261 311.30113452 119.79169775 313.02734375 121.35546875 C318.31027901 126.15158063 323.44126615 130.9365665 328.02734375 136.421875 C329.57952396 138.22747239 331.21957053 139.8639299 332.93359375 141.515625 C336.66164124 145.18555149 339.90413651 149.18806396 343.1796875 153.26171875 C345.55438048 156.19791548 347.98919257 159.0748523 350.43359375 161.953125 C398.14772451 219.28348827 428.221879 290.52382734 440.15408325 363.78594971 C440.44364993 365.51627171 440.74650469 367.24439063 441.05807495 368.97088623 C444.47165865 387.94738622 445.24879639 406.42932258 445.13399506 425.64192581 C445.1208945 427.98882026 445.11447568 430.33566259 445.10919189 432.68258667 C445.04015324 455.7776136 444.17683666 478.4613981 439.92572021 501.21618652 C439.55568424 503.21887166 439.20593534 505.22415581 438.86181641 507.23144531 C431.54692564 549.66390239 416.98320569 589.77061845 398.00195312 628.27441406 C397.10662108 630.09112637 396.21631542 631.91033645 395.33398438 633.73339844 C387.84970048 649.14638584 378.2375001 663.11657983 368.55859375 677.203125 C367.97754883 678.05777344 367.39650391 678.91242187 366.79785156 679.79296875 C357.41616357 693.5892266 347.01996517 706.55617329 335.71875 718.83203125 C334.49574259 720.17446434 333.28174336 721.52563093 332.09887695 722.90356445 C327.19128617 728.61750971 321.95765414 733.95308513 316.62109375 739.265625 C315.76580078 740.12478516 314.91050781 740.98394531 314.02929688 741.86914062 C309.03481936 746.8559988 303.93328529 751.62999312 298.55859375 756.203125 C297.54914866 757.08034899 296.54001065 757.95792652 295.53125 758.8359375 C286.80207619 766.31139104 277.77981505 773.34556453 268.55859375 780.203125 C267.91003418 780.68861816 267.26147461 781.17411133 266.59326172 781.67431641 C224.75232118 812.79611831 175.89972277 835.79324316 125.55859375 849.203125 C123.83576172 849.68265625 123.83576172 849.68265625 122.078125 850.171875 C113.1108557 852.55545784 104.03175633 854.39245787 94.93359375 856.203125 C93.18731689 856.5587854 93.18731689 856.5587854 91.40576172 856.92163086 C87.13301941 857.75220684 82.85373752 858.49863917 78.55859375 859.203125 C77.53003265 859.37322083 76.50147156 859.54331665 75.44174194 859.71856689 C55.92294289 862.85692667 36.97504472 863.78441375 17.24420166 863.59436035 C14.39834303 863.57259814 11.55267163 863.57351828 8.70674419 863.57437038 C-11.94286956 863.57290074 -32.48240868 862.87609097 -52.87890625 859.390625 C-53.90781982 859.21885742 -54.9367334 859.04708984 -55.99682617 858.87011719 C-76.90112663 855.30664872 -97.14393286 850.34460202 -117.44140625 844.203125 C-118.34358887 843.93838379 -119.24577148 843.67364258 -120.17529297 843.40087891 C-169.6485189 828.81372949 -216.27297158 801.02973132 -256.44140625 769.203125 C-257.45460938 768.40390625 -258.4678125 767.6046875 -259.51171875 766.78125 C-265.88842736 761.6580824 -271.91950893 756.19314196 -277.90332031 750.62353516 C-279.46416323 749.18210911 -281.03987735 747.75887169 -282.62109375 746.33984375 C-287.50915111 741.94248526 -292.18518994 737.53776607 -296.41015625 732.484375 C-299.23815398 729.30831602 -302.28370534 726.36992487 -305.31640625 723.390625 C-311.13359606 717.63903686 -316.43446334 711.68269818 -321.44140625 705.203125 C-322.58609375 703.7490625 -322.58609375 703.7490625 -323.75390625 702.265625 C-340.4233628 680.89452686 -355.42322535 658.72301976 -368.09082031 634.74414062 C-369.31983408 632.43185298 -370.57294167 630.13543038 -371.83984375 627.84375 C-395.39432925 584.9580605 -408.35289553 537.35375562 -415.44140625 489.203125 C-415.61696045 488.01533447 -415.79251465 486.82754395 -415.97338867 485.60375977 C-418.55919849 467.4491467 -419.81782706 449.54820248 -419.75390625 431.203125 C-419.7512677 430.29271454 -419.74862915 429.38230408 -419.74591064 428.44430542 C-419.33241506 342.55467152 -392.0601908 258.83506581 -343.44140625 188.203125 C-342.9098291 187.42388672 -342.37825195 186.64464844 -341.83056641 185.84179688 C-335.95680664 177.24389453 -329.85359634 169.02389656 -323.01171875 161.171875 C-320.64635409 158.43984287 -318.38096351 155.6535843 -316.12890625 152.828125 C-302.2241902 135.81443195 -286.35537265 118.67889375 -269 105.1953125 C-266.51136542 103.25759702 -264.11696263 101.24334061 -261.72509766 99.18896484 C-242.64339547 82.81476352 -221.83629476 68.74857421 -199.85595703 56.54492188 C-197.30283609 55.12611978 -194.76118047 53.68785919 -192.21875 52.25 C-139.84593172 22.88175568 -82.82370162 7.66997919 -23.44140625 1.203125 C-22.70993881 1.11503571 -21.97847137 1.02694641 -21.22483826 0.93618774 C-14.14677512 0.13605458 -7.11857591 0.02512169 0 0 Z M-41.44140625 35.203125 C-42.40898865 35.35584869 -42.40898865 35.35584869 -43.39611816 35.51165771 C-80.0014724 41.31669651 -116.60569401 50.78733554 -150.08007812 67.06445312 C-152.97287691 68.45940903 -155.8869572 69.80577515 -158.80078125 71.15625 C-178.8386155 80.52293978 -197.48196163 91.31024019 -215.44140625 104.203125 C-216.2087207 104.75258789 -216.97603516 105.30205078 -217.76660156 105.86816406 C-228.02730901 113.24549326 -237.94423138 120.86580626 -247.44140625 129.203125 C-248.17359375 129.83605469 -248.90578125 130.46898437 -249.66015625 131.12109375 C-251.5990667 132.80225222 -253.52130659 134.50051895 -255.44140625 136.203125 C-256.53340332 137.16895508 -256.53340332 137.16895508 -257.64746094 138.15429688 C-270.80463622 149.88401754 -283.69540175 162.1964054 -294.44140625 176.203125 C-295.34923989 177.31416954 -296.26098885 178.42202174 -297.17578125 179.52734375 C-305.2457103 189.32625941 -312.42496271 199.63140105 -319.44140625 210.203125 C-319.85487305 210.82010254 -320.26833984 211.43708008 -320.69433594 212.07275391 C-343.62847837 246.35665736 -361.21723208 284.17692044 -372.48461914 323.83837891 C-373.19347433 326.33121949 -373.92070797 328.8151677 -374.66186523 331.29833984 C-377.87013749 342.21508748 -379.96482462 353.08162123 -381.62890625 364.328125 C-381.87731342 365.94155153 -382.12666149 367.55483348 -382.37695312 369.16796875 C-382.9846517 373.11277246 -383.56130368 377.06128453 -384.12365723 381.01278687 C-384.41593739 383.02756058 -384.73082458 385.03902056 -385.04785156 387.05004883 C-386.87038085 399.54611165 -386.83721875 412.03474851 -386.81640625 424.640625 C-386.81619476 425.82143646 -386.81598328 427.00224792 -386.81576538 428.21884155 C-386.77636217 450.39313708 -385.51747819 472.2414797 -382.44140625 494.203125 C-382.20043213 495.92644043 -382.20043213 495.92644043 -381.95458984 497.68457031 C-374.04102924 550.19511263 -352.68446341 603.03932654 -323.44140625 647.203125 C-322.55020042 648.57253884 -321.65955354 649.94231665 -320.76953125 651.3125 C-318.37386983 654.97558804 -315.92072856 658.59628443 -313.44140625 662.203125 C-312.84513428 663.07759277 -312.84513428 663.07759277 -312.23681641 663.96972656 C-306.3446901 672.57673601 -299.94329039 680.58684152 -293.03106689 688.39645386 C-291.97945521 689.59162497 -290.93462353 690.7927993 -289.89700317 692.00013733 C-285.65119335 696.92445553 -281.2049194 701.58607781 -276.6015625 706.17578125 C-275.87577499 706.90252548 -275.14998749 707.62926971 -274.40220642 708.3780365 C-272.87817069 709.90274796 -271.35289056 711.4262165 -269.82641602 712.94848633 C-267.51008162 715.25946391 -265.19913547 717.57573271 -262.88867188 719.89257812 C-261.39745591 721.3831332 -259.90592972 722.873378 -258.4140625 724.36328125 C-257.39337425 725.38700584 -257.39337425 725.38700584 -256.35206604 726.43141174 C-242.24530843 740.47054006 -226.44558824 752.24904151 -209.87890625 763.203125 C-209.09215515 763.72570892 -208.30540405 764.24829285 -207.49481201 764.78671265 C-195.94258914 772.4462338 -184.33618525 779.69825226 -171.94384766 785.93945312 C-169.33820955 787.25523682 -166.75512392 788.60959427 -164.171875 789.96875 C-143.13672917 800.90923565 -121.18525604 809.54514201 -98.44140625 816.203125 C-96.88220459 816.67504272 -96.88220459 816.67504272 -95.29150391 817.15649414 C-86.09319955 819.88398222 -76.84647085 821.92119352 -67.44140625 823.765625 C-66.67716339 823.91686829 -65.91292053 824.06811157 -65.1255188 824.22393799 C-55.90769472 826.04264008 -46.68748518 827.78383349 -37.37890625 829.078125 C-36.61642578 829.18584229 -35.85394531 829.29355957 -35.06835938 829.40454102 C1.95141812 834.11104774 40.87736964 832.90129286 77.574646 826.54486084 C79.48124325 826.21644866 81.39024892 825.90211288 83.29931641 825.58837891 C98.19691783 823.12090569 112.57313284 819.49343685 126.98291016 814.99804688 C129.20311351 814.3128353 131.42777815 813.66137876 133.6640625 813.03125 C197.65407978 794.42087616 254.40953462 755.52558006 301.12109375 708.890625 C301.66863312 708.34475739 302.21617249 707.79888977 302.78030396 707.23648071 C309.79078064 700.22728427 316.47162527 693.17133967 322.36328125 685.1796875 C324.65177544 682.07678257 327.10293802 679.1842214 329.62109375 676.265625 C334.69633908 670.21375518 339.01182091 663.80804332 343.27880859 657.17724609 C344.54716399 655.22075587 345.84017295 653.28292844 347.140625 651.34765625 C365.31477417 624.1149607 379.65463676 594.70914371 390.60180664 563.88012695 C391.26292477 562.03037949 391.93747148 560.1853963 392.62280273 558.34448242 C394.55819171 553.14053548 396.23074323 548.04606247 397.49609375 542.640625 C398.49548592 538.42443929 399.52167477 534.23688934 400.78125 530.08984375 C404.42704851 518.01795081 406.38364972 505.87633747 408.11328125 493.39697266 C408.5259009 490.43760301 408.96015207 487.48241483 409.40234375 484.52734375 C416.19262628 438.37587666 413.85157446 393.7604503 404.55859375 348.203125 C404.39391602 347.39472168 404.22923828 346.58631836 404.05957031 345.75341797 C403.03751957 340.86248379 401.85300269 336.02869841 400.55859375 331.203125 C400.32978516 330.34428711 400.10097656 329.48544922 399.86523438 328.60058594 C386.88044961 280.55020632 365.09250527 235.26335859 335.55859375 195.203125 C335.12981934 194.62127441 334.70104492 194.03942383 334.25927734 193.43994141 C319.25203839 173.22144897 301.93338016 153.34236735 282.6796875 137.05078125 C280.47372065 135.12919318 278.35907335 133.12376856 276.23950195 131.10791016 C268.83120064 124.10528291 260.95170132 117.89406312 252.76025391 111.83544922 C250.61341136 110.24376711 248.48221507 108.63278928 246.3515625 107.01953125 C214.26974873 83.00602127 177.49825189 64.83420556 139.55859375 52.203125 C137.95298584 51.66727783 137.95298584 51.66727783 136.31494141 51.12060547 C111.48305467 42.93235296 86.31841508 38.34994325 60.4855957 34.75512695 C57.95508387 34.39942367 55.4271733 34.02441603 52.90307617 33.62573242 C40.26121392 31.77423408 27.62693506 31.84888088 14.87109375 31.890625 C13.69196411 31.89278015 12.51283447 31.8949353 11.29797363 31.89715576 C-6.47086098 31.94930533 -23.86507939 32.3929998 -41.44140625 35.203125 Z " fill="#2AB2E7" transform="translate(499.44140625,79.796875)"/>
<path d="M0 0 C0.33 0 0.66 0 1 0 C1.12117187 1.258125 1.24234375 2.51625 1.3671875 3.8125 C2.33579228 13.76173437 3.33268185 23.70253525 4.67724609 33.609375 C4.91166366 35.34569631 5.14040978 37.08278627 5.36572266 38.8203125 C7.81211004 57.51580009 11.59080622 75.68843123 16 94 C16.21188965 94.88381348 16.4237793 95.76762695 16.64208984 96.67822266 C17.71603803 101.13120151 18.84964448 105.56602543 20 110 C20.28117676 111.10972168 20.56235352 112.21944336 20.85205078 113.36279297 C23.37048236 123.10661155 26.39983871 132.61535807 29.6875 142.125 C29.95244263 142.89334167 30.21738525 143.66168335 30.49035645 144.45330811 C34.79433235 156.89449854 39.3888743 169.08053137 45 181 C45.41635712 181.88658295 45.41635712 181.88658295 45.84112549 182.79107666 C63.46171955 220.26632762 83.72687177 255.09724815 109 288 C109.4316748 288.56315918 109.86334961 289.12631836 110.30810547 289.70654297 C116.24652973 297.43260791 122.40259799 304.82121774 129 312 C130.12939929 313.28782181 131.254585 314.57935422 132.375 315.875 C143.48269856 328.58038122 155.00682655 341.30578748 167.92578125 352.20703125 C170.21064459 354.18208261 172.4132072 356.23139005 174.61914062 358.29370117 C185.94030444 368.86567032 198.02991566 378.10237853 210.54345703 387.20800781 C212.88861143 388.91874457 215.22452689 390.64136802 217.55859375 392.3671875 C234.59217071 404.90319757 252.52784248 415.72624531 271 426 C271.66418945 426.3707666 272.32837891 426.7415332 273.01269531 427.12353516 C340.61980194 464.66109755 416.32187232 482.43414412 493 488 C493 488.33 493 488.66 493 489 C330.31 489 167.62 489 0 489 C0 327.63 0 166.26 0 0 Z " fill="#F8F9F9" transform="translate(0,535)"/>
<path d="M0 0 C0.33 0 0.66 0 1 0 C1 160.71 1 321.42 1 487 C-163.01 487 -327.02 487 -496 487 C-496 486.67 -496 486.34 -496 486 C-491.96756711 485.27519912 -488.0096234 484.79713385 -483.921875 484.53515625 C-482.77050049 484.45861816 -481.61912598 484.38208008 -480.43286133 484.30322266 C-479.21751709 484.22378418 -478.00217285 484.1443457 -476.75 484.0625 C-450.4773665 482.24456885 -424.83930222 478.66546185 -399.2109375 472.47265625 C-395.45641534 471.56581942 -391.70750664 470.72248196 -387.9140625 469.99609375 C-313.52900996 455.40402154 -240.24502703 413.62479635 -183 365 C-182.42056641 364.50935059 -181.84113281 364.01870117 -181.24414062 363.51318359 C-174.23480086 357.5631044 -167.38463345 351.56808867 -160.96875 344.97265625 C-159.06874278 343.06887918 -157.10604649 341.31005662 -155.0625 339.5625 C-148.17939 333.63918622 -141.85407284 327.14127312 -135.9609375 320.23828125 C-133.95633701 317.95016156 -131.88271475 315.7354413 -129.79663086 313.52172852 C-123.60726181 306.93178468 -117.92751294 300.07549954 -112.44482422 292.890625 C-110.93126238 290.91005337 -109.40591804 288.9389665 -107.87890625 286.96875 C-55.2341145 218.85984898 -22.09491295 141.5978638 -7 57 C-6.87619965 56.3175824 -6.75239929 55.63516479 -6.62484741 54.93206787 C-4.43582563 42.79315171 -3.00097953 30.64866854 -1.8125 18.375 C-1.63400893 16.57807074 -1.45497479 14.78119534 -1.27539062 12.984375 C-0.84403329 8.65684169 -0.41990621 4.32865879 0 0 Z " fill="#FAFAFA" transform="translate(1023,537)"/>
<path d="M0 0 C162.36 0 324.72 0 492 0 C492 0.33 492 0.66 492 1 C491.39567139 1.03963867 490.79134277 1.07927734 490.16870117 1.12011719 C482.10537381 1.66292044 474.05152424 2.30459005 466 3 C464.68870117 3.1129541 463.37740234 3.2259082 462.02636719 3.34228516 C428.87214645 6.29074516 395.62530085 12.51469105 364 23 C362.89156738 23.36174316 361.78313477 23.72348633 360.64111328 24.09619141 C303.91526239 42.71553572 252.92000757 69.81134642 205.11376953 105.4296875 C203.2892523 106.78511541 201.45788586 108.13004245 199.62109375 109.46875 C180.94724548 123.19440146 164.33814803 139.47953862 148.00830078 155.86132812 C145.976738 157.89832421 143.93978164 159.92981951 141.90234375 161.9609375 C140.58040793 163.28353317 139.25878183 164.60643849 137.9375 165.9296875 C137.34259766 166.52256561 136.74769531 167.11544373 136.13476562 167.72628784 C129.77185491 174.12428155 123.93196085 180.94514392 118.3125 188 C117.80412598 188.63736084 117.29575195 189.27472168 116.77197266 189.93139648 C111.02729177 197.17273186 105.47787428 204.55551349 100 212 C99.57509277 212.57540527 99.15018555 213.15081055 98.71240234 213.74365234 C81.06160339 237.73278814 66.41322909 263.44766045 53 290 C52.56445801 290.86028809 52.12891602 291.72057617 51.68017578 292.60693359 C31.55772288 332.68937438 19.05840504 375.2293412 10.5703125 419.09863281 C10.0358098 421.81782375 9.47735401 424.53047805 8.90625 427.2421875 C4.26312499 449.3684973 2.27428246 471.46556156 1 494 C0.67 494 0.34 494 0 494 C0 330.98 0 167.96 0 0 Z " fill="#F8F8F8" transform="translate(0,0)"/>
<path d="M0 0 C160.05 0 320.1 0 485 0 C485 157.41 485 314.82 485 477 C484.67 477 484.34 477 484 477 C483.87471924 475.92967529 483.74943848 474.85935059 483.62036133 473.7565918 C481.09981908 452.3533969 478.3825632 431.11632313 474 410 C473.8261377 409.14341797 473.65227539 408.28683594 473.47314453 407.40429688 C471.54130115 397.94297614 469.15314861 388.69304451 466.33984375 379.45703125 C465.39201978 376.34056376 464.49477458 373.2144427 463.62890625 370.07421875 C455.37674839 340.19170554 443.73924186 312.148399 429.9375 284.4375 C429.3121637 283.17729538 429.3121637 283.17729538 428.67419434 281.89163208 C420.83404891 266.13714852 412.18251049 251.01201219 402.5 236.3125 C401.85909424 235.33555176 401.21818848 234.35860352 400.55786133 233.35205078 C392.53293011 221.17914194 383.98984407 209.47544665 375 198 C374.01773438 196.74123047 374.01773438 196.74123047 373.015625 195.45703125 C365.70418297 186.19687843 358.20447888 176.84771848 349.67382812 168.67480469 C348.01340118 167.013409 346.50282377 165.28753009 344.984375 163.49609375 C340.70842111 158.57905634 336.12736884 153.97669652 331.51196289 149.3815918 C330.06475615 147.93974779 328.62297974 146.49262884 327.18164062 145.04492188 C321.95705629 139.81658862 316.6171524 134.80323683 311 130 C309.39231627 128.54554483 307.78760285 127.08779105 306.1875 125.625 C287.08435295 108.43216766 266.04655768 93.56620729 244.375 79.8125 C243.68486816 79.37413818 242.99473633 78.93577637 242.28369141 78.48413086 C239.86796979 76.96857352 237.43763958 75.4801015 235 74 C234.41454407 73.64443024 233.82908813 73.28886047 233.22589111 72.92251587 C222.26801297 66.29665062 211.09068522 60.26018522 199.625 54.5625 C198.38743958 53.94578934 198.38743958 53.94578934 197.12487793 53.31661987 C139.40208195 24.63207718 78.42042215 8.16770577 14.25366211 3.03808594 C12.97241455 2.93012695 11.69116699 2.82216797 10.37109375 2.7109375 C9.23599365 2.62118652 8.10089355 2.53143555 6.93139648 2.43896484 C4 2 4 2 0 0 Z " fill="#FAFAFA" transform="translate(539,0)"/>
<path d="M0 0 C78.21 0 156.42 0 237 0 C237 29.09440506 231.11362029 55.21930487 211 77 C210.37738281 77.70253906 209.75476563 78.40507813 209.11328125 79.12890625 C199.9077681 88.99057757 188.14138239 95.4658598 176 101 C175.31802551 101.35178314 174.63605103 101.70356628 173.93341064 102.06600952 C169.62475989 103.43787295 165.46878558 103.32845217 160.97167969 103.35400391 C159.96437805 103.3671463 158.95707642 103.3802887 157.91925049 103.39382935 C154.58678861 103.43322853 151.25450742 103.45661479 147.921875 103.4765625 C146.20640347 103.48878908 146.20640347 103.48878908 144.45627594 103.50126266 C138.3937096 103.54297139 132.3312334 103.57157129 126.26855469 103.59033203 C120.04479169 103.61236484 113.82247791 103.68105298 107.59922409 103.76067543 C102.78262931 103.8133179 97.9663703 103.82974352 93.14951324 103.83689499 C90.85802765 103.84655971 88.56655361 103.86959394 86.27535248 103.90697098 C65.59194093 104.22319959 51.82192701 99.30688081 36 86 C35.12859375 85.29101562 34.2571875 84.58203125 33.359375 83.8515625 C26.83512822 78.30795404 21.83037322 72.04545766 17 65 C16.44441406 64.19949219 15.88882812 63.39898438 15.31640625 62.57421875 C7.22961029 50.07644318 3.67348367 35.46720056 1 21 C0.80019531 19.95972656 0.60039062 18.91945313 0.39453125 17.84765625 C-0.21245658 11.92802244 0 5.95067212 0 0 Z " fill="#FBFBFB" transform="translate(319,518)"/>
<path d="M0 0 C11.22 0 22.44 0 34 0 C34.495 7.92 34.495 7.92 35 16 C37.82660905 24.04496421 42.76163087 28.15261801 50 32.375 C56.85938455 36.53058831 61.44609186 42.40245859 64 50 C64.38031673 53.34056091 64.38031673 53.34056091 64.38768005 56.86889648 C64.39306559 57.52330688 64.39845113 58.17771727 64.40399987 58.85195827 C64.41820531 61.02519976 64.41119465 63.19782572 64.40405273 65.37109375 C64.40976015 66.93710822 64.41672585 68.50311852 64.42485046 70.06912231 C64.44275437 74.30877229 64.44161893 78.54821499 64.43590808 82.78789139 C64.43281272 86.33167599 64.43891242 89.87542098 64.44494683 93.41919994 C64.45898087 101.78047687 64.45743964 110.14165159 64.44604492 118.50292969 C64.43455993 127.12074666 64.44864825 135.73825256 64.4754414 144.35602856 C64.49760936 151.76430798 64.50423345 159.17248983 64.49836498 166.58080006 C64.49499741 171.00144212 64.4973974 175.4218847 64.51461601 179.84249878 C64.53010101 183.9991817 64.52611263 188.15540411 64.50731087 192.31206894 C64.50362951 193.83461292 64.50672029 195.35719114 64.51719666 196.87970352 C64.60986631 211.4641403 64.60986631 211.4641403 60 217 C56.6114521 219.71213289 52.53828695 219.29579627 48.37329102 219.29052734 C47.6102063 219.29724457 46.84712158 219.30396179 46.06091309 219.31088257 C43.54184434 219.3298592 41.023042 219.33378639 38.50390625 219.3359375 C36.7504007 219.34236503 34.99689623 219.34909336 33.24339294 219.35610962 C29.56905633 219.36808108 25.89481373 219.37179052 22.22045898 219.37060547 C17.51484769 219.37040214 12.8098394 219.39771889 8.10437107 219.43214989 C4.48322282 219.45439771 0.86222027 219.45844369 -2.75898933 219.45738602 C-4.49372501 219.45974461 -6.22846454 219.46858269 -7.96313286 219.48405075 C-10.39048286 219.50367104 -12.81652494 219.49788945 -15.24389648 219.48583984 C-15.95834427 219.49707886 -16.67279205 219.50831787 -17.40888977 219.51989746 C-20.84844409 219.47656031 -22.89084905 219.06556733 -25.85975647 217.28213501 C-29.82474193 213.05428337 -30.25065382 209.07887135 -30.26069641 203.41630554 C-30.26452196 202.76839312 -30.26834751 202.1204807 -30.27228898 201.45293456 C-30.28257776 199.28974732 -30.27863475 197.12682757 -30.2746582 194.96362305 C-30.27900704 193.40938065 -30.28419076 191.85514039 -30.29014587 190.30090332 C-30.30353057 186.08383041 -30.304115 181.86684716 -30.30158257 177.64975715 C-30.30051222 174.12605755 -30.30539802 170.60237605 -30.310188 167.07868034 C-30.32128195 158.76248209 -30.32172161 150.44632902 -30.31567383 142.13012695 C-30.30963711 133.56013998 -30.32193761 124.9903173 -30.3432439 116.42035836 C-30.36087888 109.055427 -30.36685815 101.69054784 -30.36360615 94.32559615 C-30.36179573 89.93007396 -30.36440511 85.5346689 -30.37832069 81.13916588 C-30.39092484 77.00309891 -30.38893058 72.86728725 -30.37590981 68.73122406 C-30.37354987 67.21716283 -30.37625777 65.7030835 -30.38453293 64.18904305 C-30.43431945 54.36819688 -30.01566041 46.07455586 -23.921875 37.85546875 C-20.71988575 34.76411734 -16.90085835 32.52684034 -13.0769043 30.28344727 C-6.64727406 26.45148883 -4.34863858 22.69727716 -1 16 C-0.67 10.72 -0.34 5.44 0 0 Z " fill="#F7F7F8" transform="translate(632,415)"/>
<path d="M0 0 C5.9776051 3.40617947 10.53060932 8.19720679 13.12890625 14.65625 C13.83652441 17.91017918 13.79317195 21.11200825 13.875 24.4375 C14.13675885 30.86311975 14.13675885 30.86311975 17.75 35.875 C19.03661366 36.90219461 20.32837352 37.92297389 21.625 38.9375 C22.79896241 40.22490147 23.94458441 41.53864114 25.0625 42.875 C28.03105556 46.32171216 31.16579104 49.52860859 34.4375 52.6875 C36.34021316 54.6445764 38.13273004 56.64335307 39.921875 58.703125 C43.47522142 62.7938252 47.15298845 66.75051273 50.875 70.6875 C58.77938438 79.08480813 66.589598 87.56007802 74.3125 96.125 C75.04339844 96.92164063 75.77429688 97.71828125 76.52734375 98.5390625 C78.625 100.9375 78.625 100.9375 80.50390625 103.5234375 C83.41817244 107.38073346 85.18570949 109.60586624 90.015625 110.71875 C93.24941134 110.97073335 96.38534269 111.06096255 99.625 110.9375 C99.53798828 109.99390625 99.53798828 109.99390625 99.44921875 109.03125 C99.14755833 103.30832085 99.61494528 99.39303625 103.0234375 94.69921875 C107.39021216 89.89576662 111.5919292 87.65634583 118.125 87.3125 C123.67558345 87.60463597 127.57946553 89.10295713 131.625 92.9375 C136.19404581 98.7940824 137.76600495 103.46423759 137.625 110.9375 C138.4474118 110.93305878 139.26982361 110.92861755 140.11715698 110.92404175 C147.85721916 110.88401328 155.59723135 110.85354025 163.33736992 110.83387566 C167.31691773 110.82342614 171.29638021 110.80924578 175.27587891 110.78662109 C179.11433886 110.76493415 182.95271659 110.75294018 186.79123306 110.74774551 C188.25770487 110.74404227 189.72417205 110.736811 191.19060898 110.72603989 C193.24029106 110.71157981 195.28963082 110.70951971 197.33935547 110.71044922 C198.50739716 110.706008 199.67543884 110.70156677 200.87887573 110.69699097 C203.625 110.9375 203.625 110.9375 205.625 112.9375 C207.91411494 142.36897778 200.41354061 172.93060997 181.25 195.8125 C170.40624058 208.19810647 158.34783231 216.74518223 143.625 223.9375 C144.14900391 224.64712891 144.14900391 224.64712891 144.68359375 225.37109375 C148.14670978 230.4038941 150.01551756 234.74664803 149.625 240.9375 C148.00736427 245.70053853 145.92984879 248.36566412 141.625 250.9375 C137.70153839 251.53635688 133.80792992 251.47328029 129.84570312 251.43920898 C128.65331528 251.44461197 127.46092743 251.45001495 126.23240662 251.45558167 C122.9698397 251.46593415 119.7079334 251.45838002 116.44540977 251.44187045 C113.02711979 251.42799603 109.60885975 251.43448275 106.19055176 251.43800354 C100.45067859 251.44070379 94.71101476 251.42724622 88.97119141 251.40405273 C82.34038301 251.37744398 75.70992455 251.37569649 69.07908106 251.3874411 C62.69370209 251.39823004 56.3084494 251.3920231 49.92308044 251.37788582 C47.208664 251.37213564 44.49434025 251.37220103 41.77992249 251.37695122 C37.98783194 251.3798583 34.19631499 251.36337917 30.40429688 251.34155273 C29.27998764 251.34605438 28.15567841 251.35055603 26.99729919 251.35519409 C25.44541649 251.34033714 25.44541649 251.34033714 23.86218262 251.32518005 C22.96624138 251.32275016 22.07030014 251.32032026 21.14720917 251.31781673 C18.03945209 250.8492069 16.16656907 249.76069569 13.625 247.9375 C10.35472498 243.20123962 9.70036384 238.53556892 10.625 232.9375 C12.4375 229.625 12.4375 229.625 14.625 226.9375 C15.49125 225.761875 15.49125 225.761875 16.375 224.5625 C16.99375 223.758125 16.99375 223.758125 17.625 222.9375 C16.61953125 222.82341797 16.61953125 222.82341797 15.59375 222.70703125 C-2.3110283 218.06592424 -19.48559469 198.95965762 -28.58789062 183.79125977 C-32.466154 177.09285619 -35.65406068 170.18291314 -38.375 162.9375 C-38.80232422 161.85662109 -38.80232422 161.85662109 -39.23828125 160.75390625 C-44.6697088 146.01941818 -46.52559652 128.5388087 -45.375 112.9375 C-43.375 110.9375 -43.375 110.9375 -41.31222534 110.69699097 C-40.46395172 110.70143219 -39.6156781 110.70587341 -38.74169922 110.71044922 C-37.78085419 110.71060028 -36.82000916 110.71075134 -35.83004761 110.71090698 C-34.79042877 110.72122955 -33.75080994 110.73155212 -32.6796875 110.7421875 C-31.61710724 110.7450174 -30.55452698 110.74784729 -29.45974731 110.75076294 C-26.05638501 110.76198361 -22.65328314 110.78709163 -19.25 110.8125 C-16.94661838 110.82252736 -14.64323264 110.83165363 -12.33984375 110.83984375 C-6.68480655 110.86192907 -1.02992187 110.89542511 4.625 110.9375 C0.74187728 103.159052 -3.14722531 95.3837338 -7.05957031 87.61993408 C-8.74072701 84.2827627 -10.41860754 80.94394905 -12.09619141 77.60498047 C-12.96168433 75.8842391 -13.82858721 74.1642063 -14.69677734 72.44482422 C-15.96822857 69.92600049 -17.23461637 67.40468866 -18.5 64.8828125 C-18.89050537 64.11212433 -19.28101074 63.34143616 -19.68334961 62.5473938 C-22.375 57.16523977 -22.375 57.16523977 -22.375 54.9375 C-23.550625 55.123125 -23.550625 55.123125 -24.75 55.3125 C-30.75118479 54.69168778 -35.91824962 51.5367533 -40.05859375 47.15625 C-45.53044352 39.75220403 -46.24630658 32.92284908 -45.375 23.9375 C-44.49181082 20.8814647 -43.20992968 18.52360402 -41.375 15.9375 C-40.9625 15.34582031 -40.55 14.75414062 -40.125 14.14453125 C-36.07767272 8.93589699 -30.90941697 5.43110071 -25.375 1.9375 C-24.715 1.49921875 -24.055 1.0609375 -23.375 0.609375 C-16.06408332 -3.7162507 -7.62472904 -3.46787375 0 0 Z M-38.375 117.9375 C-38.49983227 129.45786094 -38.49983227 129.45786094 -37.25 140.6875 C-37.12020752 141.43209473 -36.99041504 142.17668945 -36.85668945 142.94384766 C-31.80894219 169.74718899 -17.96400861 194.01008206 4.70214844 209.6953125 C17.00972727 217.79632155 17.00972727 217.79632155 30.91572571 221.09812927 C31.79151779 221.1081749 32.66730988 221.11822052 33.56964111 221.12857056 C35.00723785 221.13731705 35.00723785 221.13731705 36.47387695 221.14624023 C37.99161964 221.16091591 37.99161964 221.16091591 39.5400238 221.17588806 C42.89776294 221.20586249 46.25546188 221.22724156 49.61328125 221.24609375 C50.76250753 221.25266558 51.91173382 221.2592374 53.09578514 221.26600838 C59.18729801 221.29862199 65.27879333 221.32305965 71.37036133 221.3425293 C76.39568854 221.3602895 81.42044904 221.39502287 86.44555664 221.44506836 C92.52453026 221.50553518 98.60298142 221.53604282 104.68224144 221.54570198 C106.99012514 221.55421847 109.29799635 221.57294135 111.60570717 221.6024456 C124.62146799 221.75979648 135.16288512 221.5751892 146.625 214.9375 C147.34002182 214.55756897 148.05504364 214.17763794 148.79173279 213.78619385 C169.95086316 202.10191081 187.41939031 181.23880703 194.21533203 157.91113281 C194.76321513 155.76003825 195.26560095 153.60373257 195.75 151.4375 C195.91886719 150.71691406 196.08773437 149.99632812 196.26171875 149.25390625 C198.70539198 138.61334484 198.625 129.19187011 198.625 117.9375 C120.415 117.9375 42.205 117.9375 -38.375 117.9375 Z " fill="#1C2E50" transform="translate(357.375,400.0625)"/>
<path d="M0 0 C0.68651642 -0.00686325 1.37303284 -0.0137265 2.08035278 -0.02079773 C4.35008417 -0.03910138 6.61912665 -0.03522333 8.88891602 -0.02954102 C10.46688564 -0.03410133 12.04485326 -0.03940645 13.62281799 -0.04542542 C16.93075628 -0.05436363 20.23845325 -0.05192569 23.54638672 -0.04199219 C27.78473274 -0.03050478 32.02224533 -0.05070606 36.26048183 -0.07990932 C39.51961048 -0.09826014 42.77853903 -0.09798111 46.03770638 -0.0922718 C47.60021191 -0.09211843 49.16273087 -0.09817592 50.7251873 -0.11056328 C52.91107231 -0.12545039 55.09541317 -0.11481531 57.28125 -0.09765625 C58.52462631 -0.09749008 59.76800262 -0.09732391 61.04905701 -0.09715271 C64.20532227 0.40405273 64.20532227 0.40405273 66.60671997 1.85348511 C69.02879398 5.71790066 68.75576583 9.23895349 68.70703125 13.71484375 C68.71513573 15.12763611 68.71513573 15.12763611 68.72340393 16.56896973 C68.7359116 19.68228575 68.71938758 22.79468081 68.70141602 25.90795898 C68.70157094 28.06981963 68.70305888 30.23168055 68.70582581 32.39353943 C68.70721067 36.92378012 68.69463579 41.45370455 68.671875 45.98388672 C68.64347338 51.79715939 68.64623123 57.60990711 68.65896511 63.42321873 C68.66591201 67.88669843 68.65814458 72.35005629 68.64570808 76.81352043 C68.64118517 78.9573819 68.64086409 81.10125642 68.64477348 83.24511909 C68.64767641 86.23790543 68.63122311 89.22996201 68.609375 92.22265625 C68.61387665 93.11260788 68.6183783 94.00255951 68.62301636 94.91947937 C68.61311172 95.73399567 68.60320709 96.54851196 68.59300232 97.38771057 C68.59057242 98.09506127 68.58814253 98.80241198 68.585639 99.53119755 C68.08428074 102.00011707 67.19118636 102.89165137 65.20532227 104.40405273 C62.08665466 104.77827454 62.08665466 104.77827454 58.1953125 104.77636719 C57.48607635 104.78001785 56.77684021 104.78366852 56.04611206 104.78742981 C53.70180315 104.79553596 51.35818525 104.78192664 49.01391602 104.76733398 C47.38631694 104.76681544 45.75871723 104.76733292 44.13111877 104.7688446 C40.72061815 104.76875488 37.31035393 104.75832455 33.89990234 104.74023438 C29.52256841 104.71752909 25.14557941 104.7170063 20.76820278 104.72375202 C17.40795308 104.72708883 14.04778241 104.72046768 10.68754768 104.71062279 C9.07316565 104.70676686 7.45877483 104.70562419 5.84438896 104.70720863 C3.59140044 104.70757836 1.33885903 104.69498626 -0.9140625 104.67871094 C-2.19740982 104.67410355 -3.48075714 104.66949615 -4.80299377 104.66474915 C-7.79467773 104.40405273 -7.79467773 104.40405273 -9.79467773 102.40405273 C-9.99898177 99.28596782 -10.0777934 96.25633679 -10.06933594 93.13671875 C-10.07444687 92.17564209 -10.0795578 91.21456543 -10.08482361 90.22436523 C-10.09876647 87.03550046 -10.0977593 83.84685068 -10.09545898 80.65795898 C-10.09934336 78.44839904 -10.10367748 76.23883984 -10.10844421 74.02928162 C-10.11591655 69.39303164 -10.11560783 64.75685779 -10.11035156 60.12060547 C-10.10455586 54.17055408 -10.12148564 48.22081386 -10.14469624 42.27081394 C-10.15940693 37.7061327 -10.1603089 33.14152684 -10.15718651 28.5768261 C-10.15770107 26.38271404 -10.16296395 24.18859791 -10.17299843 21.99450874 C-10.18529375 18.9297255 -10.17861259 15.86555423 -10.16699219 12.80078125 C-10.17463593 11.88898605 -10.18227966 10.97719086 -10.19015503 10.0377655 C-10.18314072 9.20353058 -10.1761264 8.36929565 -10.16889954 7.50978088 C-10.16906728 6.78508386 -10.16923502 6.06038683 -10.16940784 5.31372929 C-9.08768445 -0.19888298 -4.79203475 0.02083671 0 0 Z " fill="#40AEE9" transform="translate(619.794677734375,494.595947265625)"/>
<path d="M0 0 C0.64750214 -0.00700928 1.29500427 -0.01401855 1.96212769 -0.02124023 C4.10222284 -0.03884311 6.24099495 -0.02718987 8.38110352 -0.01367188 C9.86939243 -0.01636651 11.35767963 -0.02024869 12.84596252 -0.02526855 C15.96567541 -0.03116691 19.08493021 -0.02259168 22.20458984 -0.00390625 C26.20085667 0.0188645 30.19604785 0.00577548 34.19227505 -0.01819611 C37.2661395 -0.03266235 40.33974971 -0.02804414 43.4136219 -0.01768494 C44.88680206 -0.01501887 46.3600054 -0.01828326 47.83315849 -0.02760315 C49.89460064 -0.03778111 51.95431158 -0.02225371 54.015625 0 C55.18794174 0.00318237 56.36025848 0.00636475 57.56809998 0.00964355 C61.19728058 0.62320376 62.38053569 1.60937572 64.57250977 4.51757812 C65.09008789 7.47851562 65.09008789 7.47851562 65.10375977 10.89257812 C65.11149414 12.74109375 65.11149414 12.74109375 65.11938477 14.62695312 C65.10391602 15.91085937 65.08844727 17.19476563 65.07250977 18.51757812 C65.09571289 20.4434375 65.09571289 20.4434375 65.11938477 22.40820312 C65.11422852 23.64054687 65.10907227 24.87289063 65.10375977 26.14257812 C65.09924805 27.26921875 65.09473633 28.39585937 65.09008789 29.55664062 C64.46457314 33.13505707 63.41045438 34.32084276 60.57250977 36.51757812 C57.79108933 37.0251366 55.42678687 36.70786327 52.57250977 36.51757812 C52.6602664 38.72662443 52.76845343 40.93486405 52.88500977 43.14257812 C52.94301758 44.37234375 53.00102539 45.60210937 53.06079102 46.86914062 C53.80204921 52.15414178 55.06482083 55.31447281 59.27954102 58.67773438 C60.81674805 59.61939453 60.81674805 59.61939453 62.38500977 60.58007812 C63.4562207 61.26457031 64.52743164 61.9490625 65.63110352 62.65429688 C66.60176758 63.26917969 67.57243164 63.8840625 68.57250977 64.51757812 C75.93764952 69.41260966 80.17570497 77.15097999 82.57250977 85.51757812 C82.82977867 88.77915001 82.82977867 88.77915001 82.8399353 92.37338257 C82.84446642 93.03848363 82.84899753 93.70358468 82.85366595 94.38884032 C82.86626579 96.60418804 82.86469249 98.81928852 82.86303711 101.03466797 C82.86902509 102.62846694 82.87583126 104.22226301 82.88339233 105.8160553 C82.90103112 110.13636287 82.90574679 114.45659118 82.90702391 118.77693129 C82.90844715 121.47829604 82.91272001 124.17964075 82.91801834 126.88100052 C82.93651088 136.31130499 82.94468984 145.74155299 82.94311523 155.171875 C82.94191372 163.95266319 82.96302003 172.73320563 82.99460256 181.51393163 C83.02077909 189.06147298 83.03148197 196.60893411 83.03020442 204.15652049 C83.02969523 208.66049956 83.03535444 213.16426009 83.05656052 217.66819382 C83.07596643 221.90528017 83.07605147 226.14194002 83.06152725 230.37904167 C83.05944103 231.93019803 83.06412894 233.48138126 83.07624817 235.03249168 C83.19719614 251.59032823 83.19719614 251.59032823 77.16058922 258.02187157 C71.71942662 262.91066136 66.70379037 263.81828482 59.60449219 263.83984375 C58.81681961 263.84977356 58.02914703 263.85970337 57.21760559 263.86993408 C54.62102721 263.89905837 52.02469315 263.91276065 49.42797852 263.92382812 C47.61582945 263.93534061 45.8036804 263.94685595 43.99153137 263.95837402 C40.19453807 263.97935996 36.39762904 263.99106756 32.60058594 263.99804688 C27.74820433 264.00901156 22.89694654 264.05706713 18.04491711 264.11399078 C14.30183208 264.15133996 10.55901525 264.16165972 6.81575966 264.16471863 C5.02764045 264.17075091 3.2395248 264.18673809 1.45158958 264.21308899 C-15.42586979 264.44408429 -15.42586979 264.44408429 -21.09135437 259.11218262 C-26.27322417 252.92790669 -27.54608287 248.8425766 -27.57466125 240.91574097 C-27.57833794 240.25375989 -27.58201463 239.59177881 -27.58580273 238.90973771 C-27.59681014 236.69290968 -27.60067842 234.47612857 -27.60449219 232.25927734 C-27.61075915 230.6690201 -27.61740616 229.07876432 -27.62440491 227.48851013 C-27.64542318 222.26643896 -27.65580646 217.04436757 -27.66577148 211.82226562 C-27.66982013 210.02210602 -27.67393708 208.22194656 -27.67812157 206.42178726 C-27.69716977 197.96210159 -27.71140055 189.50242462 -27.71973354 181.04272163 C-27.72949942 171.29025181 -27.75580353 161.53800935 -27.79623443 151.78561962 C-27.82643947 144.23979564 -27.84120664 136.69403666 -27.84451455 129.14815342 C-27.84686037 124.64518395 -27.85575952 120.14245747 -27.88097572 115.63955307 C-27.90433788 111.39922302 -27.90845718 107.15929455 -27.89821434 102.9189167 C-27.89772081 101.36859485 -27.90398692 99.81825268 -27.91777039 98.26799202 C-28.02630272 85.3298168 -26.09001216 76.40140517 -17.01342773 66.85742188 C-6.69126319 57.51757812 -6.69126319 57.51757812 -1.42749023 57.51757812 C-0.96342773 56.34195313 -0.96342773 56.34195313 -0.48999023 55.14257812 C0.57250977 52.51757812 0.57250977 52.51757812 1.57250977 50.51757812 C1.80280932 48.14634567 1.98370918 45.7701587 2.13500977 43.39257812 C2.21879883 42.11125 2.30258789 40.82992187 2.38891602 39.50976562 C2.47979492 38.02863281 2.47979492 38.02863281 2.57250977 36.51757812 C1.33500977 36.60007812 0.09750977 36.68257813 -1.17749023 36.76757812 C-4.14813599 36.96562118 -5.13562839 36.74326022 -7.53027344 34.89160156 C-9.99147105 31.81185821 -9.93001596 30.05321778 -9.92358398 26.14257812 C-9.92422852 24.91023438 -9.92487305 23.67789062 -9.92553711 22.40820312 C-9.90555664 21.12429688 -9.88557617 19.84039062 -9.86499023 18.51757812 C-9.87208008 17.23367188 -9.87916992 15.94976562 -9.88647461 14.62695312 C-9.82289031 5.27517052 -9.82289031 5.27517052 -8.30395508 2.36486816 C-5.60740477 -0.28975685 -3.74026226 0.01016022 0 0 Z M10.57250977 36.51757812 C10.24250977 41.79757812 9.91250977 47.07757813 9.57250977 52.51757812 C6.04756062 60.74245945 1.80205852 64.28697658 -5.86499023 68.76757812 C-13.64444571 73.67429667 -17.20616654 78.61882138 -19.42749023 87.51757812 C-19.72558443 90.87235915 -19.72558443 90.87235915 -19.68818665 94.35523987 C-19.69201219 95.00627227 -19.69583774 95.65730468 -19.69977921 96.32806534 C-19.71002299 98.48970925 -19.70613375 100.65108326 -19.70214844 102.81274414 C-19.70649959 104.37052657 -19.71168408 105.92830685 -19.71763611 107.48608398 C-19.73099113 111.70290425 -19.73160889 115.9196347 -19.72907281 120.13647199 C-19.72800114 123.66046044 -19.73289126 127.18443087 -19.73767823 130.70841545 C-19.74876041 139.02168855 -19.74921749 147.33491645 -19.74316406 155.64819336 C-19.73711882 164.21939779 -19.74945218 172.79043829 -19.77073413 181.36161476 C-19.78835146 188.72825368 -19.79435145 196.09484042 -19.79109639 203.46149963 C-19.78928426 207.85804611 -19.79191305 212.25447552 -19.80581093 216.65100288 C-19.81838751 220.78380724 -19.81644688 224.91635575 -19.80340004 229.04915619 C-19.80103467 230.56405918 -19.80376755 232.07898019 -19.81202316 233.59386253 C-19.82249581 235.66517113 -19.81438709 237.73562191 -19.80171204 239.80690002 C-19.80187978 240.96479821 -19.80204752 242.1226964 -19.80222034 243.31568241 C-19.28385666 247.74486071 -17.74374315 251.09209558 -14.71765137 254.36930847 C-11.44999198 256.00768843 -8.3582881 255.92793201 -4.78491211 255.88989258 C-3.6378756 255.89536858 -3.6378756 255.89536858 -2.46766663 255.9009552 C0.05636911 255.9090515 2.579761 255.89545856 5.10375977 255.88085938 C6.85965983 255.88034066 8.61556047 255.88085881 10.37145996 255.88237 C14.05005573 255.88228031 17.72843216 255.87185912 21.40698242 255.85375977 C26.12150527 255.83107276 30.83570766 255.83052894 35.55027008 255.83727741 C39.17566779 255.84061941 42.80099248 255.83398294 46.42637634 255.82414818 C48.16470457 255.82029988 49.90304092 255.81914643 51.64137268 255.82073402 C54.07104966 255.82110502 56.50031632 255.80847504 58.92993164 255.79223633 C59.6479747 255.79471375 60.36601776 255.79719116 61.1058197 255.79974365 C66.2120566 255.79886386 66.2120566 255.79886386 70.57250977 253.51757812 C76.00595124 246.97957763 75.14432817 239.26543837 75.10595703 231.1940918 C75.11302095 229.63294155 75.12176796 228.07179816 75.13206482 226.51066589 C75.15451969 222.28315832 75.1516277 218.05602585 75.14274335 213.82848144 C75.13762265 210.29242502 75.14493506 206.75643841 75.15221542 203.22038919 C75.16920319 194.87334484 75.16566128 186.52648335 75.14892578 178.17944336 C75.13201723 169.585473 75.14782395 160.99201106 75.18014866 152.39809626 C75.2068969 145.00504061 75.21410612 137.61214271 75.20563358 130.21904355 C75.20071814 125.81000412 75.2028442 121.40127026 75.2234211 116.99226952 C75.24185992 112.84286861 75.23572046 108.69419475 75.21122169 104.54483223 C75.20623905 103.02838879 75.20963695 101.51188919 75.22237015 99.99549103 C75.30632921 89.13098505 73.81197387 81.03605826 66.38500977 72.76757812 C62.91179672 69.52236594 58.98537507 67.3338583 54.87719727 64.98632812 C49.85775565 61.78749754 47.79187862 58.06600026 45.57250977 52.51757812 C45.24250977 47.23757813 44.91250977 41.95757812 44.57250977 36.51757812 C33.35250977 36.51757812 22.13250977 36.51757812 10.57250977 36.51757812 Z " fill="#182A4B" transform="translate(621.427490234375,378.482421875)"/>
<path d="M0 0 C4.00521387 2.88747977 7.46370991 6.48991981 9.6875 10.9375 C9.60844105 12.77458041 9.52587108 14.61163917 9.41821289 16.44726562 C8.97910099 23.08707617 8.97910099 23.08707617 10.99609375 29.26953125 C12.80121493 30.98620551 14.69669943 32.44244781 16.6875 33.9375 C17.86421384 35.22238708 19.00986297 36.53632167 20.125 37.875 C23.09355556 41.32171216 26.22829104 44.52860859 29.5 47.6875 C31.3903512 49.63186124 33.16918855 51.61662117 34.9453125 53.6640625 C38.70391819 57.99136506 42.61598538 62.15694886 46.5625 66.3125 C51.62273161 71.66430092 56.6442372 77.03863455 61.5390625 82.54296875 C63.16409887 84.35414565 64.80288068 86.14526073 66.4609375 87.92578125 C66.94457764 88.4468042 67.42821777 88.96782715 67.92651367 89.50463867 C69.28567356 90.96642853 70.64856672 92.4247447 72.01171875 93.8828125 C75.09819744 97.40635459 77.87698193 101.19014257 80.6875 104.9375 C59.2375 104.9375 37.7875 104.9375 15.6875 104.9375 C9.00410026 92.12765049 2.56530032 79.56457399 -3.58398438 66.5546875 C-3.96256592 65.75514648 -4.34114746 64.95560547 -4.73120117 64.13183594 C-5.50782233 62.47217082 -6.27174599 60.80651654 -7.02416992 59.13574219 C-10.97568091 49.3691951 -10.97568091 49.3691951 -18.20825195 42.27099609 C-21.08085764 41.44269619 -21.08085764 41.44269619 -23.84130859 41.25048828 C-27.9477356 40.73038954 -30.79846237 38.1185272 -33.3125 34.9375 C-36.05342595 29.4464194 -35.9434735 23.94403998 -35.3125 17.9375 C-32.68716534 12.00196078 -27.28643065 7.96126117 -22.3125 3.9375 C-21.66023438 3.40253906 -21.00796875 2.86757813 -20.3359375 2.31640625 C-14.03444228 -2.26060571 -7.29580727 -2.3401646 0 0 Z " fill="#F8F8F8" transform="translate(354.3125,406.0625)"/>
<path d="M0 0 C0.68651642 -0.00686325 1.37303284 -0.0137265 2.08035278 -0.02079773 C4.35008417 -0.03910138 6.61912665 -0.03522333 8.88891602 -0.02954102 C10.46688564 -0.03410133 12.04485326 -0.03940645 13.62281799 -0.04542542 C16.93075628 -0.05436363 20.23845325 -0.05192569 23.54638672 -0.04199219 C27.78473274 -0.03050478 32.02224533 -0.05070606 36.26048183 -0.07990932 C39.51961048 -0.09826014 42.77853903 -0.09798111 46.03770638 -0.0922718 C47.60021191 -0.09211843 49.16273087 -0.09817592 50.7251873 -0.11056328 C52.91107231 -0.12545039 55.09541317 -0.11481531 57.28125 -0.09765625 C58.52462631 -0.09749008 59.76800262 -0.09732391 61.04905701 -0.09715271 C64.20532227 0.40405273 64.20532227 0.40405273 66.60671997 1.85348511 C69.02879398 5.71790066 68.75576583 9.23895349 68.70703125 13.71484375 C68.71513573 15.12763611 68.71513573 15.12763611 68.72340393 16.56896973 C68.7359116 19.68228575 68.71938758 22.79468081 68.70141602 25.90795898 C68.70157094 28.06981963 68.70305888 30.23168055 68.70582581 32.39353943 C68.70721067 36.92378012 68.69463579 41.45370455 68.671875 45.98388672 C68.64347338 51.79715939 68.64623123 57.60990711 68.65896511 63.42321873 C68.66591201 67.88669843 68.65814458 72.35005629 68.64570808 76.81352043 C68.64118517 78.9573819 68.64086409 81.10125642 68.64477348 83.24511909 C68.64767641 86.23790543 68.63122311 89.22996201 68.609375 92.22265625 C68.61387665 93.11260788 68.6183783 94.00255951 68.62301636 94.91947937 C68.61311172 95.73399567 68.60320709 96.54851196 68.59300232 97.38771057 C68.59057242 98.09506127 68.58814253 98.80241198 68.585639 99.53119755 C68.08428074 102.00011707 67.19118636 102.89165137 65.20532227 104.40405273 C62.08665466 104.77827454 62.08665466 104.77827454 58.1953125 104.77636719 C57.48607635 104.78001785 56.77684021 104.78366852 56.04611206 104.78742981 C53.70180315 104.79553596 51.35818525 104.78192664 49.01391602 104.76733398 C47.38631694 104.76681544 45.75871723 104.76733292 44.13111877 104.7688446 C40.72061815 104.76875488 37.31035393 104.75832455 33.89990234 104.74023438 C29.52256841 104.71752909 25.14557941 104.7170063 20.76820278 104.72375202 C17.40795308 104.72708883 14.04778241 104.72046768 10.68754768 104.71062279 C9.07316565 104.70676686 7.45877483 104.70562419 5.84438896 104.70720863 C3.59140044 104.70757836 1.33885903 104.69498626 -0.9140625 104.67871094 C-2.19740982 104.67410355 -3.48075714 104.66949615 -4.80299377 104.66474915 C-7.79467773 104.40405273 -7.79467773 104.40405273 -9.79467773 102.40405273 C-9.99898177 99.28596782 -10.0777934 96.25633679 -10.06933594 93.13671875 C-10.07444687 92.17564209 -10.0795578 91.21456543 -10.08482361 90.22436523 C-10.09876647 87.03550046 -10.0977593 83.84685068 -10.09545898 80.65795898 C-10.09934336 78.44839904 -10.10367748 76.23883984 -10.10844421 74.02928162 C-10.11591655 69.39303164 -10.11560783 64.75685779 -10.11035156 60.12060547 C-10.10455586 54.17055408 -10.12148564 48.22081386 -10.14469624 42.27081394 C-10.15940693 37.7061327 -10.1603089 33.14152684 -10.15718651 28.5768261 C-10.15770107 26.38271404 -10.16296395 24.18859791 -10.17299843 21.99450874 C-10.18529375 18.9297255 -10.17861259 15.86555423 -10.16699219 12.80078125 C-10.17463593 11.88898605 -10.18227966 10.97719086 -10.19015503 10.0377655 C-10.18314072 9.20353058 -10.1761264 8.36929565 -10.16889954 7.50978088 C-10.16906728 6.78508386 -10.16923502 6.06038683 -10.16940784 5.31372929 C-9.08768445 -0.19888298 -4.79203475 0.02083671 0 0 Z M-1.79467773 8.40405273 C-1.79467773 37.77405273 -1.79467773 67.14405273 -1.79467773 97.40405273 C18.66532227 97.40405273 39.12532227 97.40405273 60.20532227 97.40405273 C60.20532227 68.03405273 60.20532227 38.66405273 60.20532227 8.40405273 C39.74532227 8.40405273 19.28532227 8.40405273 -1.79467773 8.40405273 Z " fill="#18294A" transform="translate(619.794677734375,494.595947265625)"/>
<path d="M0 0 C0.92100998 -0.00852997 1.84201996 -0.01705994 2.79093933 -0.02584839 C3.79930847 -0.02494202 4.80767761 -0.02403564 5.84660339 -0.02310181 C6.91029648 -0.02981903 7.97398956 -0.03653625 9.06991577 -0.04345703 C12.59603004 -0.06249772 16.12195455 -0.06636445 19.64811707 -0.06851196 C22.09568359 -0.07493618 24.54324932 -0.08166425 26.99081421 -0.08868408 C32.1263558 -0.10067242 37.26183004 -0.10436335 42.39738464 -0.10317993 C48.97829353 -0.10297678 55.5587704 -0.13026902 62.13957691 -0.16472435 C67.19677717 -0.18696285 72.25387302 -0.19101838 77.31111717 -0.18996048 C79.73720983 -0.19232141 82.16330515 -0.2011725 84.58934975 -0.21662521 C87.98400209 -0.23622058 91.37771721 -0.23047147 94.77238464 -0.21841431 C95.77468109 -0.22965332 96.77697754 -0.24089233 97.80964661 -0.25247192 C103.6901056 -0.19939752 107.00633997 0.38169829 111.50358582 4.26742554 C113.84281553 7.45728424 113.98906832 10.38356552 113.50358582 14.26742554 C112.18255615 16.42356873 112.18255615 16.42356873 109.50358582 18.26742554 C105.76321148 18.87714744 102.04732387 18.80285862 98.26506042 18.76913452 C96.54503059 18.777239 96.54503059 18.777239 94.79025269 18.7855072 C90.99521679 18.79802737 87.20093456 18.78148158 83.40592957 18.76351929 C80.77324382 18.76367419 78.14055783 18.76516166 75.50787354 18.76792908 C69.98902051 18.77063026 64.47038511 18.75716249 58.95158386 18.73397827 C52.57012083 18.70735572 46.18902131 18.70562583 39.80752176 18.71736664 C33.6682744 18.72814273 27.52917969 18.72185891 21.38994026 18.70781136 C18.77717535 18.70328604 16.16439974 18.70296943 13.55163383 18.70687675 C9.90510279 18.70977734 6.259172 18.69333676 2.61271667 18.67147827 C1.52639954 18.67597992 0.4400824 18.68048157 -0.67915344 18.68511963 C-1.67036697 18.675215 -2.66158051 18.66531036 -3.68283081 18.65510559 C-4.54504273 18.6526757 -5.40725466 18.6502458 -6.29559422 18.64774227 C-9.01827717 18.17724405 -9.90061391 17.50267111 -11.49641418 15.26742554 C-12.02649468 10.57242684 -12.21312385 8.40427535 -9.68391418 4.39242554 C-6.43655159 1.23784473 -4.46151825 0.01867756 0 0 Z " fill="#F4F5F6" transform="translate(386.4964141845703,626.7325744628906)"/>
<path d="M0 0 C2.76459745 1.73918312 5.07733063 3.81192546 7.5234375 5.9765625 C13.88920493 11.44088558 20.66964173 15.54991049 28.1484375 19.3515625 C29.10985515 19.86161111 29.10985515 19.86161111 30.09069538 20.38196373 C36.06670127 23.33413156 41.06962795 23.93583278 47.6784668 23.90087891 C49.19752373 23.9162117 49.19752373 23.9162117 50.74726868 23.93185425 C54.07264302 23.95949879 57.39718111 23.95774331 60.72265625 23.953125 C63.05280358 23.96090886 65.38294809 23.96958024 67.71308899 23.97909546 C72.59096481 23.99398955 77.46855108 23.99346094 82.34643555 23.98291016 C88.56570688 23.97134433 94.78378238 24.00513831 101.00285625 24.0515995 C105.81507681 24.08121921 110.62701448 24.08279775 115.43931007 24.07658005 C117.73040949 24.07759987 120.02152613 24.08795011 122.31253624 24.10820389 C134.11341536 24.1997097 144.08447916 24.21489184 154.64509583 18.54086304 C157.1484375 17.3515625 157.1484375 17.3515625 160.1484375 18.3515625 C159.6328125 18.9496875 159.1171875 19.5478125 158.5859375 20.1640625 C158.1115625 20.8859375 157.6371875 21.6078125 157.1484375 22.3515625 C157.4784375 23.3415625 157.8084375 24.3315625 158.1484375 25.3515625 C156.1684375 26.8365625 156.1684375 26.8365625 154.1484375 28.3515625 C155.355 29.805625 155.355 29.805625 156.5859375 31.2890625 C159.54655071 35.45585146 160.46435987 39.25963723 160.1484375 44.3515625 C158.53080177 49.11460103 156.45328629 51.77972662 152.1484375 54.3515625 C148.22497589 54.95041938 144.33136742 54.88734279 140.36914062 54.85327148 C139.17675278 54.85867447 137.98436493 54.86407745 136.75584412 54.86964417 C133.4932772 54.87999665 130.2313709 54.87244252 126.96884727 54.85593295 C123.55055729 54.84205853 120.13229725 54.84854525 116.71398926 54.85206604 C110.97411609 54.85476629 105.23445226 54.84130872 99.49462891 54.81811523 C92.86382051 54.79150648 86.23336205 54.78975899 79.60251856 54.8015036 C73.21713959 54.81229254 66.8318869 54.8060856 60.44651794 54.79194832 C57.7321015 54.78619814 55.01777775 54.78626353 52.30335999 54.79101372 C48.51126944 54.7939208 44.71975249 54.77744167 40.92773438 54.75561523 C39.80342514 54.76011688 38.67911591 54.76461853 37.52073669 54.76925659 C35.96885399 54.75439964 35.96885399 54.75439964 34.38562012 54.73924255 C33.48967888 54.73681266 32.59373764 54.73438276 31.67064667 54.73187923 C28.56288959 54.2632694 26.69000657 53.17475819 24.1484375 51.3515625 C20.87816248 46.61530212 20.22380134 41.94963142 21.1484375 36.3515625 C22.9609375 33.0390625 22.9609375 33.0390625 25.1484375 30.3515625 C25.7259375 29.5678125 26.3034375 28.7840625 26.8984375 27.9765625 C27.3109375 27.4403125 27.7234375 26.9040625 28.1484375 26.3515625 C27.478125 26.27550781 26.8078125 26.19945312 26.1171875 26.12109375 C22.19760455 25.10509659 19.04196193 23.17430465 15.6484375 21.0390625 C14.95298828 20.60480957 14.25753906 20.17055664 13.54101562 19.72314453 C6.32333938 15.06323642 0.21576848 9.39811495 -5.8515625 3.3515625 C-5.5215625 2.3615625 -5.1915625 1.3715625 -4.8515625 0.3515625 C-1.8515625 -0.6484375 -1.8515625 -0.6484375 0 0 Z M29.1484375 35.3515625 C27.59068814 38.46706122 27.58363128 41.9560013 28.1484375 45.3515625 C29.77933539 47.48978765 30.66971573 48.26883611 33.34925747 48.73187923 C34.64257535 48.73552408 34.64257535 48.73552408 35.96202087 48.73924255 C36.95323441 48.74914719 37.94444794 48.75905182 38.96569824 48.76925659 C40.05201538 48.76475494 41.13833252 48.7602533 42.25756836 48.75561523 C43.40250259 48.76247849 44.54743683 48.76934174 45.72706604 48.77641296 C49.52259624 48.79475729 53.31771611 48.79083242 57.11328125 48.78515625 C59.74500158 48.7897144 62.37672072 48.79501886 65.00843811 48.80104065 C70.52902164 48.81107639 76.04948808 48.80776429 81.57006836 48.79760742 C87.95097217 48.78612711 94.33145564 48.80019826 100.71230406 48.8270039 C106.85100861 48.85182661 112.98951913 48.85433995 119.12826729 48.84788704 C121.74021669 48.84773336 124.35217401 48.85381593 126.96409416 48.86617851 C130.61302046 48.88101467 134.26101546 48.87046444 137.90991211 48.85327148 C138.99420502 48.86293945 140.07849792 48.87260742 141.19564819 48.88256836 C146.86283675 48.91705715 146.86283675 48.91705715 151.81959534 46.49989319 C153.67541676 43.49959847 153.70480079 41.82883306 153.1484375 38.3515625 C151.00324198 34.36762797 149.36061527 32.00916115 145.1484375 30.3515625 C142.92212167 30.04608475 142.92212167 30.04608475 140.5317688 30.07740784 C139.60938416 30.06743271 138.68699951 30.05745758 137.73666382 30.04718018 C136.22950302 30.04618317 136.22950302 30.04618317 134.69189453 30.04516602 C133.09613586 30.03268074 133.09613586 30.03268074 131.46813965 30.01994324 C127.94747266 29.99582582 124.42699086 29.98706917 120.90625 29.98046875 C118.46011295 29.97150423 116.01397648 29.96238242 113.56784058 29.95310974 C108.43827989 29.93661278 103.30878454 29.92891824 98.17919922 29.92602539 C91.60608183 29.92063892 85.03357821 29.88294998 78.46063423 29.83728123 C73.40772254 29.80754155 68.35495924 29.8003025 63.30196762 29.79929924 C60.87865257 29.79509135 58.45533729 29.78263446 56.03210831 29.76178169 C52.64220247 29.73493115 49.25372735 29.73967492 45.86376953 29.75219727 C44.86304413 29.73736298 43.86231873 29.72252869 42.83126831 29.70724487 C36.49181609 29.77394155 33.49849161 30.64746003 29.1484375 35.3515625 Z " fill="#142648" transform="translate(346.8515625,596.6484375)"/>
<path d="M0 0 C18.81 0 37.62 0 57 0 C57 6.6 57 13.2 57 20 C38.19 20 19.38 20 0 20 C0 13.4 0 6.8 0 0 Z " fill="#45AFEC" transform="translate(621,387)"/>
<path d="M0 0 C5.9776051 3.40617947 10.53060932 8.19720679 13.12890625 14.65625 C13.83652441 17.91017918 13.79317195 21.11200825 13.875 24.4375 C14.10239846 29.55649202 14.28055788 32.53020553 18.0625 36.125 C18.67996094 36.59292969 19.29742187 37.06085938 19.93359375 37.54296875 C21.87749853 39.14568009 22.64620018 40.64051752 23.625 42.9375 C22.635 43.9275 22.635 43.9275 21.625 44.9375 C22.615 45.9275 23.605 46.9175 24.625 47.9375 C24.295 48.9275 23.965 49.9175 23.625 50.9375 C21.20707525 49.0031602 18.92022742 47.01338828 16.625 44.9375 C15.66335938 44.10992187 14.70171875 43.28234375 13.7109375 42.4296875 C5.45190833 34.82051422 5.45190833 34.82051422 5.0625 28.8125 C5.0621801 26.0146648 5.31733298 23.39745005 5.62890625 20.6015625 C5.62411656 16.10882861 4.4355981 14.3654259 1.625 10.9375 C-3.40524271 6.39801267 -7.59754195 5.34055668 -14.26171875 5.40234375 C-23.41601576 6.97591802 -31.08513248 14.64467293 -36.375 21.9375 C-37.6013757 24.39025141 -37.48915314 25.9880781 -37.47265625 28.7265625 C-37.46943359 29.66757812 -37.46621094 30.60859375 -37.46289062 31.578125 C-37.45451172 32.56296875 -37.44613281 33.5478125 -37.4375 34.5625 C-37.43298828 35.55507813 -37.42847656 36.54765625 -37.42382812 37.5703125 C-37.41202145 40.0261016 -37.395554 42.48177104 -37.375 44.9375 C-39.76171875 44.609375 -39.76171875 44.609375 -42.375 43.9375 C-46.36187023 37.88845551 -46.15054864 30.96972198 -45.375 23.9375 C-44.48479408 20.88464694 -43.20955134 18.5230708 -41.375 15.9375 C-40.9625 15.34582031 -40.55 14.75414062 -40.125 14.14453125 C-36.07767272 8.93589699 -30.90941697 5.43110071 -25.375 1.9375 C-24.715 1.49921875 -24.055 1.0609375 -23.375 0.609375 C-16.06408332 -3.7162507 -7.62472904 -3.46787375 0 0 Z " fill="#192A4E" transform="translate(357.375,400.0625)"/>
<path d="M0 0 C1.98 0 3.96 0 6 0 C6.15855469 0.76441406 6.31710937 1.52882813 6.48046875 2.31640625 C11.85940666 27.01197202 21.25974894 47.11735781 42.84765625 61.1328125 C50.81449825 65.85171024 58.36379513 68.58420325 67.4453125 70.421875 C70 71 70 71 71 72 C71.04063832 73.66617115 71.042721 75.33388095 71 77 C59.75386696 79.8976523 47.48330502 72.5943181 38 67 C34.82514707 64.83691339 31.90107965 62.51227516 29 60 C28.18789063 59.37867188 27.37578125 58.75734375 26.5390625 58.1171875 C12.52074595 46.42806816 2.68565626 26.83551206 0 9 C-0.19070162 5.9445363 -0.15577584 3.06359156 0 0 Z " fill="#4BADEC" transform="translate(334,533)"/>
<path d="M0 0 C3.41188688 2.84323907 6.02747674 5.44033375 6.44921875 10.0546875 C6.10794007 15.84667425 4.36484544 18.86051665 0.25 22.875 C-3.45221166 24.72610583 -7.70906917 24.33954795 -11.75 23.875 C-15.41422065 21.73753796 -17.12726527 19.72723113 -18.75 15.875 C-19.48651586 11.16472412 -19.17246633 7.70484458 -17 3.4375 C-12.3437906 -1.86540515 -6.5057724 -2.66145234 0 0 Z " fill="#16284A" transform="translate(453.75,456.125)"/>
<path d="M0 0 C3 2.5 3 2.5 5 5 C5.33 5.33 5.66 5.66 6 6 C6.55720584 9.78103961 6.84003776 13.47978241 4.953125 16.89453125 C1.84085497 20.65671649 0.08318614 21.89168139 -4.75 22.375 C-8.06751516 22.34478584 -9.85116622 21.77284903 -12.4375 19.6875 C-15.92518761 16.02968129 -16.39638535 13.08521456 -16.359375 8.0703125 C-15.71820971 4.3766429 -13.64068388 2.57781045 -11 0 C-7.49616667 -1.75191667 -3.70477574 -0.95978646 0 0 Z " fill="#182B4D" transform="translate(504,464)"/>
<path d="M0 0 C3.4290034 2.04281054 5.9158558 4.09708087 7 8 C6.92002707 13.03829462 6.80642825 15.02815058 3.5625 18.9375 C-0.4596765 22.17486157 -2.81038611 22.51896139 -8 22 C-10.97672584 20.22719439 -13.42804007 18.14391985 -15 15 C-15.55512815 10.36786507 -15.6364242 7.01827873 -13.125 3 C-9.16927693 -0.72303348 -5.23351212 -0.6609799 0 0 Z " fill="#1B2D4E" transform="translate(479,436)"/>
<path d="M0 0 C6.80770955 3.26770059 10.75449796 7.54692669 14.15625 14.29296875 C15.22567195 17.72403083 15.16930159 20.7862735 15.1875 24.375 C15.34459016 29.28154801 15.7347382 32.67599655 19.4375 36.1875 C20.05496094 36.65542969 20.67242187 37.12335938 21.30859375 37.60546875 C23.25249853 39.20818009 24.02120018 40.70301752 25 43 C24.34 43.66 23.68 44.32 23 45 C23.99 45.99 24.98 46.98 26 48 C25.67 48.99 25.34 49.98 25 51 C22.58207525 49.0656602 20.29522742 47.07588828 18 45 C17.03835938 44.17242187 16.07671875 43.34484375 15.0859375 42.4921875 C6.82690833 34.88301422 6.82690833 34.88301422 6.4375 28.875 C6.4371801 26.0771648 6.69233298 23.45995005 7.00390625 20.6640625 C6.99911721 16.17194235 5.81282838 14.42562313 3 11 C0.43415478 8.74706274 -2.15908115 6.8939459 -5 5 C-3.35 3.35 -1.7 1.7 0 0 Z " fill="#203054" transform="translate(356,400)"/>
<path d="M0 0 C3.15403742 1.6600197 5.26814005 4.00200916 7.375 6.875 C8 9 8 9 8 16 C0.08 16 -7.84 16 -16 16 C-16 7 -16 7 -13.625 3.5 C-9.38712518 -0.53607126 -5.70042077 -0.86224852 0 0 Z " fill="#48B0F1" transform="translate(480,495)"/>
<path d="M0 0 C1.98 0 3.96 0 6 0 C6.19335938 0.85722656 6.38671875 1.71445312 6.5859375 2.59765625 C8.21341431 9.87493167 8.21341431 9.87493167 10.1875 17.0625 C11 20 11 20 11 24 C9.5 25.75 9.5 25.75 8 27 C7.01 26.67 6.02 26.34 5 26 C3.59648651 23.14930815 2.86132822 20.05336015 2 17 C1.79117187 16.32066406 1.58234375 15.64132812 1.3671875 14.94140625 C-0.06775461 9.91910887 -0.21674958 5.2019898 0 0 Z " fill="#45A9EC" transform="translate(334,533)"/>
<path d="M0 0 C0.66 0.33 1.32 0.66 2 1 C1.41992188 1.56847656 0.83984375 2.13695312 0.2421875 2.72265625 C-3.92960951 6.84626418 -7.95123325 10.99991079 -11.72265625 15.4921875 C-13.38289081 17.45197508 -15.08335347 19.28870845 -17 21 C-17.66 21 -18.32 21 -19 21 C-19 21.66 -19 22.32 -19 23 C-19.66 23 -20.32 23 -21 23 C-21 23.66 -21 24.32 -21 25 C-23.46652704 27.68416178 -26.03427549 30.02756942 -28.875 32.3125 C-31.32497927 34.30623313 -33.33285625 36.46619862 -35.375 38.875 C-38.8650619 42.95449458 -42.57522741 46.92189733 -47 50 C-47.99 50 -48.98 50 -50 50 C-41.76204279 40.78922148 -33.14972235 31.99405081 -24.40063477 23.27026367 C-22.17020952 21.04525148 -19.94524982 18.81487228 -17.72070312 16.58398438 C-16.28677925 15.15072053 -14.85254563 13.71776649 -13.41796875 12.28515625 C-12.43342964 11.2975808 -12.43342964 11.2975808 -11.42900085 10.29005432 C-7.76604596 6.64558146 -4.0233237 3.24336664 0 0 Z " fill="#1B344B" transform="translate(177,127)"/>
<path d="M0 0 C2.70478402 1.70906683 4.9154843 3.73214062 7.2578125 5.91015625 C10.44788759 8.98484811 10.44788759 8.98484811 14.1328125 11.34765625 C13.8028125 13.32765625 13.4728125 15.30765625 13.1328125 17.34765625 C8.78936556 16.81929419 6.42724121 15.35791293 3.0703125 12.59765625 C2.23371094 11.9221875 1.39710938 11.24671875 0.53515625 10.55078125 C-1.93170543 8.28848859 -3.997521 6.12749613 -5.8671875 3.34765625 C-5.5371875 2.35765625 -5.2071875 1.36765625 -4.8671875 0.34765625 C-1.8671875 -0.65234375 -1.8671875 -0.65234375 0 0 Z " fill="#42A9EB" transform="translate(359.8671875,580.65234375)"/>
<path d="M0 0 C0.99 0.33 1.98 0.66 3 1 C2.34 2.32 1.68 3.64 1 5 C2.98 4.67 4.96 4.34 7 4 C6.154375 4.721875 5.30875 5.44375 4.4375 6.1875 C1.67750879 8.71922674 1.67750879 8.71922674 2.125 11.6875 C2.94759815 13.97998132 2.94759815 13.97998132 4 16 C3.34 16.66 2.68 17.32 2 18 C2 18.99 2 19.98 2 21 C-0.6245228 20.00449135 -1.95028727 19.06036546 -3.75 16.875 C-5.3537466 13.18638282 -5.85513668 9.91683139 -5 6 C-3.54958016 3.61788686 -1.99471318 1.99471318 0 0 Z " fill="#192B4D" transform="translate(493,464)"/>
<path d="M0 0 C2 2 2 2 2.25 5.5 C2 9 2 9 0 11 C-6.09583333 11.55416667 -6.09583333 11.55416667 -8.9375 9.8125 C-10.38718434 7.33950907 -10.42317323 5.82115488 -10 3 C-7.65916893 -0.99318242 -4.22752593 -0.38432054 0 0 Z " fill="#4EB2F2" transform="translate(451,462)"/>
<path d="M0 0 C4.95 2.31 9.9 4.62 15 7 C14.01 8.65 13.02 10.3 12 12 C12.66 12 13.32 12 14 12 C14 12.66 14 13.32 14 14 C7.65660349 12.19389405 2.43061745 9.74372266 -3 6 C-2.34 5.67 -1.68 5.34 -1 5 C-0.67 3.35 -0.34 1.7 0 0 Z " fill="#54B4ED" transform="translate(374,593)"/>
<path d="M0 0 C0.33 0 0.66 0 1 0 C1.33 1.98 1.66 3.96 2 6 C2.99 6.33 3.98 6.66 5 7 C3.59561113 10.39393978 2.13616902 12.08345227 -1 14 C-3.578125 14.29296875 -3.578125 14.29296875 -6.25 14.1875 C-7.14203125 14.16042969 -8.0340625 14.13335937 -8.953125 14.10546875 C-9.62859375 14.07066406 -10.3040625 14.03585937 -11 14 C-10.01 13.34 -9.02 12.68 -8 12 C-8.66 10.02 -9.32 8.04 -10 6 C-7.36 6 -4.72 6 -2 6 C-1.34 4.02 -0.68 2.04 0 0 Z " fill="#1F345A" transform="translate(453,466)"/>
<path d="M0 0 C2.33944736 0.28730055 4.6739143 0.61936779 7 1 C8.32841008 6.43440487 8.32841008 6.43440487 6.875 8.9375 C5 10 5 10 2.4375 9.8125 C0 9 0 9 -2 7 C-1.43181818 1.43181818 -1.43181818 1.43181818 0 0 Z " fill="#50B7F2" transform="translate(496,470)"/>
<path d="M0 0 C2.93453261 0.36681658 3.86437246 0.86437246 6 3 C5.44444444 7.55555556 5.44444444 7.55555556 4 9 C1.5625 9.1875 1.5625 9.1875 -1 9 C-1.66 8.34 -2.32 7.68 -3 7 C-2.67028521 3.70285207 -2.3773161 2.3773161 0 0 Z " fill="#ECEEF1" transform="translate(473,442)"/>
<path d="M0 0 C3.875 2.625 3.875 2.625 5 6 C0.41968912 8.99481865 0.41968912 8.99481865 -2 10 C-4.4375 9.25 -4.4375 9.25 -6 8 C-5.01 6.68 -4.02 5.36 -3 4 C-3.33 3.34 -3.66 2.68 -4 2 C-2.68 1.34 -1.36 0.68 0 0 Z " fill="#1F355B" transform="translate(509,611)"/>
<path d="M0 0 C1.45922693 0.11409593 2.91740598 0.24165544 4.375 0.375 C5.59316406 0.47941406 5.59316406 0.47941406 6.8359375 0.5859375 C9 1 9 1 11 3 C9.33333333 4.66666667 7.66666667 6.33333333 6 8 C5.236875 7.649375 4.47375 7.29875 3.6875 6.9375 C0.95240621 5.67639116 0.95240621 5.67639116 -2 7 C-1.34 4.69 -0.68 2.38 0 0 Z " fill="#203354" transform="translate(495,463)"/>
<path d="M0 0 C2.5 2.3125 2.5 2.3125 5 5 C5 7 5 9 5 11 C4.01 11.33 3.02 11.66 2 12 C-1.23014784 9.84656811 -2.75686537 8.72940389 -4 5 C-3.01 4.67 -2.02 4.34 -1 4 C-0.26676204 1.98491642 -0.26676204 1.98491642 0 0 Z " fill="#1F345B" transform="translate(320,439)"/>
<path d="M0 0 C2.5 1.3125 2.5 1.3125 5 3 C5 3.99 5 4.98 5 6 C2.5 7.6875 2.5 7.6875 0 9 C-1.32 7.68 -2.64 6.36 -4 5 C-3.34 5 -2.68 5 -2 5 C-2 4.34 -2 3.68 -2 3 C-1.34 3 -0.68 3 0 3 C0 2.01 0 1.02 0 0 Z " fill="#20365C" transform="translate(484,490)"/>
<path d="M0 0 C0.66 0.66 1.32 1.32 2 2 C0.89966185 3.60679516 -0.20542664 5.21033793 -1.3125 6.8125 C-1.92738281 7.70582031 -2.54226562 8.59914062 -3.17578125 9.51953125 C-4.67715037 11.56100746 -6.14785401 13.28462787 -8 15 C-7.4520917 10.7170548 -5.97567196 8.14864359 -3.4375 4.6875 C-2.79683594 3.80449219 -2.15617187 2.92148438 -1.49609375 2.01171875 C-0.75552734 1.01591797 -0.75552734 1.01591797 0 0 Z " fill="#1B344D" transform="translate(83,236)"/>
<path d="M0 0 C1.625 1 1.625 1 3 3 C2.74701252 5.79972814 2.09697032 8.41138222 1 11 C0.01 11.495 0.01 11.495 -1 12 C-1.66 10.02 -2.32 8.04 -3 6 C-2.34 6 -1.68 6 -1 6 C-0.67 4.02 -0.34 2.04 0 0 Z " fill="#1A2B51" transform="translate(359,491)"/>
<path d="M0 0 C1.2065625 0.0309375 1.2065625 0.0309375 2.4375 0.0625 C1.4475 0.3925 0.4575 0.7225 -0.5625 1.0625 C-0.8925 3.3725 -1.2225 5.6825 -1.5625 8.0625 C-0.2425 8.7225 1.0775 9.3825 2.4375 10.0625 C-2.3125 9.3125 -2.3125 9.3125 -4.5625 7.0625 C-3.85142216 0.09393713 -3.85142216 0.09393713 0 0 Z " fill="#48A9E5" transform="translate(498.5625,469.9375)"/>
<path d="M0 0 C0.66 0.33 1.32 0.66 2 1 C2 2.98 2 4.96 2 7 C-0.31 7 -2.62 7 -5 7 C-3.35 4.69 -1.7 2.38 0 0 Z " fill="#142747" transform="translate(477,450)"/>
<path d="M0 0 C0.96516243 3.00272755 1.22393475 5.04215769 0 8 C-0.99 8.33 -1.98 8.66 -3 9 C-3 8.01 -3 7.02 -3 6 C-3.66 5.67 -4.32 5.34 -5 5 C-4.625 3.0625 -4.625 3.0625 -4 1 C-2 0 -2 0 0 0 Z " fill="#24385C" transform="translate(339,399)"/>
<path d="M0 0 C0.598125 0.20625 1.19625 0.4125 1.8125 0.625 C1.173125 0.810625 0.53375 0.99625 -0.125 1.1875 C-2.60876213 2.56746056 -2.60876213 2.56746056 -2.9375 6.25 C-3.02 7.36375 -3.1025 8.4775 -3.1875 9.625 C-4.1775 9.295 -5.1675 8.965 -6.1875 8.625 C-5.875 5.25 -5.875 5.25 -5.1875 1.625 C-2.1875 -0.375 -2.1875 -0.375 0 0 Z " fill="#122443" transform="translate(498.1875,468.375)"/>
<path d="M0 0 C1.9375 0.6875 1.9375 0.6875 4 2 C4.75 4.625 4.75 4.625 5 7 C3.125 6.8125 3.125 6.8125 1 6 C-0.25 3.4375 -0.25 3.4375 -1 1 C-0.67 0.67 -0.34 0.34 0 0 Z " fill="#0D1F41" transform="translate(345,596)"/>
<path d="M0 0 C0 3 0 3 0 3 Z M-4 2 C-2.515 2.99 -2.515 2.99 -1 4 C0.65549531 4.38499891 2.3222433 4.72793135 4 5 C4 5.33 4 5.66 4 6 C-2.75 6.125 -2.75 6.125 -5 5 C-4.67 4.01 -4.34 3.02 -4 2 Z " fill="#2B3B58" transform="translate(474,452)"/>
<path d="M0 0 C-0.25 1.875 -0.25 1.875 -1 4 C-3.0625 5.25 -3.0625 5.25 -5 6 C-4.625 3.5625 -4.625 3.5625 -4 1 C-2 0 -2 0 0 0 Z " fill="#213353" transform="translate(484,451)"/>
<path d="M0 0 C0.33 0.99 0.66 1.98 1 3 C1.66 3.33 2.32 3.66 3 4 C2.01 4.99 1.02 5.98 0 7 C-0.66 5.02 -1.32 3.04 -2 1 C-1.34 0.67 -0.68 0.34 0 0 Z " fill="#293859" transform="translate(358,496)"/>
<path d="M0 0 C1.875 0.3125 1.875 0.3125 4 1 C4.66 1.99 5.32 2.98 6 4 C4.68 4 3.36 4 2 4 C1.34 2.68 0.68 1.36 0 0 Z " fill="#0F2145" transform="translate(415,487)"/>
</svg>
