<?xml version="1.0" encoding="UTF-8"?>
<svg version="1.1" xmlns="http://www.w3.org/2000/svg" width="1024" height="1024">
<path d="M0 0 C337.92 0 675.84 0 1024 0 C1024 337.92 1024 675.84 1024 1024 C686.08 1024 348.16 1024 0 1024 C0 686.08 0 348.16 0 0 Z " fill="#203B54" transform="translate(0,0)"/>
<path d="M0 0 C1.85555511 -0.0146228 1.85555511 -0.0146228 3.74859619 -0.02954102 C7.73344777 -0.05451228 11.71820994 -0.06796792 15.703125 -0.07421875 C16.38030579 -0.07551662 17.05748657 -0.0768145 17.75518799 -0.0781517 C36.63043074 -0.10560617 55.14384227 0.09869778 73.75927734 3.63525391 C77.18717469 4.28247195 80.62281435 4.84884912 84.06640625 5.40625 C91.05454175 6.55911739 98.00739317 7.85365778 104.953125 9.23828125 C105.97615723 9.44114746 106.99918945 9.64401367 108.05322266 9.85302734 C134.20207721 15.19635996 160.00464376 24.49166642 183.953125 36.23828125 C184.6229541 36.5621582 185.2927832 36.88603516 185.98291016 37.21972656 C189.94631727 39.13966905 193.87834403 41.11436064 197.79394531 43.12988281 C199.31935249 43.91293896 200.84763756 44.69040097 202.37792969 45.46386719 C221.1732361 54.96518412 238.49525646 65.67483893 255.02783203 78.73046875 C256.82939218 80.14137865 258.648206 81.5238388 260.48046875 82.89453125 C267.0755464 87.8386672 273.23575685 93.07953274 279.2421875 98.7109375 C281.50202364 100.81772999 283.7938793 102.85509767 286.140625 104.86328125 C289.90464819 108.11865266 293.36898259 111.63550479 296.859375 115.1796875 C298.54614128 116.83813121 300.22591621 118.33773335 302.078125 119.80078125 C305.01084821 122.2872205 307.36835846 124.90344572 309.8515625 127.82421875 C311.90226824 130.17986215 314.02373898 132.45675176 316.16625977 134.72875977 C322.42262584 141.38267094 328.16480698 148.31749767 333.69335938 155.58447266 C334.85946008 157.11531881 336.03855646 158.63624211 337.21875 160.15625 C348.85815371 175.33353002 358.72956178 191.50471424 367.953125 208.23828125 C368.56583252 209.34187988 368.56583252 209.34187988 369.19091797 210.46777344 C384.19015261 237.59846453 395.87688394 266.67928511 403.33105469 296.78222656 C403.91836095 299.10102602 404.55451162 301.39917596 405.2109375 303.69921875 C408.38939714 315.12650834 410.29887446 326.72398245 412.140625 338.42578125 C412.26727539 339.22862549 412.39392578 340.03146973 412.52441406 340.85864258 C413.37812657 346.31248351 414.18222764 351.77215331 414.953125 357.23828125 C415.05590759 357.95172699 415.15869019 358.66517273 415.2645874 359.40023804 C416.88586775 370.84951824 417.27557975 382.12111937 417.203125 393.67578125 C417.20035553 394.54546539 417.19758606 395.41514954 417.19473267 396.31118774 C417.11347073 418.17514971 415.46814455 439.64887141 411.953125 461.23828125 C411.80617188 462.16205566 411.65921875 463.08583008 411.5078125 464.03759766 C402.79328181 518.42033099 382.88017883 569.99035325 352.953125 616.23828125 C352.48116699 616.97079102 352.00920898 617.70330078 351.52294922 618.45800781 C345.25457244 628.14907135 338.71540103 637.47898054 331.42431641 646.42724609 C329.8109918 648.41324707 328.21565168 650.41296783 326.62109375 652.4140625 C325.48231665 653.835073 324.34300306 655.25565375 323.203125 656.67578125 C322.42497437 657.651521 322.42497437 657.651521 321.63110352 658.64697266 C318.45651184 662.57021744 315.1021016 666.17720189 311.49755859 669.70874023 C309.77731462 671.41239634 308.19477786 673.19501382 306.640625 675.05078125 C300.62341461 682.01239686 294.05226534 688.43552263 287.05859375 694.41015625 C284.59585472 696.54848995 282.21825157 698.76912724 279.828125 700.98828125 C273.47847095 706.76944011 266.79029186 712.0480099 259.953125 717.23828125 C259.0556958 717.92108154 259.0556958 717.92108154 258.14013672 718.61767578 C217.72635874 749.20783039 171.52366943 771.20004129 122.953125 785.23828125 C121.79288818 785.58366943 120.63265137 785.92905762 119.43725586 786.28491211 C111.80984058 788.52845486 104.20631379 790.3507653 96.390625 791.80078125 C94.71516602 792.11656128 94.71516602 792.11656128 93.00585938 792.4387207 C82.69636155 794.34791413 72.35840391 795.95394407 61.953125 797.23828125 C60.65761719 797.409646 59.36210938 797.58101074 58.02734375 797.75756836 C46.63635087 799.2012629 35.4254577 799.52201822 23.953125 799.42578125 C22.13273161 799.41552107 20.31233772 799.40534969 18.49194336 799.39526367 C14.08545539 799.36614412 9.67937226 799.31953639 5.27313232 799.26501465 C3.21095775 799.24125225 1.14868931 799.22597673 -0.91357422 799.21191406 C-35.94003016 798.91838214 -70.73698231 791.7162318 -104.046875 781.23828125 C-105.29186768 780.84866211 -105.29186768 780.84866211 -106.56201172 780.45117188 C-138.0650499 770.42484187 -169.60421976 755.6419786 -197.046875 737.23828125 C-197.99836426 736.60486816 -198.94985352 735.97145508 -199.93017578 735.31884766 C-215.71998887 724.78503923 -231.0747346 714.27496828 -244.87890625 701.1953125 C-247.06065299 699.13097841 -249.29920048 697.16184388 -251.5859375 695.21484375 C-257.25085553 690.28562936 -262.50377964 684.93047525 -267.80151367 679.61401367 C-269.60549585 677.80467192 -271.41476165 676.00073806 -273.22460938 674.19726562 C-279.04197245 668.38385687 -284.7829356 662.56629416 -290.046875 656.23828125 C-290.52229736 655.67488037 -290.99771973 655.11147949 -291.48754883 654.53100586 C-299.43586979 645.02575474 -306.54513114 635.02039033 -313.40136719 624.70751953 C-315.03287856 622.25928422 -316.6836531 619.82487288 -318.3359375 617.390625 C-326.01587731 605.95703886 -332.50399357 594.13174594 -338.70507812 581.84228516 C-339.8808426 579.5604977 -341.10263603 577.32259209 -342.375 575.09375 C-362.84117037 539.04103269 -377.5470305 491.5973972 -379.83984375 450.2734375 C-380.07011877 446.89751888 -380.51091526 443.58864138 -380.984375 440.23828125 C-385.65138885 405.88484848 -384.382197 372.32653443 -379.171875 338.11328125 C-378.98754913 336.89120468 -378.98754913 336.89120468 -378.79949951 335.6444397 C-368.33519202 266.99008629 -337.08826985 202.35379141 -294.046875 148.23828125 C-293.34691406 147.34496094 -292.64695312 146.45164062 -291.92578125 145.53125 C-279.21820389 129.60597415 -264.62696427 114.37777366 -249.046875 101.23828125 C-248.08136719 100.38363281 -247.11585938 99.52898437 -246.12109375 98.6484375 C-237.23691611 90.81688754 -227.87608046 83.7638417 -218.27001953 76.84423828 C-216.28925723 75.41337353 -214.32017125 73.96840943 -212.35546875 72.515625 C-196.24406897 60.67491132 -178.88273445 51.20631975 -161.046875 42.23828125 C-160.0367334 41.72587891 -159.0265918 41.21347656 -157.98583984 40.68554688 C-143.6919835 33.46958266 -129.29210052 27.39611919 -114.12011719 22.28076172 C-111.08847998 21.25239416 -108.0712893 20.18875797 -105.0546875 19.1171875 C-81.03388055 10.68848788 -56.51385068 6.24886558 -31.421875 2.4375 C-30.72482452 2.33049271 -30.02777405 2.22348541 -29.30960083 2.11323547 C-19.52403006 0.65448928 -9.89452208 0.06428456 0 0 Z " fill="#F6F7F7" transform="translate(496.046875,111.76171875)"/>
<path d="M0 0 C2.68031483 0.00521652 5.36049868 -0.0045364 8.04079628 -0.01370525 C22.58651198 -0.05608777 36.90976449 0.17286563 51.31958008 2.25390625 C52.60372803 2.43614746 53.88787598 2.61838867 55.2109375 2.80615234 C58.83836549 3.35351786 62.45384876 3.94670734 66.06958008 4.56640625 C67.35541992 4.78586914 68.64125977 5.00533203 69.96606445 5.23144531 C150.94316675 19.29080808 226.16829208 55.75892356 286.95239258 111.10546875 C288.47662694 112.48884977 290.01232514 113.85975646 291.56176758 115.21484375 C297.249866 120.2134757 302.6439978 125.4723768 308.00708008 130.81640625 C309.07647827 131.87891602 309.07647827 131.87891602 310.16748047 132.96289062 C314.75528567 137.56402162 319.09651687 142.31734262 323.31958008 147.25390625 C324.19710813 148.26308702 325.07470621 149.27220691 325.95239258 150.28125 C342.54299817 169.65429258 357.35687494 190.29500196 370.31958008 212.25390625 C371.02268311 213.42783936 371.02268311 213.42783936 371.73999023 214.62548828 C391.56369226 247.78574517 406.71752503 283.55540808 416.31958008 321.00390625 C416.48977661 321.66554779 416.65997314 322.32718933 416.83532715 323.00888062 C420.32511631 336.64404345 423.02327767 350.36742748 425.31958008 364.25390625 C425.60575195 365.94700928 425.60575195 365.94700928 425.89770508 367.67431641 C426.46854295 371.07379094 427.02287199 374.47547351 427.56958008 377.87890625 C427.73296875 378.87253174 427.89635742 379.86615723 428.06469727 380.88989258 C433.2361621 414.37485171 431.98604736 450.81089075 427.31958008 484.25390625 C427.22012085 484.96959778 427.12066162 485.68528931 427.01818848 486.42266846 C421.06829795 528.89846689 410.59913542 570.2962557 392.31958008 609.25390625 C391.6336377 610.73455566 391.6336377 610.73455566 390.93383789 612.24511719 C381.38713512 632.79223949 370.87726245 651.95739165 358.08666992 670.65771484 C356.38115699 673.16343805 354.70060872 675.68408249 353.02661133 678.2109375 C346.23176308 688.40785187 338.94892551 697.98345191 330.9855957 707.29541016 C329.45670853 709.09270395 327.95500632 710.90873138 326.46020508 712.734375 C319.1396277 721.5566414 311.10458096 729.65260465 303.00708008 737.75390625 C302.44114136 738.32084198 301.87520264 738.88777771 301.29211426 739.47189331 C295.14880882 745.61397445 288.96228543 751.64700935 282.31958008 757.25390625 C281.30978183 758.13072369 280.30062881 759.00828496 279.29223633 759.88671875 C256.19942358 779.66284564 231.0962122 796.84992483 204.31958008 811.25390625 C203.45848633 811.71796875 202.59739258 812.18203125 201.71020508 812.66015625 C171.34798106 828.94380712 139.744643 841.71490591 106.31958008 850.25390625 C105.50408691 850.46563477 104.68859375 850.67736328 103.84838867 850.89550781 C93.33216344 853.6005543 82.73512141 855.84631174 72.06958008 857.87890625 C71.07297363 858.07299072 70.07636719 858.2670752 69.04956055 858.46704102 C65.48161773 859.12552772 61.90591802 859.70695315 58.31958008 860.25390625 C57.49564758 860.38205719 56.67171509 860.51020813 55.82281494 860.64224243 C38.42765494 863.26440274 21.20409728 863.75664255 3.65649414 863.69995117 C0.69233865 863.69079329 -2.27102637 863.69763886 -5.23510742 863.72045898 C-32.82642693 863.93154495 -59.29455455 861.04139859 -86.40258789 855.69775391 C-88.47272154 855.29437738 -90.54523671 854.91527637 -92.62182617 854.546875 C-102.62303954 852.70199098 -112.29542234 849.92502441 -122.0324707 847.03027344 C-124.52205042 846.3003395 -127.01824273 845.60383312 -129.52026367 844.91796875 C-199.48496812 825.40609962 -261.8688017 782.00140887 -312.74291992 731.31640625 C-313.2362381 730.82585754 -313.72955627 730.33530884 -314.23782349 729.82989502 C-329.8194916 714.31228477 -343.0212353 697.1973025 -355.68041992 679.25390625 C-356.17461426 678.55587891 -356.66880859 677.85785156 -357.17797852 677.13867188 C-363.79752263 667.76042774 -369.94741094 658.19779782 -375.68041992 648.25390625 C-376.05457031 647.61388672 -376.4287207 646.97386719 -376.81420898 646.31445312 C-403.86334085 599.89878307 -420.92175911 548.9775467 -429.55541992 496.06640625 C-429.70085236 495.18204895 -429.84628479 494.29769165 -429.99612427 493.38653564 C-433.51444582 471.76532627 -435.06732215 450.53638424 -434.99291992 428.62890625 C-434.99076477 427.48338287 -434.98860962 426.3378595 -434.98638916 425.15762329 C-434.93565876 408.34137511 -434.56603701 391.86034971 -431.68041992 375.25390625 C-431.47642578 374.05749512 -431.27243164 372.86108398 -431.06225586 371.62841797 C-419.73771034 306.6894848 -398.02414744 245.92097404 -360.68041992 191.25390625 C-360.14674805 190.46661133 -359.61307617 189.67931641 -359.06323242 188.86816406 C-352.23716127 178.83262672 -344.88786478 169.33353175 -337.12768555 160.00537109 C-335.134164 157.59283338 -333.19440921 155.1379956 -331.24291992 152.69140625 C-322.5734045 142.13721357 -312.93453528 132.42480515 -303.30541992 122.75390625 C-302.56880127 122.01261475 -301.83218262 121.27132324 -301.07324219 120.50756836 C-282.62270125 102.1110919 -261.44635255 85.51192035 -239.53100586 71.44238281 C-238.30464769 70.65479553 -237.081285 69.86252289 -235.86108398 69.06542969 C-224.40975539 61.58813397 -212.45197158 55.1225759 -200.38305664 48.70361328 C-198.12514277 47.49245768 -195.88452448 46.25892957 -193.65307617 45 C-154.98844866 23.47132664 -109.64201072 11.2942328 -66.18041992 4.44140625 C-64.95516602 4.24659668 -63.72991211 4.05178711 -62.4675293 3.85107422 C-58.54459619 3.2624268 -54.6179875 2.73278684 -50.68041992 2.25390625 C-49.52888931 2.11356964 -49.52888931 2.11356964 -48.35409546 1.97039795 C-32.24711704 0.08788097 -16.20120436 -0.0553077 0 0 Z M-55.68041992 35.25390625 C-56.46805725 35.37194611 -57.25569458 35.48998596 -58.06719971 35.61160278 C-62.90951072 36.33985047 -67.73516707 37.14212902 -72.55541992 38.00390625 C-73.26988281 38.13118103 -73.9843457 38.25845581 -74.72045898 38.3895874 C-106.58708204 44.1225276 -138.53971758 53.99860425 -167.68041992 68.25390625 C-168.83719238 68.81062012 -169.99396484 69.36733398 -171.18579102 69.94091797 C-193.52098633 80.69969344 -214.7532943 92.41402939 -234.68041992 107.25390625 C-235.72584961 108.02476562 -236.7712793 108.795625 -237.84838867 109.58984375 C-262.06656352 127.57697995 -286.49858522 147.81403497 -305.68041992 171.25390625 C-306.29336914 171.99616455 -306.29336914 171.99616455 -306.91870117 172.75341797 C-334.4346821 206.16983284 -357.00598873 243.5806602 -373.74291992 283.50390625 C-374.00868835 284.13518433 -374.27445679 284.7664624 -374.54827881 285.41687012 C-380.15730521 298.80971752 -384.6174347 312.39803658 -388.30541992 326.44140625 C-388.5915918 327.51326172 -388.87776367 328.58511719 -389.17260742 329.68945312 C-389.74388543 331.83823745 -390.30943374 333.98855354 -390.86914062 336.14038086 C-391.38514552 338.120703 -391.91121561 340.09845021 -392.45068359 342.07250977 C-394.87727916 351.2119748 -396.32279358 360.47873247 -397.74291992 369.81640625 C-397.87426331 370.67495209 -398.00560669 371.53349792 -398.14093018 372.4180603 C-400.40463996 387.33456887 -402.13348105 402.16218159 -402.68041992 417.25390625 C-402.71893066 418.2912793 -402.75744141 419.32865234 -402.79711914 420.39746094 C-403.38289128 439.26456942 -403.43558161 460.84383497 -398.68041992 479.25390625 C-398.48986169 481.33347653 -398.30216063 483.41339819 -398.13671875 485.49511719 C-396.39436733 506.68375997 -391.04422014 527.03116334 -384.68041992 547.25390625 C-384.16970947 548.88465088 -384.16970947 548.88465088 -383.64868164 550.54833984 C-372.6396425 585.39096531 -357.86947967 619.20363529 -336.99975586 649.33789062 C-335.19277738 651.96208883 -333.47462379 654.64212939 -331.74291992 657.31640625 C-323.68222237 669.30541843 -315.28238954 681.06738013 -305.27807617 691.515625 C-303.34463154 693.55373731 -301.52163543 695.602582 -299.70385742 697.73828125 C-294.75898341 703.42217529 -289.39002101 708.69346512 -284.05615234 714.00854492 C-282.2468106 715.8125271 -280.44287673 717.6217929 -278.6394043 719.43164062 C-272.82231563 725.25233508 -266.97789637 730.94820184 -260.68041992 736.25390625 C-259.6697799 737.14149525 -258.66058782 738.03073653 -257.65307617 738.921875 C-249.08107321 746.34327354 -240.07062847 752.90773745 -230.68041992 759.25390625 C-229.7084668 759.91229492 -228.73651367 760.57068359 -227.73510742 761.24902344 C-213.14873543 771.08034675 -198.36928023 780.2610911 -182.68041992 788.25390625 C-181.36702637 788.92897217 -181.36702637 788.92897217 -180.02709961 789.61767578 C-155.73003544 801.99752375 -130.28488555 812.12203674 -103.75415039 818.48950195 C-100.33462178 819.33990259 -96.94946969 820.29148682 -93.55541992 821.23828125 C-85.8031897 823.31683501 -78.00447272 824.75782939 -70.08959961 826.06420898 C-67.78520143 826.44474502 -65.48276779 826.83578222 -63.18041992 827.22851562 C-48.01488795 829.79531201 -33.19079547 830.81897344 -17.81414795 831.20062256 C-16.35255854 831.23712153 -14.89101119 831.27533303 -13.42950439 831.31500244 C26.42032184 832.37992687 65.96432967 828.59682477 104.31958008 817.25390625 C105.51655518 816.90787354 106.71353027 816.56184082 107.94677734 816.20532227 C177.36266542 796.00366633 246.29869317 756.84974809 293.75708008 701.37890625 C296.15642892 698.59119273 298.59523778 695.85017884 301.06958008 693.12890625 C306.45154693 687.07289731 311.40090921 680.6874465 316.31958008 674.25390625 C316.99875488 673.36807861 316.99875488 673.36807861 317.69165039 672.46435547 C330.00048483 656.31733005 340.3627721 638.92204625 350.31958008 621.25390625 C350.6747168 620.63161133 351.02985352 620.00931641 351.39575195 619.36816406 C362.73185372 599.42502206 370.93554302 577.91374828 378.31958008 556.25390625 C378.60140137 555.44888672 378.88322266 554.64386719 379.17358398 553.81445312 C387.63490023 529.58550804 392.06672905 504.39241689 394.94995117 478.9699707 C395.26516687 476.65373909 395.7468637 474.51354312 396.31958008 472.25390625 C400.98196451 437.6365638 399.02229925 402.56392556 393.31958008 368.25390625 C393.01528076 366.39427246 393.01528076 366.39427246 392.70483398 364.49707031 C387.14347002 331.33331427 377.26761261 298.84360511 363.31958008 268.25390625 C362.99666992 267.53122559 362.67375977 266.80854492 362.34106445 266.06396484 C351.52596506 241.86434028 338.2099833 218.48318204 322.31958008 197.25390625 C321.91384766 196.70927734 321.50811523 196.16464844 321.09008789 195.60351562 C312.79760025 184.51617687 303.89016936 173.9625668 294.56958008 163.7265625 C292.97476199 161.97392387 291.39266138 160.2096744 289.81958008 158.4375 C285.53512315 153.6370795 281.23969377 149.13742239 276.31567383 144.99609375 C274.0416602 143.01133821 271.93737484 140.90428247 269.81958008 138.75390625 C265.81200057 134.70543308 261.65602202 130.94401542 257.31958008 127.25390625 C256.42110352 126.46628906 255.52262695 125.67867188 254.59692383 124.8671875 C230.78129333 104.13962723 203.96098254 86.98821779 175.53100586 73.32714844 C173.04165048 72.11902234 170.56994619 70.8779213 168.09692383 69.63671875 C155.16323317 63.21530005 142.05860684 57.96734134 128.39160156 53.3190918 C126.24200754 52.57374659 124.10142727 51.80212393 121.96826172 51.01098633 C113.70851896 47.9547949 105.46996058 45.62876429 96.88208008 43.69140625 C96.23384277 43.54327484 95.58560547 43.39514343 94.91772461 43.24252319 C83.75566249 40.69465379 72.57123621 38.44844663 61.25073242 36.72314453 C58.26778007 36.24561376 55.3070228 35.68793719 52.33911133 35.125 C34.2670604 31.96435632 16.24458129 31.84935734 -2.05541992 31.81640625 C-3.33693939 31.81032349 -4.61845886 31.80424072 -5.93881226 31.79797363 C-22.75400864 31.74583141 -39.06185099 32.67787799 -55.68041992 35.25390625 Z " fill="#29B2E7" transform="translate(514.680419921875,79.74609375)"/>
<path d="M0 0 C1.28613845 -0.00638882 2.57227689 -0.01277764 3.89738923 -0.01936007 C7.43324754 -0.03621382 10.96838861 -0.02226844 14.50420845 -0.00284529 C18.33040759 0.01267421 22.15652406 -0.00084371 25.98272705 -0.0105896 C33.46392981 -0.02507064 40.94485994 -0.01292909 48.4260368 0.00852364 C57.14542479 0.03260426 65.86475127 0.03081501 74.58416513 0.02821773 C90.14383843 0.02453263 105.70338373 0.04531101 121.26301575 0.07946777 C136.34931166 0.11257298 151.43547331 0.12672257 166.52180481 0.1204834 C182.96847577 0.11371505 199.4150906 0.11619094 215.86175328 0.1358428 C216.73186864 0.13688229 217.601984 0.13792177 218.4984665 0.13899276 C220.245844 0.14108358 221.99322149 0.14319455 223.74059894 0.14532593 C229.81391954 0.15221197 235.88722281 0.15289245 241.96054649 0.15144348 C249.36268416 0.15000187 256.76471259 0.15972976 264.16681405 0.18338984 C267.94112883 0.19522581 271.7152916 0.20239097 275.48962402 0.19655228 C279.5847911 0.19040453 283.67953279 0.20758559 287.7746582 0.22705078 C288.96201496 0.22172286 290.14937171 0.21639493 291.37270898 0.21090555 C306.24495682 0.33287598 318.23422108 6.43661085 328.93904114 16.68395996 C350.32394226 38.87440462 360.34829432 70.58993684 360.08796692 100.95812988 C360.07183148 103.18702076 360.0879579 105.41410635 360.10700989 107.64294434 C360.12187757 117.33260931 359.01158694 126.17583248 356.69685364 135.62145996 C356.36040833 137.00095825 356.36040833 137.00095825 356.01716614 138.4083252 C349.84684532 162.25053831 338.2126535 185.99844943 316.46247864 199.12145996 C305.59283565 205.01685955 295.45917019 206.92116163 283.21208191 206.89561462 C281.34229516 206.90346964 281.34229516 206.90346964 279.43473494 206.91148335 C275.99089127 206.92385547 272.54725217 206.92732783 269.10340047 206.92688644 C265.38270167 206.92854015 261.66203958 206.94161699 257.94136047 206.95307922 C249.81305474 206.97588584 241.68477518 206.98384519 233.55644178 206.98890567 C228.47605089 206.99216781 223.39566754 206.99869342 218.31528091 207.00590706 C204.23446841 207.02546751 190.15366289 207.04187491 176.07283592 207.04478359 C175.17254972 207.04497116 174.27226351 207.04515873 173.3446959 207.04535199 C171.51979168 207.04571822 169.69488746 207.04608192 167.86998324 207.0464431 C166.96416395 207.04662591 166.05834466 207.04680872 165.12507629 207.04699707 C164.21814453 207.04717762 163.31121277 207.04735817 162.37679823 207.04754419 C147.68828423 207.05108424 132.99991699 207.07809851 118.31145386 207.11549496 C103.21189946 207.15362873 88.11241777 207.17294144 73.01281416 207.17324311 C64.54263758 207.17382654 56.07263608 207.18224495 47.60250473 207.21124077 C40.38887079 207.23582262 33.17547579 207.24299188 25.96181123 207.22799324 C22.28601267 207.22085192 18.61068528 207.2215602 14.93494034 207.24440384 C-7.25484533 207.37420771 -22.19547771 206.05839951 -38.76799011 190.27380371 C-62.54876686 165.27349996 -69.42821433 128.48250557 -68.61955261 95.19567871 C-67.74745076 73.4243905 -62.07995303 52.58284341 -51.30314636 33.62145996 C-50.43689636 32.09585449 -50.43689636 32.09585449 -49.55314636 30.53942871 C-38.26196613 11.85147995 -22.28867681 -0.2363129 0 0 Z " fill="#112448" transform="translate(363.3031463623047,413.3785400390625)"/>
<path d="M0 0 C0.33 0 0.66 0 1 0 C1.09498779 0.89267578 1.18997559 1.78535156 1.2878418 2.70507812 C7.88299884 64.0459097 18.79466142 126.26826829 45.73095703 182.35449219 C47.18067227 185.37663807 48.60335602 188.41096282 50.02734375 191.4453125 C62.76991881 218.43286229 77.03303608 244.30062918 94.78466797 268.34912109 C96.05568128 270.07563616 97.31201581 271.81215748 98.56640625 273.55078125 C108.01131867 286.60127078 117.56796639 299.70012886 128.62109375 311.4453125 C130.52788368 313.49299824 132.36116764 315.56948288 134.18603516 317.6887207 C137.7749292 321.79661974 141.54018004 325.68523221 145.40234375 329.53515625 C146.08373917 330.21750839 146.76513458 330.89986053 147.46717834 331.60289001 C148.89705741 333.03344437 150.32817911 334.46275767 151.76049805 335.89086914 C153.93197711 338.05699074 156.09806325 340.22840174 158.26367188 342.40039062 C159.66374202 343.79979987 161.06412238 345.19889884 162.46484375 346.59765625 C163.10155502 347.23639175 163.7382663 347.87512726 164.39427185 348.53321838 C168.23413574 352.35347978 172.18913565 355.986716 176.2936554 359.52146912 C178.33501978 361.29029136 180.28689447 363.14509714 182.25 365 C190.32857134 372.28558274 199.2379283 378.5718361 208 385 C208.80131348 385.5892627 209.60262695 386.17852539 210.42822266 386.78564453 C238.44356915 407.34581227 267.88769938 424.58611861 299 440 C299.99 440.49338867 300.98 440.98677734 302 441.49511719 C326.85590848 453.7494456 354.01345249 463.70650537 381 470 C381.86834473 470.20882813 382.73668945 470.41765625 383.63134766 470.6328125 C390.06895033 472.17848893 396.52740945 473.60908399 403 475 C403.9089502 475.19948242 404.81790039 475.39896484 405.75439453 475.60449219 C434.73810641 481.92543515 464.35727856 486.50464532 494 488 C494 488.33 494 488.66 494 489 C330.98 489 167.96 489 0 489 C0 327.63 0 166.26 0 0 Z " fill="#F8F8F8" transform="translate(0,535)"/>
<path d="M0 0 C162.03 0 324.06 0 491 0 C491 0.33 491 0.66 491 1 C489.33336304 1.15819214 489.33336304 1.15819214 487.63305664 1.31958008 C449.58385539 4.18183204 449.58385539 4.18183204 412.15625 10.97265625 C408.37167615 11.94154354 404.56447452 12.68247265 400.72509766 13.39892578 C389.53540599 15.49820409 378.82565409 18.50111022 368 22 C366.79118164 22.38575195 365.58236328 22.77150391 364.33691406 23.16894531 C305.38148634 42.01456723 252.43601241 69.90299693 203 107 C202.38398926 107.46003418 201.76797852 107.92006836 201.13330078 108.39404297 C181.89172871 122.79387064 164.51644992 139.29607991 147.54541016 156.26928711 C145.60988221 158.20260049 143.66642327 160.12770891 141.72265625 162.05273438 C134.68075336 169.06332974 128.13693999 176.17389408 122 184 C121.124921 185.05096151 120.24462618 186.09764108 119.35546875 187.13671875 C106.80256412 201.90617231 95.01719649 217.72838438 84.765625 234.18359375 C83.15176535 236.75791412 81.49076771 239.29661339 79.81933594 241.83374023 C74.0623842 250.62687553 68.97202277 259.74502169 64 269 C63.5265918 269.87833496 63.05318359 270.75666992 62.56542969 271.66162109 C36.91095473 319.45683929 19.96897298 369.32631892 9.75 422.5 C9.5829657 423.36620972 9.4159314 424.23241943 9.24383545 425.12487793 C5.67104519 443.76964355 2.79670003 462.34243861 1.8125 481.3125 C1.73063808 482.75851022 1.6479559 484.20447423 1.56445312 485.65039062 C1.36695774 489.09978665 1.18016734 492.54964994 1 496 C0.67 496 0.34 496 0 496 C0 332.32 0 168.64 0 0 Z " fill="#F7F8F7" transform="translate(0,0)"/>
<path d="M0 0 C0.33 0 0.66 0 1 0 C1 160.71 1 321.42 1 487 C-162.68 487 -326.36 487 -495 487 C-495 486.67 -495 486.34 -495 486 C-490.56266252 484.95772763 -486.13267708 484.68235376 -481.59765625 484.421875 C-479.90040488 484.31576558 -478.2032229 484.20854172 -476.50610352 484.1003418 C-475.61819122 484.04389496 -474.73027893 483.98744812 -473.81546021 483.92929077 C-447.28066571 482.20117143 -421.83793762 477.97456662 -395.97851562 471.70117188 C-393.17536009 471.04128149 -390.36787428 470.43756668 -387.546875 469.859375 C-352.6307073 462.62935684 -319.00942203 448.36918311 -287 433 C-286.10345703 432.57364258 -285.20691406 432.14728516 -284.28320312 431.70800781 C-270.72267588 425.23570469 -257.82615046 417.81597427 -245 410 C-244.25733887 409.55124512 -243.51467773 409.10249023 -242.74951172 408.64013672 C-228.06770787 399.75585076 -214.11280337 389.86775701 -200.62109375 379.26953125 C-198.89956529 377.92134631 -197.16912648 376.585185 -195.4375 375.25 C-189.24865471 370.4595757 -183.23057355 365.58023884 -177.4765625 360.265625 C-175.40439754 358.36995359 -173.30667638 356.51817459 -171.1875 354.67578125 C-157.37179008 342.61802463 -143.48041689 329.91668979 -131.62109375 315.8984375 C-129.7190635 313.67099967 -127.7339228 311.52977029 -125.75 309.375 C-120.71026175 303.78191211 -116.0889188 297.90456032 -111.49755859 291.94335938 C-109.94765153 289.93206817 -108.38992631 287.92698316 -106.83203125 285.921875 C-99.76377764 276.78926276 -92.94770484 267.50640281 -86.38476562 258.00390625 C-85.49932099 256.7225717 -84.610334 255.44367319 -83.71679688 254.16796875 C-33.14842521 181.88164348 -8.7728045 94.5380366 0 0 Z " fill="#F9F9F9" transform="translate(1023,537)"/>
<path d="M0 0 C160.71 0 321.42 0 487 0 C487 157.41 487 314.82 487 477 C486.67 477 486.34 477 486 477 C485.8956665 475.95811523 485.79133301 474.91623047 485.68383789 473.84277344 C483.53848963 452.79878585 480.75177671 432.03047342 476.4375 411.3125 C476.15351852 409.94164246 476.15351852 409.94164246 475.86380005 408.54309082 C463.03458915 347.06548447 438.78531409 287.37561497 404 235 C403.38125 234.04738281 402.7625 233.09476563 402.125 232.11328125 C382.28232522 201.81186331 358.90195874 174.69137534 333.28955078 149.15917969 C331.23482492 147.10986489 329.18556897 145.05518737 327.13671875 143 C325.80500835 141.66894975 324.47298812 140.33820939 323.140625 139.0078125 C322.24189667 138.10604782 322.24189667 138.10604782 321.32501221 137.18606567 C317.04465048 132.92891439 312.5780267 128.93362072 308 125 C307.48331253 124.55043945 306.96662506 124.10087891 306.4342804 123.63769531 C297.2706052 115.67222692 287.72349271 108.26571744 278 101 C277.2977832 100.47148438 276.59556641 99.94296875 275.87207031 99.3984375 C263.92646844 90.4378567 251.47072339 82.42809806 238.72119141 74.66162109 C236.43317997 73.2645095 234.15791471 71.84993516 231.88671875 70.42578125 C193.25852279 46.56262924 148.19671529 27.50789321 104 17 C103.16178711 16.79858398 102.32357422 16.59716797 101.45996094 16.38964844 C94.98962059 14.84820552 88.50687597 13.37897839 82 12 C81.30579956 11.85002563 80.61159912 11.70005127 79.8963623 11.54553223 C66.98732182 8.77223627 54.11644834 6.84690856 41 5.375 C39.23689564 5.16998787 37.47387446 4.96425913 35.7109375 4.7578125 C23.81997125 3.37684641 11.91437611 2.15976405 0 1 C0 0.67 0 0.34 0 0 Z " fill="#FAFAFA" transform="translate(537,0)"/>
<path d="M0 0 C29.92882234 -0.04564154 59.8576435 -0.08102781 89.78649315 -0.10213066 C93.32120383 -0.10463202 96.85591443 -0.10722067 100.390625 -0.10986328 C101.4461549 -0.11065021 101.4461549 -0.11065021 102.52300864 -0.11145304 C113.91163448 -0.1201517 125.30024008 -0.13591871 136.68885392 -0.15430559 C148.37773956 -0.17301964 160.06661462 -0.18411991 171.75551462 -0.18817699 C178.31967051 -0.19078495 184.88378055 -0.19691723 191.44792175 -0.21146011 C197.62676421 -0.22503841 203.80554193 -0.2292221 209.98439789 -0.22621536 C212.25152183 -0.22676541 214.51864794 -0.23074133 216.78575897 -0.23841095 C219.8834157 -0.24837595 222.98082873 -0.24596307 226.07849121 -0.24050903 C226.97345228 -0.24633472 227.86841334 -0.2521604 228.79049444 -0.25816262 C243.050331 -0.19040201 255.70427964 5.91839161 265.8359375 15.76953125 C266.55007813 16.50558594 267.26421875 17.24164063 268 18 C268.91652344 18.90298828 268.91652344 18.90298828 269.8515625 19.82421875 C291.05386631 42.13988555 295.91385705 74.10959657 295.3359375 103.55078125 C294.99220917 113.42230758 294.14159494 123.57521517 291 133 C268.56 133 246.12 133 223 133 C223.99 130.03 224.98 127.06 226 124 C227.47144651 114.36145503 225.24920111 107.09876742 220 99 C215.3225774 93.24317219 209.13169813 89.9180399 202 88 C198.8671303 87.71212719 195.74951151 87.7061838 192.60498047 87.70947266 C191.21343498 87.69939682 191.21343498 87.69939682 189.79377747 87.68911743 C186.7348592 87.67016258 183.6761608 87.66621397 180.6171875 87.6640625 C178.4797456 87.65763099 176.34230458 87.65090237 174.2048645 87.64389038 C169.72444622 87.63192256 165.24410501 87.62820887 160.76367188 87.62939453 C155.04770601 87.62959726 149.33223986 87.60233978 143.61639214 87.56785011 C139.19975559 87.54550797 134.7832377 87.54155929 130.36655045 87.54261398 C128.26080739 87.54026731 126.15506059 87.53149698 124.04937363 87.51594925 C107.87115032 87.40771418 95.22341915 88.65754521 82 99 C79.46118659 101.52554435 77.1679334 104.15135031 75 107 C72.34378115 105.79511722 71.10194075 105.135921 69.3125 102.75 C65.64058458 98.38339788 61.24493789 94.63365716 55.51953125 93.515625 C51.08900214 93.31493716 51.08900214 93.31493716 47.3046875 95.34765625 C44.35234721 99.086698 44.64401266 103.47116108 45 108 C45.55968484 110.91959996 46.37160593 113.7244139 47.25 116.5625 C47.45496094 117.27857422 47.65992188 117.99464844 47.87109375 118.73242188 C49.33746164 123.61587132 51.41258027 127.61576102 54 132 C54 132.66 54 133.32 54 134 C47.4 134 40.8 134 34 134 C34.28875 132.29457031 34.5775 130.58914063 34.875 128.83203125 C40.31407714 95.4738105 38.99806452 62.79434536 24 32 C23.50371094 30.97777344 23.00742187 29.95554687 22.49609375 28.90234375 C19.07490853 22.27438002 14.79486515 16.68783599 10 11 C9.32710938 10.13632812 8.65421875 9.27265625 7.9609375 8.3828125 C6.30884699 6.37529216 4.78754627 4.83475821 2.75 3.25 C1.8425 2.5075 0.935 1.765 0 1 C0 0.67 0 0.34 0 0 Z " fill="#F7F8F8" transform="translate(404,420)"/>
<path d="M0 0 C18.37229297 13.75014965 27.00109369 36.16396278 31.875 57.875 C32.05232666 58.60879883 32.22965332 59.34259766 32.41235352 60.09863281 C34.40828885 69.35633734 34.31587992 78.69840892 34.3125 88.125 C34.31323517 89.01383881 34.31397034 89.90267761 34.31472778 90.81845093 C34.28387074 105.024361 33.26868372 118.27075354 28.875 131.875 C28.60204102 132.73335449 28.32908203 133.59170898 28.04785156 134.47607422 C21.64145732 154.11721303 12.12780278 173.00863405 -6.98828125 182.875 C-14.96826693 186.60969165 -23.74898417 187.30549926 -32.28125 185.03515625 C-48.73355625 178.73833285 -59.89463402 164.91171189 -67.11474609 149.24951172 C-72.13989787 137.43834058 -76.52149804 124.88293004 -77.87109375 112.0703125 C-78.00309818 109.83422934 -78.00309818 109.83422934 -79.125 107.875 C-81.23940449 74.51290897 -77.8691782 37.13830414 -54.9765625 10.79589844 C-39.51708871 -6.1048937 -20.64715795 -13.49883742 0 0 Z " fill="#3FB2EF" transform="translate(381.125,427.125)"/>
<path d="M0 0 C84.48 0 168.96 0 256 0 C252.05481667 13.1506111 247.22735874 23.7929024 238 34 C237.37351562 34.70769531 236.74703125 35.41539062 236.1015625 36.14453125 C227.06815995 45.7863058 215.45198864 52.65850451 202.08773041 53.36255646 C195.95821706 53.54440895 189.82952057 53.49533343 183.69824219 53.45410156 C181.3418225 53.45297196 178.98540141 53.45360914 176.62898254 53.45587158 C170.25993689 53.45701525 163.89119497 53.43356184 157.52221966 53.40557575 C151.53210225 53.3830477 145.54198395 53.37907703 139.55183223 53.37496826 C127.69546794 53.36623656 115.8392144 53.33967904 103.98291016 53.30175781 C92.4728246 53.26498245 80.96276924 53.23669783 69.45263672 53.21972656 C68.74189746 53.21867567 68.0311582 53.21762477 67.29888138 53.21654204 C63.73293615 53.21132149 60.16699071 53.20626675 56.60104513 53.20129442 C27.06729201 53.15989866 -2.46635203 53.08920896 -32 53 C-31.21987549 52.22076172 -30.43975098 51.44152344 -29.63598633 50.63867188 C-15.23989306 36.22791185 -5.59199499 19.57198248 0 0 Z " fill="#F8FAFA" transform="translate(436,560)"/>
<path d="M0 0 C9.68238019 4.24088252 14.79386937 12.96950347 18.5625 22.5 C24.66442542 38.90650146 23.48375809 59.40475265 16.32885742 75.19750977 C12.13009665 83.98259153 7.299962 90.48000626 -1.99609375 94.08203125 C-7.04736712 95.5386379 -10.99476409 95.74381706 -15.890625 93.64453125 C-27.55864101 87.12930674 -33.63415708 76.41447013 -37.3125 63.75 C-40.48769153 47.05463807 -39.82466752 28.72513014 -31.125 13.875 C-23.44919317 2.67560081 -13.80275588 -4.79298734 0 0 Z " fill="#F3F7F7" transform="translate(363.3125,469.25)"/>
<path d="M0 0 C6.67093372 -0.12740383 13.3415505 -0.21460314 20.01342773 -0.2746582 C22.28014857 -0.29970931 24.54678937 -0.33375998 26.81323242 -0.37719727 C30.08272107 -0.4382622 33.35113629 -0.46630478 36.62109375 -0.48828125 C38.12632851 -0.52699089 38.12632851 -0.52699089 39.66197205 -0.56648254 C47.18962727 -0.56944288 52.95688504 1.24216266 58.55271912 6.44316101 C64.05731561 12.66402774 65.51131881 17.9432745 65.2890625 26.0859375 C64.82441813 30.77005505 63.76772061 34.33399062 60.23831177 37.6603241 C57.44643751 39.3313186 55.67949714 39.37439718 52.43701172 39.37231445 C51.32260712 39.37854324 50.20820251 39.38477203 49.06002808 39.39118958 C47.86201569 39.38197983 46.6640033 39.37277008 45.4296875 39.36328125 C44.19711212 39.36377975 42.96453674 39.36427826 41.6946106 39.36479187 C38.4237147 39.36185277 35.15325432 39.34483138 31.88244629 39.3225708 C29.87386475 39.3124943 27.86553476 39.31219155 25.85693359 39.31567383 C22.00606881 39.32206747 18.1555295 39.31418976 14.3046875 39.30078125 C12.50159622 39.30214836 12.50159622 39.30214836 10.66207886 39.30354309 C9.55397858 39.29401108 8.4458783 39.28447906 7.30419922 39.2746582 C6.32587128 39.27005081 5.34754333 39.26544342 4.33956909 39.26069641 C2 39 2 39 0 37 C-0.375 33.5625 -0.375 33.5625 0 30 C2.74695265 27.3180627 4.70174051 26.62673914 8.49316406 26.65942383 C9.81408051 26.65976372 9.81408051 26.65976372 11.16168213 26.66011047 C12.57438385 26.68333626 12.57438385 26.68333626 14.015625 26.70703125 C14.98659119 26.71127609 15.95755737 26.71552094 16.95794678 26.71989441 C20.05558131 26.73667147 23.15256249 26.77432228 26.25 26.8125 C28.3515531 26.82754808 30.4531164 26.84123627 32.5546875 26.85351562 C37.70337629 26.88657189 42.85157741 26.93834792 48 27 C47.67 25.35 47.34 23.7 47 22 C40.55897132 21.87296767 34.11826698 21.78555188 27.67626953 21.7253418 C25.48604256 21.70023566 23.29589906 21.66614363 21.10595703 21.62280273 C17.95324078 21.56198093 14.80163447 21.53375077 11.6484375 21.51171875 C10.67321136 21.48591232 9.69798523 21.4601059 8.69320679 21.43351746 C4.17019291 21.43166179 1.00235457 21.49147156 -2.60302734 24.40551758 C-5.86238411 27.93344428 -6.12251918 29.44350372 -6.0625 34.125 C-6.05347656 35.03507813 -6.04445313 35.94515625 -6.03515625 36.8828125 C-6.02355469 37.58148437 -6.01195312 38.28015625 -6 39 C-16.97888554 39.11592194 -27.95762515 39.20472981 -38.93699837 39.25906086 C-44.03536747 39.28513905 -49.13331743 39.32050487 -54.23144531 39.37719727 C-59.15276068 39.43158011 -64.07367326 39.46143391 -68.99526596 39.47438622 C-70.87156387 39.48361482 -72.74784008 39.50163646 -74.62396622 39.52865028 C-77.25516396 39.56502461 -79.88470399 39.56994194 -82.51611328 39.56762695 C-83.2893544 39.58560333 -84.06259552 39.60357971 -84.85926819 39.62210083 C-88.80111789 39.58465034 -91.38706315 39.08269171 -94.42965698 36.64152527 C-100.89030372 30.00195946 -104.07688124 18.67464332 -104.125 9.5 C-104.08375 8.345 -104.0425 7.19 -104 6 C-101.80859375 5.25 -101.80859375 5.25 -99 5 C-96.53515625 6.625 -96.53515625 6.625 -94.0625 9 C-93.24910156 9.763125 -92.43570312 10.52625 -91.59765625 11.3125 C-89 14 -89 14 -88.01733398 15.76596069 C-86.55633973 18.13547074 -85.32896794 19.44128254 -83 21 C-77.4749729 22.04411934 -72.00666752 21.8883945 -66.40234375 21.7890625 C-64.76380566 21.7836153 -63.12525672 21.78083874 -61.48670959 21.78060913 C-58.0591985 21.77289383 -54.63297406 21.74199349 -51.20581055 21.69287109 C-46.81859341 21.63055874 -42.43260701 21.6120289 -38.04498959 21.60907936 C-34.66394575 21.60437293 -31.28316218 21.58357054 -27.90222359 21.55720139 C-26.2847562 21.54516426 -24.66726049 21.5364484 -23.049757 21.531147 C-20.78781553 21.5199009 -18.52702834 21.48872351 -16.26538086 21.45166016 C-14.9799791 21.43720856 -13.69457733 21.42275696 -12.370224 21.40786743 C-8.76384289 20.97142006 -6.87987289 20.17012447 -4 18 C-1.164428 14.05045328 -0.76727266 10.50737279 -0.421875 5.77734375 C-0.3403418 4.69573975 -0.25880859 3.61413574 -0.17480469 2.49975586 C-0.11711914 1.67483643 -0.05943359 0.84991699 0 0 Z " fill="#F7F8F8" transform="translate(559,514)"/>
<path d="M0 0 C1.3965834 -0.01007584 1.3965834 -0.01007584 2.82138062 -0.02035522 C5.88447478 -0.03927733 8.94734915 -0.04325651 12.01049805 -0.04541016 C14.15130196 -0.0518421 16.29210501 -0.05857076 18.4329071 -0.06558228 C22.91574134 -0.07754058 27.3984986 -0.08126458 31.88134766 -0.08007812 C37.60756977 -0.07987502 43.33329511 -0.10717491 49.0593996 -0.14162254 C53.4802423 -0.16392954 57.90096616 -0.16791449 62.32185936 -0.16685867 C64.4320465 -0.16920898 66.5422372 -0.17800017 68.65236855 -0.19352341 C71.61234325 -0.21326012 74.57125585 -0.2073151 77.53125 -0.1953125 C78.82135735 -0.21217102 78.82135735 -0.21217102 80.13752747 -0.22937012 C88.85368194 -0.14017847 98.21128012 2.96570391 104.4597168 9.29052734 C109.3484784 16.1325355 112.75495322 22.39455533 112.6472168 30.91552734 C112.63754883 32.60548828 112.63754883 32.60548828 112.62768555 34.32958984 C112.4597168 37.29052734 112.4597168 37.29052734 111.4597168 40.29052734 C108.8197168 40.62052734 106.1797168 40.95052734 103.4597168 41.29052734 C103.61698242 40.58412109 103.77424805 39.87771484 103.9362793 39.14990234 C105.408299 31.10872008 105.38280162 24.13115653 100.8815918 17.12646484 C98.97671105 14.66686608 97.08865295 12.95765759 94.4597168 11.29052734 C93.23841064 10.51358521 93.23841064 10.51358521 91.99243164 9.72094727 C87.08730004 7.7348266 82.61976248 7.81170584 77.3737793 7.77880859 C76.31685883 7.76085739 75.25993835 7.74290619 74.17098999 7.72441101 C70.808939 7.67040796 67.44702919 7.63644372 64.0847168 7.60302734 C61.79954095 7.56984552 59.5143837 7.53535506 57.22924805 7.49951172 C51.63953091 7.41468726 46.04979529 7.34629505 40.4597168 7.29052734 C40.48255737 8.52790649 40.48255737 8.52790649 40.50585938 9.7902832 C40.51770264 10.87188721 40.5295459 11.95349121 40.54174805 13.06787109 C40.56458862 14.67650024 40.56458862 14.67650024 40.58789062 16.31762695 C40.3918953 20.86359857 38.79962935 23.67146634 35.9597168 27.10302734 C32.54420581 29.80697354 28.70110661 29.49477306 24.5324707 29.6262207 C23.83115021 29.64885483 23.12982971 29.67148895 22.40725708 29.69480896 C15.920128 29.8923865 9.43109884 30.00759114 2.94167519 30.09802914 C-1.41042924 30.15968444 -5.75824617 30.24790541 -10.1081543 30.40161133 C-40.6518722 31.45513701 -40.6518722 31.45513701 -47.68579102 26.17773438 C-51.03923757 22.92610817 -53.26096204 19.34268795 -55.5402832 15.29052734 C-58.49405819 12.92072721 -58.49405819 12.92072721 -62.5402832 13.29052734 C-62.78822723 19.86104394 -61.86416549 25.86024193 -60.5402832 32.29052734 C-62.1902832 33.28052734 -63.8402832 34.27052734 -65.5402832 35.29052734 C-69.78287722 28.92663632 -71.32216455 20.84871369 -70.5402832 13.29052734 C-69.14410771 10.37125131 -67.81825324 8.56849738 -65.5402832 6.29052734 C-60.98009795 5.50617548 -57.39638601 5.84601243 -53.2902832 7.97802734 C-50.54133009 10.28964701 -48.04768187 12.72044371 -45.5402832 15.29052734 C-43.57276808 17.00100367 -41.56268194 18.64438884 -39.5402832 20.29052734 C-39.29020508 19.71044922 -39.04012695 19.13037109 -38.7824707 18.53271484 C-33.77435584 9.49291002 -22.8150804 4.43948778 -13.44953918 1.23202515 C-8.97805757 -0.01234581 -4.61540165 -0.00482976 0 0 Z " fill="#17294C" transform="translate(518.540283203125,506.70947265625)"/>
<path d="M0 0 C8.32154196 -0.44185179 15.02803877 3.26181189 21.19921875 8.68359375 C27.63825001 14.7198098 32.76514773 21.2327591 37 29 C37.32452148 29.58233398 37.64904297 30.16466797 37.98339844 30.76464844 C55.79336495 63.02326384 57.1995027 101.83161537 48 137 C47.81308594 137.73347656 47.62617188 138.46695313 47.43359375 139.22265625 C42.25292733 158.83243805 31.48259454 178.2070469 14 189 C9.45910487 191.48450831 5.31036678 193.68520862 0 193 C0.639375 192.360625 1.27875 191.72125 1.9375 191.0625 C2.39511719 190.5984375 2.85273438 190.134375 3.32421875 189.65625 C4.5308905 188.46364202 5.76658194 187.30014183 7.01953125 186.15625 C21.45402511 172.60653247 29.46251157 153.9873443 34 135 C34.18191895 134.31566895 34.36383789 133.63133789 34.55126953 132.92626953 C40.89022495 108.74393157 40.51354724 80.09263796 34 56 C33.79101074 55.2157666 33.58202148 54.4315332 33.36669922 53.62353516 C27.83210014 33.63679198 17.94370888 17.34728591 3 3 C1.99774012 2.002265 0.99692783 1.00306277 0 0 Z " fill="#42B1ED" transform="translate(383,420)"/>
<path d="M0 0 C10.93550864 1.75286842 19.41916529 8.30009458 27 16 C27.62519531 16.62648438 28.25039063 17.25296875 28.89453125 17.8984375 C42.56940685 32.53024571 49.24039456 51.71720993 53 71 C53.17732666 71.84868652 53.35465332 72.69737305 53.53735352 73.57177734 C59.34002494 102.72716694 53.37904596 138.04145377 37 163 C34.79033156 166.11729569 32.45093625 169.07083229 30 172 C29.2575 173.010625 28.515 174.02125 27.75 175.0625 C21.89970823 181.96776242 12.55488505 188.07920902 4 191 C3.01 190.67 2.02 190.34 1 190 C1.67804687 189.56171875 2.35609375 189.1234375 3.0546875 188.671875 C15.42420348 180.24278655 23.33531517 169.21141063 30 156 C30.31598145 155.37609375 30.63196289 154.7521875 30.95751953 154.109375 C36.09591569 143.74303605 38.95577568 133.35510966 41 122 C41.17732666 121.09725342 41.35465332 120.19450684 41.53735352 119.2644043 C42.96395844 111.57775286 43.34912579 104.12187258 43.3125 96.3125 C43.30831055 95.08442627 43.30412109 93.85635254 43.29980469 92.59106445 C43.18197754 83.07150838 42.24110628 74.23490346 40 65 C39.7215625 63.74703125 39.443125 62.4940625 39.15625 61.203125 C34.10725384 40.22367544 23.16965977 16.46456179 4.65625 4.1484375 C2.89132208 2.92464314 1.47489826 1.5558378 0 0 Z " fill="#47AFEC" transform="translate(662,421)"/>
<path d="M0 0 C12.00111455 6.8934402 19.6638349 17.51630994 23.58984375 30.7734375 C28.63894722 50.73717378 26.75741091 71.87798681 16.75 89.9375 C11.55470276 97.95172703 5.04304062 104.69986254 -4.3125 107.5703125 C-11.87072472 109.00271799 -18.78337537 107.60253068 -25.3515625 103.68359375 C-38.76424855 94.18078336 -45.39398946 79.80357791 -48.25 63.9375 C-49.60866252 43.99603962 -47.63515971 24.88689848 -34.4375 8.9375 C-25.36871459 -0.55638472 -12.57746961 -5.94748563 0 0 Z M-31.6875 16.74609375 C-39.17341951 27.24509586 -41.77501857 38.84538883 -41.5625 51.5625 C-41.56572266 52.53445313 -41.56894531 53.50640625 -41.57226562 54.5078125 C-41.47368966 67.84245212 -37.92616927 81.60926392 -29.22265625 91.99609375 C-24.60849148 96.53716284 -18.82003529 101.02774573 -12.1875 101.25 C-5.38738962 101.14084895 0.18735754 98.61534417 5.3125 94.1875 C8.64119386 90.58659986 10.83628876 86.45725049 13.0625 82.125 C13.40031494 81.47370117 13.73812988 80.82240234 14.08618164 80.15136719 C18.39292317 71.29589562 19.11933302 62.29637323 19.0625 52.5625 C19.05686035 51.54953857 19.0512207 50.53657715 19.04541016 49.49291992 C18.81954019 35.58849887 15.18024422 22.56635469 5.75 11.9375 C3.57242475 10.14716847 3.57242475 10.14716847 1.25 8.6875 C0.4971875 8.18734375 -0.255625 7.6871875 -1.03125 7.171875 C-13.13119336 0.44021637 -23.83318962 7.16456234 -31.6875 16.74609375 Z " fill="#11264A" transform="translate(366.25,463.0625)"/>
<path d="M0 0 C5.57196115 2.81098938 9.72616891 7.31938612 12.4140625 12.9296875 C14.52121327 19.4086838 13.98098661 25.73141465 11.125 31.875 C7.38913166 38.49672169 2.60054188 42.21048695 -4.75 44.5 C-12.10630327 45.63173896 -17.3943877 44.4969599 -23.58203125 40.35546875 C-28.44839879 36.1905596 -31.40984198 30.84991064 -32.05859375 24.4609375 C-32.31327388 17.37619923 -32.23620821 12.08488617 -27.70703125 6.41015625 C-19.60406581 -1.49872619 -10.77595828 -4.06156662 0 0 Z " fill="#14254A" transform="translate(665.75,500.5)"/>
<path d="M0 0 C9.68238019 4.24088252 14.79386937 12.96950347 18.5625 22.5 C24.66442542 38.90650146 23.48375809 59.40475265 16.32885742 75.19750977 C12.13009665 83.98259153 7.299962 90.48000626 -1.99609375 94.08203125 C-7.04736712 95.5386379 -10.99476409 95.74381706 -15.890625 93.64453125 C-27.55864101 87.12930674 -33.63415708 76.41447013 -37.3125 63.75 C-40.48769153 47.05463807 -39.82466752 28.72513014 -31.125 13.875 C-23.44919317 2.67560081 -13.80275588 -4.79298734 0 0 Z M-26.77734375 17.5859375 C-34.95772085 29.11756324 -35.92056804 44.27649219 -33.625 57.875 C-31.03025973 68.83057001 -26.54080816 78.90887756 -16.875 85.25 C-11.30900645 87.59357623 -7.46594667 87.43003579 -1.75 85.625 C8.10937072 80.24716143 12.48032129 72.77831991 15.83203125 62.10546875 C17.07751844 56.75985553 17.05564788 51.40206428 17.0625 45.9375 C17.09923828 44.41286133 17.09923828 44.41286133 17.13671875 42.85742188 C17.17836646 31.96654485 13.80613785 22.10102162 6.6875 13.75 C1.181223 8.78703686 -3.4144347 6.29257593 -10.91015625 6.4140625 C-17.69713541 7.36313601 -22.59514015 12.49870123 -26.77734375 17.5859375 Z " fill="#F0F4F6" transform="translate(363.3125,469.25)"/>
<path d="M0 0 C8.81954272 3.87785342 13.2512833 11.3229766 16.9375 19.8671875 C21.419367 31.79413936 20.63910835 48.92963251 16.140625 60.7578125 C12.51956612 68.31480494 8.29898719 74.17931267 0.8828125 78.3828125 C-4.0060161 79.91116474 -8.7005296 80.49095851 -13.42578125 78.32421875 C-23.0271906 72.34964868 -27.55990513 63.91122081 -31.1171875 53.3828125 C-31.72487315 50.48461938 -32.0414978 48.27415892 -32.1171875 45.3828125 C-32.16746094 44.34511719 -32.21773438 43.30742188 -32.26953125 42.23828125 C-32.61106344 29.84749339 -30.9389369 18.35685536 -23.1171875 8.3828125 C-16.36888728 1.38746468 -9.91833357 -2.89132233 0 0 Z M-17.71484375 12.30078125 C-25.42761008 23.00769274 -26.36023999 34.55611849 -25.1171875 47.3828125 C-23.41671535 56.56728353 -19.94338804 65.29910435 -12.6796875 71.4453125 C-7.8200589 73.2232254 -4.34722291 72.85756301 0.4453125 71.0078125 C6.92839274 66.87029612 10.49011574 58.56104832 12.41796875 51.3515625 C14.50224981 38.04018765 13.56811901 24.72359431 5.8828125 13.3828125 C2.24351809 9.31026876 -0.34614461 6.55701344 -5.9296875 6.0078125 C-11.22308259 6.19167814 -14.31710616 8.22183466 -17.71484375 12.30078125 Z " fill="#40AEEB" transform="translate(361.1171875,476.6171875)"/>
<path d="M0 0 C0.79473156 0.00291284 1.58946312 0.00582568 2.40827745 0.00882679 C3.24626011 0.00797237 4.08424277 0.00711794 4.94761884 0.00623763 C7.77753875 0.00458025 10.60740041 0.01010838 13.43731493 0.01555592 C15.45714117 0.01583776 17.47696751 0.01568011 19.49679369 0.01511341 C24.99863402 0.01482532 30.50045275 0.0207239 36.00228804 0.02768737 C41.74519121 0.03391901 47.48809482 0.03452456 53.23100084 0.03571278 C64.11429909 0.03882666 74.99758735 0.0470408 85.88088119 0.05706227 C98.26760812 0.06822165 110.65433552 0.07373341 123.04106623 0.0787577 C148.52919309 0.08922337 174.01731107 0.1068239 199.50543016 0.12908131 C199.88761783 1.78522788 200.21938118 3.45365155 200.50543016 5.12908131 C198.73325972 6.90125175 196.37112371 6.25160001 194.01086032 6.25816262 C193.21612876 6.25524978 192.42139721 6.25233693 191.60258287 6.24933583 C190.76460021 6.25019025 189.92661755 6.25104468 189.06324148 6.25192499 C186.23332157 6.25358237 183.40345992 6.24805424 180.5735454 6.2426067 C178.55371916 6.24232486 176.53389282 6.2424825 174.51406664 6.2430492 C169.01222631 6.2433373 163.51040757 6.23743872 158.00857228 6.23047525 C152.26566911 6.22424361 146.52276551 6.22363806 140.77985948 6.22244984 C129.89656123 6.21933596 119.01327297 6.21112181 108.12997913 6.20110035 C95.7432522 6.18994096 83.3565248 6.1844292 70.96979409 6.17940491 C45.48166724 6.16893924 19.99354926 6.15133871 -5.49456984 6.12908131 C-5.87675751 4.47293474 -6.20852086 2.80451107 -6.49456984 1.12908131 C-4.72239939 -0.64308913 -2.36026338 0.00656261 0 0 Z " fill="#34AAEB" transform="translate(439.494569838047,595.8709186911583)"/>
<path d="M0 0 C0.79473156 0.00291284 1.58946312 0.00582568 2.40827745 0.00882679 C3.24626011 0.00797237 4.08424277 0.00711794 4.94761884 0.00623763 C7.77753875 0.00458025 10.60740041 0.01010838 13.43731493 0.01555592 C15.45714117 0.01583776 17.47696751 0.01568011 19.49679369 0.01511341 C24.99863402 0.01482532 30.50045275 0.0207239 36.00228804 0.02768737 C41.74519121 0.03391901 47.48809482 0.03452456 53.23100084 0.03571278 C64.11429909 0.03882666 74.99758735 0.0470408 85.88088119 0.05706227 C98.26760812 0.06822165 110.65433552 0.07373341 123.04106623 0.0787577 C148.52919309 0.08922337 174.01731107 0.1068239 199.50543016 0.12908131 C199.88761783 1.78522788 200.21938118 3.45365155 200.50543016 5.12908131 C198.73325972 6.90125175 196.37112371 6.25160001 194.01086032 6.25816262 C193.21612876 6.25524978 192.42139721 6.25233693 191.60258287 6.24933583 C190.76460021 6.25019025 189.92661755 6.25104468 189.06324148 6.25192499 C186.23332157 6.25358237 183.40345992 6.24805424 180.5735454 6.2426067 C178.55371916 6.24232486 176.53389282 6.2424825 174.51406664 6.2430492 C169.01222631 6.2433373 163.51040757 6.23743872 158.00857228 6.23047525 C152.26566911 6.22424361 146.52276551 6.22363806 140.77985948 6.22244984 C129.89656123 6.21933596 119.01327297 6.21112181 108.12997913 6.20110035 C95.7432522 6.18994096 83.3565248 6.1844292 70.96979409 6.17940491 C45.48166724 6.16893924 19.99354926 6.15133871 -5.49456984 6.12908131 C-5.87675751 4.47293474 -6.20852086 2.80451107 -6.49456984 1.12908131 C-4.72239939 -0.64308913 -2.36026338 0.00656261 0 0 Z " fill="#36A8E9" transform="translate(439.494569838047,430.8709186911583)"/>
<path d="M0 0 C4.33612708 2.26682566 6.91961457 4.90283956 8.92578125 9.31640625 C9.679626 14.46120239 9.72220229 19.49703409 7.42578125 24.25390625 C3.82213736 28.66837001 0.25545027 30.76991235 -5.3828125 31.6953125 C-10.73886112 31.9753083 -13.95806793 30.95393488 -18.07421875 27.31640625 C-22.18398971 21.8737366 -24.01223063 17.18213207 -23.07421875 10.31640625 C-18.27905465 1.08127539 -10.15503281 -3.34676223 0 0 Z " fill="#F6F6F6" transform="translate(663.07421875,506.68359375)"/>
<path d="M0 0 C5.35755096 1.92063148 8.45837216 4.91674432 11 10 C11.52940021 15.31135952 11.66363629 19.67272741 9.25 24.5 C5.87843125 28.2461875 3.10701989 30.63899388 -2.05078125 31.23828125 C-7.57364901 31.41951525 -10.70071475 30.79936836 -15 27 C-18.42917072 23.30010527 -19.29969749 20.4207651 -19.5 15.5 C-19.29969749 10.5792349 -18.42917072 7.69989473 -15 4 C-10.21212087 -0.231149 -6.14411195 -0.90451917 0 0 Z " fill="#3BA9EC" transform="translate(610,450)"/>
<path d="M0 0 C3.12291165 1.68012647 5.39164837 3.78329674 7 7 C7.52137294 11.82911 7.73402673 15.74166846 5.25 20 C1.2057453 23.59489307 -1.48085142 24.42172496 -7.0390625 24.24609375 C-10.03580677 23.87000831 -11.71401456 22.95941609 -14 21 C-16.88402967 16.62423085 -17.64987517 13.19900136 -17 8 C-12.834109 0.38647507 -8.33718013 -1.30753912 0 0 Z " fill="#3DADED" transform="translate(481,467)"/>
<path d="M0 0 C0 4.95 0 9.9 0 15 C-11.22 15 -22.44 15 -34 15 C-23.91128685 3.22983466 -15.13223552 -0.42033988 0 0 Z " fill="#F8F9F8" transform="translate(520,514)"/>
<path d="M0 0 C8.25 0 16.5 0 25 0 C25.1953125 9.9609375 25.1953125 9.9609375 25 13 C23 15 23 15 20.66162109 15.22705078 C19.70852051 15.21657715 18.75541992 15.20610352 17.7734375 15.1953125 C16.2265625 15.18564453 16.2265625 15.18564453 14.6484375 15.17578125 C13.56820312 15.15902344 12.48796875 15.14226563 11.375 15.125 C10.28703125 15.11597656 9.1990625 15.10695313 8.078125 15.09765625 C5.38532351 15.07403518 2.69263465 15.03816333 0 15 C0 10.05 0 5.1 0 0 Z " fill="#92E5F8" transform="translate(527,514)"/>
<path d="M0 0 C3.5060303 0.86943897 4.94966563 2.56083702 6.9375 5.48046875 C7.62901325 9.78321784 7.45307405 11.68992187 5.0625 15.35546875 C2.55083682 17.86713193 1.64365837 18.40200671 -1.875 18.79296875 C-5.7932645 18.40882517 -7.27543267 17.18790558 -10.0625 14.48046875 C-11.63185594 11.34175687 -11.41451103 8.94191053 -11.0625 5.48046875 C-8.01136975 0.99912119 -5.26455839 -0.36891792 0 0 Z " fill="#3EAEEE" transform="translate(514.0625,459.51953125)"/>
<path d="M0 0 C84.48 0 168.96 0 256 0 C256 0.33 256 0.66 256 1 C254.6997929 1.00238835 253.3995858 1.00477671 252.05997849 1.00723743 C221.21064681 1.06457054 190.36139414 1.13728197 159.51214693 1.22898628 C155.7169199 1.24025474 151.9216925 1.25139314 148.12646484 1.26245117 C146.9931004 1.2657567 146.9931004 1.2657567 145.83683971 1.269129 C133.59518484 1.30452222 121.35353005 1.32937491 109.11184296 1.35034702 C96.55508482 1.37209297 83.99839321 1.40513185 71.44169164 1.44870156 C63.69062096 1.47523915 55.9396332 1.49291897 48.18851933 1.49934604 C42.24961769 1.50521293 36.31083896 1.52677531 30.37199593 1.55427551 C27.93227765 1.56309524 25.49253472 1.56677025 23.05280113 1.56500816 C19.73027201 1.56336564 16.4083259 1.57996767 13.08587646 1.60127258 C12.11311791 1.59642501 11.14035936 1.59157743 10.13812327 1.58658296 C8.80422836 1.60076777 8.80422836 1.60076777 7.44338608 1.61523914 C6.67635101 1.61713775 5.90931594 1.61903635 5.11903739 1.62099248 C2.45459803 2.09754969 1.03187344 3.2587419 -1 5 C-0.67 3.35 -0.34 1.7 0 0 Z " fill="#CBCFD7" transform="translate(436,560)"/>
<path d="M0 0 C3.34265205 1.20706879 3.94704566 1.92056849 6 5 C6.55377603 9.90487343 6.75639171 11.89979388 3.9375 16 C0.23727467 18.51930235 -1.6031656 18.7066341 -6 18 C-8.75329021 16.20437595 -10.52627461 14.94745078 -12 12 C-12.43023798 8.12785818 -12.31669086 6.47503629 -10.125 3.1875 C-6.78940571 -0.2462 -4.7066745 -0.28240047 0 0 Z " fill="#39ACEC" transform="translate(571,478)"/>
<path d="M0 0 C0.6875 1.75 0.6875 1.75 1 4 C0.2884375 4.8971875 0.2884375 4.8971875 -0.4375 5.8125 C-2.70509469 8.98713257 -2.39558727 11.17598971 -2 15 C-1.505 15.94875 -1.01 16.8975 -0.5 17.875 C1.49431998 22.02983329 1.72719553 25.46714785 1 30 C-0.6875 33.5625 -0.6875 33.5625 -3 36 C-5.75 36.375 -5.75 36.375 -8 36 C-7.06666667 29.2 -7.06666667 29.2 -6.1875 26.5625 C-5.97090051 23.60230698 -6.52993382 22.73499654 -7.9375 20.1875 C-10.18966391 16.00490988 -10.92303213 12.69660468 -10 8 C-6.31727159 -1.89518148 -6.31727159 -1.89518148 0 0 Z " fill="#38ACEC" transform="translate(352,495)"/>
<path d="M0 0 C2.75025718 1.7569363 3.35449951 2.98324911 5 6 C5.06842425 9.96860664 4.61465514 12.10165788 2.375 15.375 C-0.89834212 17.61465514 -3.03139336 18.06842425 -7 18 C-11.30645669 15.65102362 -11.30645669 15.65102362 -13 13 C-13.99950991 8.70439636 -13.72155719 5.28625412 -11.5625 1.4375 C-7.71374588 -0.72155719 -4.29560364 -0.99950991 0 0 Z " fill="#3AABEC" transform="translate(660,468)"/>
<path d="M0 0 C3 2 3 2 5 5 C5.41615596 9.16155957 4.98849218 12.69519033 2.4375 16.0625 C-1.93752049 17.74520019 -6.06247951 17.74520019 -10.4375 16.0625 C-12.97329433 12.71525148 -13.32648324 9.1354544 -13 5 C-9.39430448 -0.96804775 -6.66223499 -1.58086932 0 0 Z " fill="#F3F6F8" transform="translate(610,457)"/>
<path d="M0 0 C1.65 0.33 3.3 0.66 5 1 C4.89300781 1.71285156 4.78601563 2.42570312 4.67578125 3.16015625 C3.87460608 9.56094281 4.25401382 13.06866984 7 19 C8.08013615 25.73857663 6.3724014 30.20368509 3 36 C1.02 36 -0.96 36 -3 36 C-2.51421457 32.87709365 -2.0013988 30.00419641 -1 27 C-0.63502082 22.3998609 -0.63502082 22.3998609 -1.9921875 18.1171875 C-3.9325455 14.04093154 -3.45004544 9.40914084 -3 5 C-1.5 1.8125 -1.5 1.8125 0 0 Z " fill="#39A8E6" transform="translate(358,499)"/>
<path d="M0 0 C0.99 0.33 1.98 0.66 3 1 C0.83656815 3.1907786 -1.33061964 5.37762406 -3.5 7.5625 C-4.10070312 8.17158203 -4.70140625 8.78066406 -5.3203125 9.40820312 C-8.32444437 12.42831442 -11.356709 15.34149914 -14.60546875 18.09765625 C-18.44592503 21.41085396 -22.01491873 24.95357925 -25.58203125 28.5546875 C-26.16753754 29.14569748 -26.75304382 29.73670746 -27.35629272 30.34562683 C-29.80061164 32.81772163 -32.2411877 35.29344162 -34.67749023 37.7734375 C-36.47466236 39.60070071 -38.27791632 41.42178263 -40.08203125 43.2421875 C-40.632043 43.80565887 -41.18205475 44.36913025 -41.74873352 44.94967651 C-44.14780222 47.36449968 -45.72338481 48.90779494 -49 50 C-48.41604915 46.64592247 -47.38535961 45.01327913 -44.98413086 42.62768555 C-44.03194923 41.67100227 -44.03194923 41.67100227 -43.06053162 40.69499207 C-42.36895462 40.01576187 -41.67737762 39.33653168 -40.96484375 38.63671875 C-39.89672203 37.57140678 -39.89672203 37.57140678 -38.80702209 36.48457336 C-37.29647114 34.98074711 -35.78232562 33.4805242 -34.26489258 31.98364258 C-31.96383908 29.71348542 -29.67338072 27.43307986 -27.38476562 25.15039062 C-25.91207369 23.68688052 -24.43878466 22.22397097 -22.96484375 20.76171875 C-21.94873268 19.7519825 -21.94873268 19.7519825 -20.91209412 18.72184753 C-17.00414594 14.87105947 -13.00109615 11.17900692 -8.84230042 7.60017395 C-6.35891129 5.44316711 -3.95010542 3.2100744 -1.54296875 0.96875 C-0.77919922 0.48921875 -0.77919922 0.48921875 0 0 Z " fill="#193248" transform="translate(185,120)"/>
<path d="M0 0 C5.75830496 -0.4606644 8.50634078 0.38553498 13 4 C15.75563655 6.56775224 17.90972733 8.86459099 20 12 C19.67 12.66 19.34 13.32 19 14 C16.5 14.4375 16.5 14.4375 13 14 C10.83169002 12.31353668 8.93954551 10.50210825 7.02734375 8.53125 C4.51727356 6.63539737 3.07265678 6.70178721 0 7 C-1.125 2.25 -1.125 2.25 0 0 Z " fill="#0C1F44" transform="translate(455,513)"/>
<path d="M0 0 C2.70590114 4.05885172 2.65938585 7.23095349 2 12 C0.9027885 14.89091377 -0.43591808 17.3117342 -2 20 C-3.98 20 -5.96 20 -8 20 C-7.03677336 12.48683219 -5.26673599 5.62995916 0 0 Z " fill="#4FB3E9" transform="translate(363,515)"/>
<path d="M0 0 C0.6875 1.75 0.6875 1.75 1 4 C0.01439389 5.34400833 -0.98758315 6.67607028 -2 8 C-2.72045367 11.15118325 -2.72045367 11.15118325 -3 14 C-3.66 14 -4.32 14 -5 14 C-6.6446674 16.46326712 -6.6446674 16.46326712 -8 19 C-10.48956012 15.26565982 -10.64412758 12.32485658 -10 8 C-6.37663145 -1.91298943 -6.37663145 -1.91298943 0 0 Z " fill="#4BB1EB" transform="translate(352,495)"/>
<path d="M0 0 C2.9375 0.8125 2.9375 0.8125 4.9375 2.8125 C4.75 6.3125 4.75 6.3125 3.9375 9.8125 C0.9375 11.8125 0.9375 11.8125 -1.625 11.5625 C-4.0625 10.8125 -4.0625 10.8125 -6.0625 8.8125 C-6.39552312 5.6820827 -6.53921956 3.63351702 -4.9375 0.875 C-3.0625 -0.1875 -3.0625 -0.1875 0 0 Z " fill="#F4F8FA" transform="translate(477.0625,473.1875)"/>
<path d="M0 0 C2.46305142 3.0009592 3.91069397 5.86188511 5.25 9.5 C5.60578125 10.4384375 5.9615625 11.376875 6.328125 12.34375 C7.01941191 15.07674477 6.95925156 16.39280344 6 19 C5.34 19 4.68 19 4 19 C3.34 19.33 2.68 19.66 2 20 C-2.22323462 8.47835991 -2.22323462 8.47835991 -4 3 C-2.68 2.01 -1.36 1.02 0 0 Z " fill="#E5EBF0" transform="translate(377,483)"/>
<path d="M0 0 C0.66 0.33 1.32 0.66 2 1 C2 5.67664739 1.62153553 9.06769671 -1 13 C-2.65614657 13.38218767 -4.32457024 13.71395102 -6 14 C-6.99 14.66 -7.98 15.32 -9 16 C-8.65988792 9.1977583 -4.64401598 4.64401598 0 0 Z " fill="#37A9E9" transform="translate(342,481)"/>
<path d="M0 0 C1 3 1 3 1 4 C1.33 4.99 1.66 5.98 2 7 C1.71973605 9.62938545 1.34230504 10.68806735 -0.62890625 12.484375 C-1.26699219 12.90203125 -1.90507812 13.3196875 -2.5625 13.75 C-3.20316406 14.17796875 -3.84382813 14.6059375 -4.50390625 15.046875 C-5.24447266 15.51867187 -5.24447266 15.51867187 -6 16 C-7.74627478 13.38058783 -8.38722388 11.96175123 -9 9 C-8.43410156 8.51789062 -7.86820312 8.03578125 -7.28515625 7.5390625 C-6.55167969 6.90742187 -5.81820313 6.27578125 -5.0625 5.625 C-4.33160156 4.99851562 -3.60070312 4.37203125 -2.84765625 3.7265625 C-0.91619094 2.12252286 -0.91619094 2.12252286 0 0 Z " fill="#132A53" transform="translate(375,551)"/>
<path d="M0 0 C1.75126074 0.08022791 3.50215533 0.17689136 5.25 0.3125 C4.92 0.9725 4.59 1.6325 4.25 2.3125 C3.59 2.3125 2.93 2.3125 2.25 2.3125 C1.5685177 4.20429203 1.5685177 4.20429203 1.25 6.3125 C1.91 6.9725 2.57 7.6325 3.25 8.3125 C-4.94256018 8.7851477 -4.94256018 8.7851477 -8.3125 6.8125 C-8.786875 6.3175 -9.26125 5.8225 -9.75 5.3125 C-7.23964755 0.53087629 -5.1279444 -0.03299836 0 0 Z " fill="#50B3EC" transform="translate(606.75,472.6875)"/>
<path d="M0 0 C0.66 0.66 1.32 1.32 2 2 C0.625 4.5 0.625 4.5 -1 7 C-1.66 7 -2.32 7 -3 7 C-3 7.66 -3 8.32 -3 9 C-2.54625 8.505 -2.0925 8.01 -1.625 7.5 C0 6 0 6 2 6 C2.33 5.01 2.66 4.02 3 3 C3.66 3.66 4.32 4.32 5 5 C3.71284028 6.64936048 2.42012981 8.29439047 1.125 9.9375 C0.04605469 11.31228516 0.04605469 11.31228516 -1.0546875 12.71484375 C-3 15 -3 15 -5 16 C-7.02590674 11.06735751 -7.02590674 11.06735751 -7 8 C-5.08027676 4.88636668 -2.68737023 2.46451514 0 0 Z " fill="#172D54" transform="translate(415,591)"/>
<path d="M0 0 C-0.66 1.65 -1.32 3.3 -2 5 C-0.02 4.67 1.96 4.34 4 4 C2.35 5.98 0.7 7.96 -1 10 C-3.475 9.01 -3.475 9.01 -6 8 C-6 4 -6 4 -4.125 1.75 C-2 0 -2 0 0 0 Z " fill="#172D59" transform="translate(338,468)"/>
<path d="M0 0 C0.99 0.33 1.98 0.66 3 1 C3.99 1 4.98 1 6 1 C5.49396008 3.16874252 5.00016187 4.99967627 4 7 C2.02 7 0.04 7 -2 7 C-1.125 1.125 -1.125 1.125 0 0 Z " fill="#3DB0E9" transform="translate(357,528)"/>
<path d="M0 0 C0.33 1.32 0.66 2.64 1 4 C-2.3 6.97 -5.6 9.94 -9 13 C-9.33 12.01 -9.66 11.02 -10 10 C-7.0875615 5.97398207 -4.00508702 2.9752075 0 0 Z " fill="#0F2F5C" transform="translate(677,596)"/>
<path d="M0 0 C7.92 0 15.84 0 24 0 C24 0.33 24 0.66 24 1 C11.13 1.99 11.13 1.99 -2 3 C-1.34 2.67 -0.68 2.34 0 2 C0 1.34 0 0.68 0 0 Z " fill="#E7E9EB" transform="translate(467,0)"/>
<path d="M0 0 C0.680625 0.12375 1.36125 0.2475 2.0625 0.375 C-0.71998679 3.31206939 -3.81688211 5.80915863 -6.9375 8.375 C-7.9275 7.715 -8.9175 7.055 -9.9375 6.375 C-3.86310175 0.49316193 -3.86310175 0.49316193 0 0 Z " fill="#182A50" transform="translate(562.9375,534.625)"/>
<path d="M0 0 C0.33 0.66 0.66 1.32 1 2 C-2 5 -5 8 -8 11 C-8.99 10.67 -9.98 10.34 -11 10 C-10.34 10 -9.68 10 -9 10 C-8.74476563 9.40703125 -8.48953125 8.8140625 -8.2265625 8.203125 C-6.88183502 5.78775462 -5.50785633 4.48788294 -3.375 2.75 C-2.74335938 2.22921875 -2.11171875 1.7084375 -1.4609375 1.171875 C-0.73777344 0.59179688 -0.73777344 0.59179688 0 0 Z " fill="#1E2F51" transform="translate(488,517)"/>
<path d="M0 0 C1.32 1.65 2.64 3.3 4 5 C3.01 5.495 3.01 5.495 2 6 C1.34 5.67 0.68 5.34 0 5 C0 3.35 0 1.7 0 0 Z M-5 4 C-2.525 4.495 -2.525 4.495 0 5 C-0.33 6.32 -0.66 7.64 -1 9 C-2.35432675 7.68799596 -3.68733482 6.35368596 -5 5 C-5 4.67 -5 4.34 -5 4 Z " fill="#1B2B4F" transform="translate(642,530)"/>
<path d="M0 0 C-1.38188453 3.21043882 -2.92421903 5.04936365 -5.625 7.25 C-6.57246094 8.03117187 -6.57246094 8.03117187 -7.5390625 8.828125 C-8.02117187 9.21484375 -8.50328125 9.6015625 -9 10 C-9 7 -9 7 -7.5390625 5.17578125 C-6.90742188 4.56089844 -6.27578125 3.94601562 -5.625 3.3125 C-4.68527344 2.37857422 -4.68527344 2.37857422 -3.7265625 1.42578125 C-2 0 -2 0 0 0 Z " fill="#20304F" transform="translate(331,425)"/>
<path d="M0 0 C0.33 0 0.66 0 1 0 C1.91457003 5.56157448 2.32086397 9.675665 0 15 C-0.33 15 -0.66 15 -1 15 C-2.51708428 4.44191344 -2.51708428 4.44191344 0 0 Z " fill="#D7ECF4" transform="translate(354,508)"/>
<path d="M0 0 C1.98 0.495 1.98 0.495 4 1 C3.67 2.65 3.34 4.3 3 6 C1.68 5.67 0.36 5.34 -1 5 C-0.67 3.35 -0.34 1.7 0 0 Z " fill="#E3F2F7" transform="translate(567,484)"/>
<path d="M0 0 C3.55780196 0.60990891 6.6828589 1.5783681 10 3 C9.67 4.32 9.34 5.64 9 7 C7.4972763 6.02501855 5.99788037 5.04490611 4.5 4.0625 C3.6646875 3.51722656 2.829375 2.97195313 1.96875 2.41015625 C1.3190625 1.94480469 0.669375 1.47945313 0 1 C0 0.67 0 0.34 0 0 Z " fill="#43A2DE" transform="translate(662,421)"/>
<path d="M0 0 C0.33 0.99 0.66 1.98 1 3 C-2.26760563 8.63380282 -2.26760563 8.63380282 -5 10 C-5.66 9.34 -6.32 8.68 -7 8 C-4.69 5.36 -2.38 2.72 0 0 Z " fill="#213456" transform="translate(375,551)"/>
<path d="M0 0 C2.475 0.495 2.475 0.495 5 1 C4.67 2.32 4.34 3.64 4 5 C2.68 5 1.36 5 0 5 C0 3.35 0 1.7 0 0 Z " fill="#F3F9FC" transform="translate(510,466)"/>
<path d="M0 0 C1.98 0.495 1.98 0.495 4 1 C4 2.32 4 3.64 4 5 C2.35 4.67 0.7 4.34 -1 4 C-0.67 2.68 -0.34 1.36 0 0 Z " fill="#F5FAFC" transform="translate(654,474)"/>
<path d="M0 0 C0.66 0 1.32 0 2 0 C0.55922954 3.36179774 -1.24750021 5.59156268 -4 8 C-4.66 8 -5.32 8 -6 8 C-4.95125002 5.37812506 -4.35068687 4.20628639 -1.875 2.75 C-1.25625 2.5025 -0.6375 2.255 0 2 C0 1.34 0 0.68 0 0 Z " fill="#071839" transform="translate(394,599)"/>
<path d="M0 0 C1.9375 0.8125 1.9375 0.8125 4 2 C4.33 2.99 4.66 3.98 5 5 C3.02 5 1.04 5 -1 5 C-0.67 3.35 -0.34 1.7 0 0 Z " fill="#0B1E43" transform="translate(642,535)"/>
<path d="M0 0 C0.33 1.32 0.66 2.64 1 4 C-0.32 4.99 -1.64 5.98 -3 7 C-3.66 6.67 -4.32 6.34 -5 6 C-5 5.34 -5 4.68 -5 4 C-3.37373596 2.61767557 -1.7074998 1.28062485 0 0 Z " fill="#092955" transform="translate(677,596)"/>
<path d="M0 0 C0.99 1.32 1.98 2.64 3 4 C0.36 4.33 -2.28 4.66 -5 5 C-3.35 3.35 -1.7 1.7 0 0 Z " fill="#3EA9E5" transform="translate(388,608)"/>
</svg>
