<?xml version="1.0" encoding="UTF-8"?>
<svg version="1.1" xmlns="http://www.w3.org/2000/svg" width="1024" height="1024">
<path d="M0 0 C337.92 0 675.84 0 1024 0 C1024 337.92 1024 675.84 1024 1024 C686.08 1024 348.16 1024 0 1024 C0 686.08 0 348.16 0 0 Z " fill="#203C58" transform="translate(0,0)"/>
<path d="M0 0 C0.65763462 -0.00407553 1.31526924 -0.00815105 1.99283218 -0.01235008 C5.4898469 -0.03306022 8.98682441 -0.04741277 12.48388672 -0.05688477 C15.30117155 -0.0656341 18.1179452 -0.0862622 20.93505859 -0.1184082 C47.2325515 -0.41158483 72.48677042 2.31060663 98.28173828 7.6953125 C100.1069899 8.07632992 101.93362297 8.45076065 103.76123047 8.8203125 C115.78764226 11.2534583 127.34001844 14.06780787 138.8828125 18.23828125 C140.31769441 18.72266598 141.75399821 19.20285126 143.19140625 19.6796875 C144.75521291 20.19920496 146.31901492 20.71873645 147.8828125 21.23828125 C148.64045898 21.4899707 149.39810547 21.74166016 150.17871094 22.00097656 C188.05562838 34.75303012 224.60172041 53.97093934 255.96630859 78.73486328 C257.74370198 80.1291548 259.53587303 81.49973204 261.33984375 82.859375 C281.23788165 97.86464768 300.74366838 114.97053185 316.93359375 133.953125 C318.43329258 135.71128896 319.95600266 137.44984375 321.48828125 139.1796875 C361.77612988 184.89639516 391.32076481 241.95442874 405.38037109 301.18505859 C405.99683075 303.70421588 406.71273824 306.18816276 407.4453125 308.67578125 C411.20586574 322.40813858 413.171507 336.59144604 415.0703125 350.67578125 C415.23716553 351.90659424 415.40401855 353.13740723 415.57592773 354.40551758 C417.36132181 368.09659862 418.09493319 381.69326873 418.0703125 395.48828125 C418.06904358 396.22971375 418.06777466 396.97114624 418.06646729 397.73504639 C417.7923813 482.57258632 391.38085028 565.84326836 340.8828125 634.23828125 C339.82900391 635.68847656 339.82900391 635.68847656 338.75390625 637.16796875 C334.26193978 643.27307234 329.55487114 649.18369725 324.7578125 655.05078125 C324.18385742 655.75630127 323.60990234 656.46182129 323.01855469 657.1887207 C319.69426145 661.22040147 316.23884934 664.99987931 312.48364258 668.63476562 C310.79288257 670.32836204 309.24179861 672.10024703 307.6953125 673.92578125 C301.0069842 681.66857572 293.63691739 688.9327329 285.83984375 695.5546875 C284.45858916 696.74295243 283.10392101 697.96246318 281.76953125 699.203125 C274.5839142 705.88152202 266.86189151 711.76719936 259.01708984 717.63916016 C257.04570847 719.11623039 255.08289234 720.60399451 253.12109375 722.09375 C217.23660297 749.1257005 174.99731298 769.80974368 131.8828125 782.23828125 C130.78066406 782.57085938 129.67851563 782.9034375 128.54296875 783.24609375 C125.00191726 784.29560026 121.44942545 785.27916141 117.8828125 786.23828125 C117.1825293 786.42890137 116.48224609 786.61952148 115.76074219 786.81591797 C104.07069847 789.94925366 92.27563467 792.10980682 80.3203125 793.92578125 C79.65236664 794.02833221 78.98442078 794.13088318 78.29623413 794.23654175 C73.49941378 794.96630208 68.69602482 795.62620501 63.8828125 796.23828125 C63.13908386 796.333974 62.39535522 796.42966675 61.62908936 796.52825928 C48.2391875 798.19904804 34.96080114 798.55032803 21.47558594 798.49902344 C18.15020331 798.48833714 14.82536605 798.49897037 11.5 798.51171875 C-8.12853147 798.52603034 -27.606898 797.46233517 -46.9296875 793.86328125 C-48.15196045 793.64269043 -49.3742334 793.42209961 -50.63354492 793.19482422 C-54.13094397 792.55692077 -57.62437717 791.90078309 -61.1171875 791.23828125 C-62.02339844 791.07070313 -62.92960937 790.903125 -63.86328125 790.73046875 C-120.728273 780.13004375 -175.18748297 754.04004304 -221.1171875 719.23828125 C-221.7373877 718.76970703 -222.35758789 718.30113281 -222.99658203 717.81835938 C-229.87034785 712.59496417 -236.51527978 707.12382885 -243.0546875 701.48828125 C-243.65756592 700.96943359 -244.26044434 700.45058594 -244.8815918 699.91601562 C-248.57660333 696.6943299 -252.07795939 693.33638186 -255.49853516 689.82446289 C-257.11155432 688.24380143 -258.79110019 686.83474813 -260.5546875 685.42578125 C-261.4003125 684.70390625 -262.2459375 683.98203125 -263.1171875 683.23828125 C-263.1171875 682.57828125 -263.1171875 681.91828125 -263.1171875 681.23828125 C-263.67148437 681.02042969 -264.22578125 680.80257812 -264.796875 680.578125 C-267.8481717 678.81618095 -269.93875396 676.41347207 -272.2421875 673.80078125 C-273.22384513 672.70562768 -274.20561832 671.6105777 -275.1875 670.515625 C-275.67895508 669.96374512 -276.17041016 669.41186523 -276.67675781 668.84326172 C-277.99190675 667.37787373 -279.33072715 665.93381891 -280.671875 664.4921875 C-321.2740771 620.84157726 -348.52464238 566.69101686 -366.1171875 510.23828125 C-366.61822998 508.63509033 -366.61822998 508.63509033 -367.12939453 506.99951172 C-383.83737439 452.48913911 -386.3497182 391.10839394 -376.9296875 335.05078125 C-376.77212982 334.10274628 -376.61457214 333.1547113 -376.45223999 332.177948 C-374.0764037 317.95927909 -371.45091936 304.00764199 -367.1171875 290.23828125 C-366.70445074 288.90547927 -366.29186374 287.5726309 -365.87939453 286.23974609 C-350.07941891 235.48233331 -325.91277414 188.4462828 -292.1171875 147.23828125 C-291.68374023 146.7071875 -291.25029297 146.17609375 -290.80371094 145.62890625 C-277.55920134 129.47276131 -263.11639619 113.70524108 -247.1171875 100.23828125 C-246.15296875 99.408125 -245.18875 98.57796875 -244.1953125 97.72265625 C-236.70570141 91.29076446 -229.03049894 85.14206426 -221.1171875 79.23828125 C-220.46153809 78.74602051 -219.80588867 78.25375977 -219.13037109 77.74658203 C-164.90328448 37.19316303 -102.15147717 12.80703664 -35.4921875 2.55078125 C-34.72390625 2.43138184 -33.955625 2.31198242 -33.1640625 2.18896484 C-22.13579858 0.55225299 -11.1392944 0.06615233 0 0 Z " fill="#FAFBFB" transform="translate(494.1171875,112.76171875)"/>
<path d="M0 0 C1.03382813 -0.01224609 2.06765625 -0.02449219 3.1328125 -0.03710938 C11.8993066 -0.05367076 20.01429138 0.3720559 27.5625 5.1875 C34.08388272 8.67568145 40.22455399 8.99605158 47.45581055 9.50878906 C64.283909 10.75945467 77.36205499 17.33821498 89.25 29.1875 C90.39275391 30.29544922 90.39275391 30.29544922 91.55859375 31.42578125 C109.35718429 49.77961378 115.72543403 76.05294142 119.9375 100.5 C120.11684082 101.53846069 120.11684082 101.53846069 120.29980469 102.59790039 C122.06147147 113.4627888 122.39644361 124.34391734 122.4609375 135.33203125 C122.4739669 136.67226423 122.48778966 138.01248969 122.50234985 139.35270691 C122.56287549 144.96675921 122.6174574 150.58078634 122.65136719 156.19506836 C121.26453705 189.01599543 121.26453705 189.01599543 131.25 219.1875 C135.27112565 222.90953366 140.00054869 224.74390089 145.25 226.1875 C145.92578125 228.4453125 145.92578125 228.4453125 146.25 231.1875 C139.25214822 244.07163143 120.45990633 251.84482855 107.25 256.1875 C104.88970885 256.69176328 102.65977887 256.97795401 100.25 257.1875 C101.59363724 260.43763557 102.66464003 261.7667812 105.86254883 263.22338867 C106.93625229 263.71927994 106.93625229 263.71927994 108.03164673 264.22518921 C108.76370331 264.54275177 109.49575989 264.86031433 110.25 265.1875 C110.9151059 265.47662262 111.58021179 265.76574524 112.26547241 266.06362915 C114.31890939 266.93388106 116.38191177 267.77654471 118.44921875 268.61328125 C120.00465174 269.25172308 121.55998717 269.89040262 123.11523438 270.52929688 C125.51827544 271.51261416 127.92214011 272.49376412 130.32788086 273.47045898 C152.1734245 282.35384896 169.68412682 291.10402179 179.875 313.6875 C181.86549675 318.76850485 183.43435727 323.92942587 184.875 329.1875 C185.06916504 329.87908203 185.26333008 330.57066406 185.46337891 331.28320312 C190.08271358 349.07097193 190.69137279 366.85388628 190.61328125 385.1328125 C190.61276129 387.56566365 190.61328422 389.99851523 190.61479187 392.43136597 C190.61470296 397.48214136 190.60442715 402.53275442 190.58618164 407.58349609 C190.56327688 414.06667268 190.56299831 420.54961744 190.56969929 427.03282356 C190.57302965 432.03406858 190.56643047 437.03526028 190.55657005 442.03649521 C190.55271801 444.42959185 190.55156985 446.8226944 190.5531559 449.21579361 C190.55352474 452.53737135 190.54096479 455.85864375 190.5246582 459.18017578 C190.52837433 460.66513046 190.52837433 460.66513046 190.53216553 462.18008423 C190.52508072 463.0794873 190.51799591 463.97889038 190.51069641 464.9055481 C190.50864354 465.68890596 190.50659067 466.47226383 190.50447559 467.27935982 C190.25 469.1875 190.25 469.1875 188.25 471.1875 C185.73404598 471.43819833 185.73404598 471.43819833 182.48094177 471.43918228 C180.62713567 471.44700552 180.62713567 471.44700552 178.73587894 471.45498681 C177.35183213 471.45066203 175.96778589 471.44614869 174.58374023 471.44146729 C173.12325859 471.44376965 171.66277811 471.44694466 170.20230007 471.45092177 C166.17449164 471.45930923 162.14677737 471.45512669 158.11896849 471.44894934 C153.78081324 471.44444192 149.44267468 471.45140007 145.10452271 471.45690918 C136.60035222 471.46582319 128.09621696 471.46387226 119.59204507 471.4580839 C112.68325781 471.45357528 105.77448045 471.45295103 98.86569214 471.45513153 C97.88406269 471.455438 96.90243323 471.45574446 95.89105743 471.45606022 C93.89717396 471.45669964 91.90329049 471.45734806 89.90940702 471.4580054 C71.19318716 471.46371457 52.47698686 471.4571416 33.7607702 471.44640467 C17.68588127 471.43746862 1.61102122 471.4390205 -14.46386719 471.44824219 C-33.11108215 471.45893446 -51.75827995 471.4631652 -70.40549755 471.45701766 C-72.39222908 471.45638053 -74.37896061 471.45575179 -76.36569214 471.45513153 C-77.83212759 471.4546687 -77.83212759 471.4546687 -79.328188 471.45419653 C-86.23223408 471.45246645 -93.13626932 471.4553914 -100.04031372 471.46009064 C-108.44893295 471.46568791 -116.85751481 471.46420743 -125.26612973 471.45352915 C-129.55997732 471.44825683 -133.85376252 471.44624208 -138.14760971 471.45282745 C-142.07304222 471.45875694 -145.9983541 471.45556188 -149.92377555 471.44487235 C-151.34904354 471.44262549 -152.77432157 471.44380311 -154.19958317 471.44862393 C-156.12669587 471.45464564 -158.05383683 471.44731485 -159.98094177 471.43918228 C-161.05446616 471.43885758 -162.12799055 471.43853287 -163.23404598 471.43819833 C-165.75 471.1875 -165.75 471.1875 -167.75 469.1875 C-168.01006222 467.28608894 -168.01006222 467.28608894 -168.02415466 464.92141724 C-168.03911736 463.57703331 -168.03911736 463.57703331 -168.05438232 462.20549011 C-168.055047 461.21873795 -168.05571167 460.23198578 -168.05639648 459.21533203 C-168.06472 458.17736984 -168.07304352 457.13940765 -168.08161926 456.06999207 C-168.1058498 452.61172784 -168.1145174 449.15365287 -168.12109375 445.6953125 C-168.13006666 443.27660061 -168.13918862 440.85788926 -168.14845276 438.43917847 C-168.16499187 433.34290219 -168.17264894 428.24669184 -168.17553711 423.15039062 C-168.18085496 416.7004393 -168.21823556 410.25113425 -168.26428127 403.80136299 C-168.29445564 398.78701708 -168.30126965 393.77281719 -168.30226326 388.75838852 C-168.3064043 386.38674916 -168.31858384 384.01510675 -168.33978081 381.6435585 C-168.581148 352.23871826 -165.63534692 315.9198319 -144.1875 293.51953125 C-132.1751208 282.02691845 -116.80488938 276.50208249 -101.6484375 270.24609375 C-100.46902588 269.75665283 -99.28961426 269.26721191 -98.07446289 268.76293945 C-95.76868099 267.81065233 -93.45805981 266.86998285 -91.14233398 265.94213867 C-90.09118408 265.51006104 -89.04003418 265.0779834 -87.95703125 264.6328125 C-87.0235083 264.25656738 -86.08998535 263.88032227 -85.12817383 263.49267578 C-82.52222002 262.06249109 -81.33103702 260.67391157 -79.75 258.1875 C-80.760625 257.81625 -81.77125 257.445 -82.8125 257.0625 C-84.45850492 256.43795203 -86.10430498 255.81286411 -87.75 255.1875 C-89.47476563 254.54941406 -89.47476563 254.54941406 -91.234375 253.8984375 C-99.38227461 250.82306169 -106.65479591 247.32864935 -113.75 242.1875 C-114.77996094 241.45015625 -115.80992187 240.7128125 -116.87109375 239.953125 C-122.70862764 235.52106105 -122.70862764 235.52106105 -124.75 233.1875 C-125.17578125 230.015625 -125.17578125 230.015625 -124.75 227.1875 C-121.52811685 224.46903609 -117.58149587 223.32697725 -113.6171875 222.03125 C-111.34564211 221.00477761 -110.27142394 220.17902685 -108.75 218.1875 C-107.54474718 215.08836022 -107.54474718 215.08836022 -106.625 211.5625 C-106.29242188 210.39460937 -105.95984375 209.22671875 -105.6171875 208.0234375 C-104.01360322 200.93010524 -103.57218519 193.70388423 -103.21875 186.453125 C-103.17721802 185.60888977 -103.13568604 184.76465454 -103.09289551 183.89483643 C-102.46191903 169.96589101 -102.38637376 156.01641325 -102.19775391 142.07617188 C-101.65112123 102.61831991 -101.65112123 102.61831991 -97.75 85.1875 C-97.33427734 83.31771484 -97.33427734 83.31771484 -96.91015625 81.41015625 C-92.57009786 63.65875861 -84.4523818 47.24624375 -72.75 33.1875 C-72.24210937 32.53394531 -71.73421875 31.88039063 -71.2109375 31.20703125 C-54.27083556 10.30311236 -26.2204909 0.01610595 0 0 Z " fill="#233A56" transform="translate(500.75,276.8125)"/>
<path d="M0 0 C1.20388367 0.00087616 2.40776733 0.00175232 3.64813232 0.00265503 C22.39854729 0.04747983 40.5789068 0.80654466 59.07922363 4.02026367 C61.27642264 4.40125659 63.47547123 4.77021046 65.67480469 5.13867188 C142.24551566 18.0892406 214.56688697 50.27272398 274.125 100.375 C274.74439453 100.89529785 275.36378906 101.4155957 276.00195312 101.95166016 C303.36243968 125.04696045 326.94223801 150.57271293 348.125 179.375 C348.60356445 180.02114258 349.08212891 180.66728516 349.57519531 181.33300781 C406.54774699 258.38849032 431.45142638 350.69019124 425.72753906 497.38842773 C424.34410007 506.42076131 422.6430873 515.34082316 420.59863281 524.24511719 C420.14026965 526.3063338 419.73078868 528.3710943 419.3359375 530.4453125 C407.14349046 592.67238542 375.15685462 652.06820352 336.125 701.375 C335.38765625 702.30699219 334.6503125 703.23898437 333.890625 704.19921875 C329.11359077 710.13663186 324.08959704 715.78237705 318.8984375 721.35546875 C316.81802997 723.59477265 314.811793 725.88783884 312.81640625 728.203125 C308.95452815 732.63388422 304.85348589 736.79401269 300.6875 740.9375 C299.97529297 741.65357422 299.26308594 742.36964844 298.52929688 743.10742188 C293.89211486 747.73618031 289.1037288 752.11757811 284.125 756.375 C283.11579897 757.25250476 282.10667752 758.13010105 281.09765625 759.0078125 C214.41746393 816.11111814 132.28588717 852.33106964 45.125 862.375 C44.13242187 862.49214355 43.13984375 862.60928711 42.1171875 862.72998047 C-9.25376742 868.49208925 -63.10649646 864.37115434 -112.875 850.375 C-113.79861328 850.12137695 -114.72222656 849.86775391 -115.67382812 849.60644531 C-163.88170013 836.32468466 -210.37063581 814.83368867 -250.875 785.375 C-251.52194824 784.90529785 -252.16889648 784.4355957 -252.83544922 783.95166016 C-266.92761935 773.66317443 -280.57773639 762.83263707 -293.28417969 750.86425781 C-295.05524888 749.20625872 -296.84306513 747.56750079 -298.6328125 745.9296875 C-305.02772216 740.05640496 -311.19620553 734.15704879 -316.90234375 727.59765625 C-318.81386175 725.44388646 -320.80725717 723.44049941 -322.875 721.4375 C-327.61701863 716.74197175 -331.74159633 711.60389705 -335.875 706.375 C-336.38305176 705.73804199 -336.89110352 705.10108398 -337.41455078 704.44482422 C-369.48931115 664.17834261 -394.03921975 620.18556564 -410.78149414 571.50634766 C-411.80136392 568.58586322 -412.87209497 565.68976159 -413.95703125 562.79296875 C-425.19296636 531.99168137 -430.42402534 497.94376189 -432.875 465.375 C-433.01421875 463.77797241 -433.01421875 463.77797241 -433.15625 462.14868164 C-434.02629352 451.58309069 -434.11728081 441.03242247 -434.125 430.4375 C-434.12600708 429.47234467 -434.12701416 428.50718933 -434.12805176 427.51278687 C-434.11596889 410.28208669 -433.15190178 393.46539009 -430.875 376.375 C-430.74109863 375.32538086 -430.60719727 374.27576172 -430.46923828 373.19433594 C-422.19118868 309.96007098 -398.61442047 248.09658104 -362.875 195.375 C-361.90493199 193.9283961 -360.93487942 192.48178184 -359.96484375 191.03515625 C-349.67253298 175.78841664 -338.37319559 161.30556137 -325.984375 147.69921875 C-324.12873343 145.65457665 -322.30743624 143.58715851 -320.5 141.5 C-312.96953189 132.89622379 -305.36203875 124.64901993 -296.8359375 117.0234375 C-294.92889097 115.31766238 -293.03688081 113.59484871 -291.1640625 111.8515625 C-284.60690191 105.75590295 -277.73402716 100.21743203 -270.65136719 94.75732422 C-268.93230909 93.41959649 -267.2330424 92.06069833 -265.5390625 90.69140625 C-191.11306418 30.72955475 -95.02664579 -0.17045803 0 0 Z M-52.875 35.375 C-53.98560791 35.52106689 -55.09621582 35.66713379 -56.24047852 35.81762695 C-59.14706423 36.2154733 -62.04161 36.65599146 -64.9375 37.125 C-65.97350342 37.29273926 -67.00950684 37.46047852 -68.0769043 37.63330078 C-131.12258319 48.2284971 -191.23885543 74.40217025 -241.875 113.375 C-242.51614746 113.86452148 -243.15729492 114.35404297 -243.81787109 114.85839844 C-264.9612404 131.02981154 -285.71892188 148.95288513 -302.875 169.375 C-304.08349609 170.7671875 -304.08349609 170.7671875 -305.31640625 172.1875 C-323.64640429 193.37688464 -339.4379992 216.80895488 -352.875 241.375 C-353.59333008 242.67824219 -353.59333008 242.67824219 -354.32617188 244.0078125 C-370.81927092 274.12005054 -382.87662936 306.00799534 -390.875 339.375 C-391.23414276 340.81125601 -391.59350178 342.24745797 -391.953125 343.68359375 C-394.16670291 352.79655131 -395.73334514 362.02598164 -397.224823 371.28005981 C-397.44469535 372.64414274 -397.66700352 374.007836 -397.89212036 375.37106323 C-409.94167286 448.89521258 -398.16566184 532.55577259 -364.875 599.375 C-364.2140921 600.73531215 -363.55392619 602.09598507 -362.89453125 603.45703125 C-361.27170674 606.77976443 -359.59545115 610.07227233 -357.90087891 613.35888672 C-356.85940906 615.40564016 -355.85616369 617.46820195 -354.85546875 619.53515625 C-340.20909247 649.18425228 -319.34897194 676.51051455 -297.1484375 700.875 C-295.47249304 702.71796298 -293.81312991 704.5708069 -292.1640625 706.4375 C-291.25522622 707.45834926 -290.34637241 708.47918291 -289.4375 709.5 C-288.61378906 710.43070313 -287.79007812 711.36140625 -286.94140625 712.3203125 C-285.12430597 714.61003107 -285.12430597 714.61003107 -282.875 714.375 C-282.6584375 714.92800781 -282.441875 715.48101563 -282.21875 716.05078125 C-280.44084942 719.12592905 -278.00808135 721.23875853 -275.375 723.5625 C-274.83601074 724.04589844 -274.29702148 724.52929688 -273.74169922 725.02734375 C-272.64065304 726.01442142 -271.53763129 726.99929997 -270.43261719 727.98193359 C-269.05974333 729.20977344 -267.7042299 730.45696556 -266.3515625 731.70703125 C-259.5120012 738.01260687 -252.27027695 743.74490946 -244.875 749.375 C-244.15634766 749.92349609 -243.43769531 750.47199219 -242.69726562 751.03710938 C-226.93378206 763.01194453 -210.50444743 773.75550265 -193.08789062 783.17382812 C-191.54065805 784.01367635 -189.99803413 784.86204572 -188.45898438 785.71679688 C-176.41115379 792.39578432 -164.13031927 798.14394611 -151.375 803.3125 C-150.71298584 803.58163208 -150.05097168 803.85076416 -149.36889648 804.12805176 C-103.47947667 822.69310783 -55.0292435 831.5638258 -5.62524414 831.56030273 C-2.21162347 831.56248458 1.20167071 831.58069018 4.61523438 831.59960938 C17.91427057 831.63467152 30.93392471 831.07828046 44.125 829.375 C44.83196014 829.28576263 45.53892029 829.19652527 46.26730347 829.10458374 C50.93811116 828.50737875 55.59463627 827.83378107 60.25 827.125 C60.94678864 827.01895447 61.64357727 826.91290894 62.36148071 826.8036499 C129.38585688 816.50504366 193.11932695 787.47155001 246.125 745.375 C247.64673828 744.17423828 247.64673828 744.17423828 249.19921875 742.94921875 C255.0924591 738.21613128 260.68409687 733.20387311 266.21875 728.0625 C268.84675172 725.63230486 271.50860092 723.24870804 274.1875 720.875 C281.70782628 714.11637879 288.90088705 707.00924355 295.46484375 699.3125 C297.22891829 697.25372125 299.05038555 695.25523285 300.875 693.25 C320.13232139 671.55317149 336.22943763 647.01928173 349.95898438 621.52636719 C351.07459383 619.46800234 352.21372687 617.42457165 353.359375 615.3828125 C374.78981296 576.73776044 387.82091887 532.60174006 393.75927734 489.00830078 C394.20640132 485.78888875 394.73419387 482.58402289 395.25 479.375 C400.62727735 440.005648 399.23930308 399.9686158 391.63671875 361.00537109 C391.1255227 358.37768684 390.6391732 355.74629242 390.15625 353.11328125 C388.26613777 343.01227663 385.81074922 333.23691505 382.75292969 323.4296875 C382.13194885 321.39773776 381.54816152 319.35884417 380.9765625 317.3125 C368.53553198 272.93913881 346.72346635 231.16087439 319.125 194.375 C318.6805957 193.77751953 318.23619141 193.18003906 317.77832031 192.56445312 C302.98675251 172.71350971 286.07382392 153.28198271 267.21875 137.1953125 C264.81620864 135.10653587 262.51089317 132.92643156 260.1875 130.75 C253.59699002 124.74873781 246.54589944 119.41414393 239.40625 114.08691406 C237.1526946 112.39578281 234.91914606 110.68083726 232.6875 108.9609375 C201.57315915 85.21153466 165.30756965 66.55840434 128.125 54.375 C127.29742188 54.09527344 126.46984375 53.81554687 125.6171875 53.52734375 C124.22290144 53.05657927 122.82578289 52.59410952 121.42578125 52.140625 C119.66355135 51.55421233 117.91285005 50.93305365 116.16796875 50.296875 C97.36103249 43.62685047 77.7811713 40.14892032 58.125 37.0625 C56.89280228 36.86891403 56.89280228 36.86891403 55.63571167 36.67141724 C53.25786733 36.30074478 50.87923553 35.93584652 48.5 35.57421875 C47.80290421 35.46719635 47.10580841 35.36017395 46.3875885 35.24990845 C36.16614201 33.72631183 26.15405124 33.21595802 15.81640625 33.20703125 C14.44131946 33.20380549 13.06623298 33.20044051 11.69114685 33.19694519 C8.81760873 33.19099087 5.94410049 33.18910121 3.07055664 33.18969727 C0.16456834 33.18977816 -2.74126109 33.18289021 -5.6472168 33.16918945 C-21.49073217 33.09565247 -37.15413066 33.13687967 -52.875 35.375 Z " fill="#2BB5E9" transform="translate(513.875,79.625)"/>
<path d="M0 0 C0.33 0 0.66 0 1 0 C1 162.69 1 325.38 1 493 C-163.01 493 -327.02 493 -496 493 C-496 492.67 -496 492.34 -496 492 C-495.32050293 491.96559814 -494.64100586 491.93119629 -493.94091797 491.89575195 C-463.35421009 490.26233362 -432.95221471 486.46522551 -403 480 C-401.92363281 479.77199707 -400.84726562 479.54399414 -399.73828125 479.30908203 C-384.51323853 476.05836585 -369.7057089 472.10708842 -355 467 C-353.76862305 466.57444824 -352.53724609 466.14889648 -351.26855469 465.71044922 C-332.08992181 459.05063278 -313.35334843 451.7180365 -295 443 C-294.10151337 442.57364258 -294.10151337 442.57364258 -293.18487549 442.13867188 C-253.40833215 423.21946158 -216.64844608 399.43112078 -183 371 C-182.35095703 370.45537109 -181.70191406 369.91074219 -181.03320312 369.34960938 C-174.70476412 364.03629054 -168.51889589 358.70384545 -162.76171875 352.765625 C-161.05371263 351.05383172 -159.28450387 349.49701712 -157.4375 347.9375 C-148.58061117 340.31073462 -140.12263666 331.79637391 -132.5859375 322.86328125 C-130.69808593 320.64528815 -128.72297208 318.51757845 -126.75 316.375 C-121.7081828 310.78053841 -117.10880303 304.89102233 -112.50976562 298.93359375 C-110.99170863 296.98938104 -109.44534367 295.07123185 -107.890625 293.15625 C-90.83595443 271.9759831 -76.16515874 248.75927023 -63 225 C-62.55011719 224.19127441 -62.10023438 223.38254883 -61.63671875 222.54931641 C-23.66787927 153.76664156 -5.90269441 77.72738561 0 0 Z " fill="#FBFCFC" transform="translate(1023,531)"/>
<path d="M0 0 C161.37 0 322.74 0 489 0 C489 160.71 489 321.42 489 487 C488.67 487 488.34 487 488 487 C487.90295776 485.79730469 487.90295776 485.79730469 487.80395508 484.5703125 C480.37649831 394.59926535 453.60149628 308.99712447 372 190 C371.54947266 189.46600586 371.09894531 188.93201172 370.63476562 188.38183594 C364.11029299 180.65090208 357.449347 173.07274301 350.55273438 165.67041016 C348.80480998 163.79001728 347.06679976 161.90066596 345.328125 160.01171875 C339.32178855 153.51288548 333.33264641 147.13378596 326.640625 141.328125 C324.56538947 139.49847947 322.54949327 137.64131987 320.546875 135.734375 C312.92246345 128.47606254 305.11927626 121.74713578 296.75488281 115.36083984 C294.97713541 113.98226944 293.23170376 112.57097318 291.4921875 111.14453125 C239.2413321 68.32973737 174.39238927 35.30058066 108.79418945 18.7199707 C106.69985873 18.18033057 104.61061944 17.62086511 102.52416992 17.05151367 C94.05015465 14.73922508 85.56432754 12.73031103 76.9375 11.0625 C76.29491241 10.93782349 75.65232483 10.81314697 74.99026489 10.68469238 C50.26280641 5.92925319 25.10179938 2.88968602 0 1 C0 0.67 0 0.34 0 0 Z " fill="#FCFCFC" transform="translate(535,0)"/>
<path d="M0 0 C162.69 0 325.38 0 493 0 C493 0.33 493 0.66 493 1 C492.02619385 1.05160278 492.02619385 1.05160278 491.03271484 1.10424805 C459.6736789 2.85425481 428.59415345 6.82128452 398 14 C396.91879883 14.24943359 395.83759766 14.49886719 394.72363281 14.75585938 C357.85805125 23.38185109 322.81913616 36.87354862 288.90429688 53.57568359 C286.23059809 54.88691079 283.54737705 56.1754565 280.859375 57.45703125 C248.00758603 73.27346705 216.82081509 94.45286433 189 118 C187.96926194 118.85738666 186.9379844 119.71412505 185.90625 120.5703125 C178.63731242 126.62848767 171.62874819 132.92490257 164.72412109 139.39355469 C162.91597906 141.07828629 161.09410277 142.74714676 159.26953125 144.4140625 C151.63336014 151.41713767 144.42924902 158.64480622 137.50341797 166.34814453 C135.94141854 168.0643654 134.35252536 169.75146114 132.75390625 171.43359375 C125.81610993 178.74767733 119.39550724 186.28879271 113.29101562 194.31054688 C112.04498312 195.94113404 110.78357846 197.55829873 109.515625 199.171875 C92.0701238 221.50656125 76.95266417 245.35610133 63 270 C62.58830566 270.72123047 62.17661133 271.44246094 61.75244141 272.18554688 C44.29378845 302.99402922 30.89567515 337.0783388 21 371 C20.75475586 371.82870605 20.50951172 372.65741211 20.25683594 373.51123047 C8.97277759 412.22411507 3.09021374 452.81011792 1 493 C0.67 493 0.34 493 0 493 C0 330.31 0 167.62 0 0 Z " fill="#FBFBFB" transform="translate(0,0)"/>
<path d="M0 0 C0.33 0 0.66 0 1 0 C1.04487549 0.60134766 1.08975098 1.20269531 1.13598633 1.82226562 C2.24275698 16.4101368 3.75343701 30.89355821 5.66943359 45.39648438 C5.95203474 47.62222929 6.20243941 49.84583748 6.42578125 52.078125 C9.6891417 83.0635677 18.26643593 115.76880955 29 145 C29.60932373 146.6720752 29.60932373 146.6720752 30.23095703 148.37792969 C35.58271446 162.98715124 41.18471166 177.4393383 47.83007812 191.51611328 C49.08455311 194.17951656 50.31555737 196.85316256 51.546875 199.52734375 C66.6082323 231.94050786 85.63215199 263.08518749 108 291 C108.7420166 291.9290918 108.7420166 291.9290918 109.49902344 292.87695312 C124.2550633 311.31065215 139.77821626 328.8209772 156.4375 345.5625 C157.07526367 346.20493652 157.71302734 346.84737305 158.37011719 347.50927734 C162.17516289 351.30144809 166.10163791 354.89705145 170.16723633 358.40795898 C172.53810114 360.46742474 174.82832469 362.60840566 177.125 364.75 C182.93426734 370.04574095 189.04512365 374.88123223 195.27539062 379.66943359 C196.88455169 380.9109296 198.48182898 382.16778654 200.078125 383.42578125 C266.51614141 435.4688941 345.16161514 469.58473903 428.1875 483.8125 C429.04223907 483.9597049 429.89697815 484.10690979 430.77761841 484.25857544 C448.17156279 487.229979 465.51264536 489.11940063 483.125 490.125 C484.58466051 490.21181875 486.0442961 490.29905741 487.50390625 490.38671875 C491.00233299 490.59594401 494.50105311 490.79963681 498 491 C498 491.33 498 491.66 498 492 C333.66 492 169.32 492 0 492 C0 329.64 0 167.28 0 0 Z " fill="#FBFBFB" transform="translate(0,532)"/>
<path d="M0 0 C-0.13277344 1.03253906 -0.26554687 2.06507813 -0.40234375 3.12890625 C-1.94833858 15.73358619 -2.58261286 28.31210958 -3 41 C-3.67836914 41.17668213 -4.35673828 41.35336426 -5.05566406 41.53540039 C-6.39709473 41.90652954 -6.39709473 41.90652954 -7.765625 42.28515625 C-8.65024414 42.52371338 -9.53486328 42.76227051 -10.44628906 43.00805664 C-18.85756899 46.27526795 -22.5452476 56.34415161 -26 64 C-27.67300049 68.30295727 -29.20387542 72.64323664 -30.67016602 77.02075195 C-31.3210595 78.96304185 -31.98470639 80.90062555 -32.65039062 82.83789062 C-37.61214214 96.71154434 -37.61214214 96.71154434 -35.8125 110.9375 C-31.93122888 115.35411886 -27.53393672 116.46279536 -22 118 C-21.01 118.66 -20.02 119.32 -19 120 C-16.58995363 120.3539686 -16.58995363 120.3539686 -14 120.3125 C-12.700625 120.33763672 -12.700625 120.33763672 -11.375 120.36328125 C-8.95398164 120.1833451 -8.95398164 120.1833451 -7.21484375 118.66796875 C-5.31176966 116.05506638 -5.54395023 114.12719841 -6 111 C-7.7848335 108.76895812 -9.11532418 108.11214201 -11.94140625 107.75390625 C-15.80637334 107.6329036 -17.73991362 107.82660908 -21 110 C-24.01440049 109.81159997 -26.23740157 109.43213911 -28.875 107.9375 C-31.19758471 103.937493 -30.19162984 98.85607501 -29.22265625 94.52734375 C-26.55378963 86.26913356 -23.64155165 78.1146718 -20.5625 70 C-20.20357666 69.03312256 -19.84465332 68.06624512 -19.47485352 67.07006836 C-16.7218533 59.98610635 -13.54637172 53.8574269 -7.546875 49.0234375 C-0.32689017 46.12215525 8.77439009 47.42861623 16.03515625 49.7578125 C28.99608615 57.95179999 32.96982227 80.38370694 37 94 C37.20681396 94.69843018 37.41362793 95.39686035 37.62670898 96.11645508 C39.59275468 102.86686813 39.59275468 102.86686813 39 106 C36.875 108.375 36.875 108.375 34 110 C30.91324488 109.81842617 28.75635635 109.37817818 26 108 C20.77663415 107.51510419 20.77663415 107.51510419 16 109.125 C14.55344567 111.83728937 14.74780617 113.973674 15 117 C15.33 117.99 15.66 118.98 16 120 C17.93719378 120.05406122 19.87481921 120.09282025 21.8125 120.125 C22.89144531 120.14820313 23.97039062 120.17140625 25.08203125 120.1953125 C28.19402868 120.23023717 28.19402868 120.23023717 31 118 C32.44842978 117.53075215 33.90814445 117.09551613 35.375 116.6875 C39.65914558 115.31294515 42.14231401 113.57210749 45 110 C47.3698366 102.8904902 45.28421383 96.95706696 42.9375 90.1875 C42.35663821 88.49575592 41.78207735 86.80183089 41.21484375 85.10546875 C40.82993774 83.99401489 40.82993774 83.99401489 40.43725586 82.86010742 C40 81 40 81 41 79 C47.95763446 88.08880177 54.65016322 97.3026838 61.06665039 106.78173828 C64.82559932 112.32141864 68.68483053 117.77539788 72.625 123.1875 C77.72588687 130.19460065 82.6831976 137.28637236 87.5625 144.44921875 C87.96315674 145.03227783 88.36381348 145.61533691 88.77661133 146.21606445 C89.63290212 147.46470081 90.48104377 148.71894694 91.32299805 149.97729492 C93.83338598 153.85503131 93.83338598 153.85503131 97.8125 155.9375 C98.534375 155.958125 99.25625 155.97875 100 156 C104.52169407 150.91731847 108.41261267 145.65280865 112.1875 140 C117.51817622 132.11127116 123.04483912 124.40518629 128.70898438 116.75439453 C135.04508513 108.1441033 141.1565451 99.36683698 147.30810547 90.62451172 C151.72128705 84.36553431 156.20655063 78.1597758 160.72387695 71.97558594 C162.16450745 69.99407133 163.5860587 68.00060528 165 66 C165.63808594 65.10796875 166.27617188 64.2159375 166.93359375 63.296875 C168.17076153 61.06475528 168.17076153 61.06475528 167.97265625 58.63671875 C166.62980592 54.99646183 164.61643113 52.00581866 162.4375 48.8125 C158 42.24715478 158 42.24715478 158 40 C162.19788308 38.30599037 166.39712698 36.6154159 170.59765625 34.92797852 C172.02576799 34.35372079 173.4535066 33.77853417 174.88085938 33.20239258 C176.93521765 32.37335315 178.99090458 31.54768816 181.046875 30.72265625 C181.68244324 30.46533218 182.31801147 30.20800812 182.97283936 29.94288635 C185.98350072 28.73839453 188.8419993 27.78950017 192 27 C192 35.25 192 43.5 192 52 C189.36 52.99 186.72 53.98 184 55 C179.67691028 57.75105709 176.55377152 61.07279941 175 66 C174.17387661 73.01787644 173.90696919 80.11178242 177.6640625 86.3203125 C181.76992362 91.48265251 186.52442084 95.41448516 193.1796875 96.28515625 C200.11501437 96.70646115 205.27489206 94.88453149 211 91 C215.31423889 87.14042328 217.67332144 82.68564161 218.37109375 76.94921875 C218.52108631 69.58193712 218.01893412 64.58581097 213 59 C210.30344558 56.37440754 207.76479122 54.82790453 204.3359375 53.39453125 C203.23507812 52.93433594 202.13421875 52.47414063 201 52 C200.98018066 51.36199463 200.96036133 50.72398926 200.93994141 50.06665039 C200.39027456 33.15604345 199.37300622 16.61384977 196 0 C202.66752554 1.10106636 208.73167695 3.98374587 214.9375 6.5625 C215.59206177 6.83422028 216.24662354 7.10594055 216.92102051 7.38589478 C234.73048908 14.81216187 250.15650596 21.7544805 258.5078125 40.33984375 C262.62576234 50.44067883 264.84163585 61.14493666 267.16796875 71.7734375 C267.30485107 72.39653809 267.4417334 73.01963867 267.58276367 73.66162109 C274.27799799 111.1847073 269 149.88427934 269 188 C156.8 188 44.6 188 -71 188 C-71 47.65895954 -71 47.65895954 -51 25 C-40.35092283 15.08317764 -14.91711239 0 0 0 Z " fill="#FAFBFB" transform="translate(413,552)"/>
<path d="M0 0 C1.07314453 -0.02900391 2.14628906 -0.05800781 3.25195312 -0.08789062 C11.98764154 -0.15659235 19.63107092 1.24904147 26.79296875 6.49609375 C31.35268223 9.23900031 35.89132312 9.12354211 41.125 9.375 C48.50962223 9.76265677 54.92437842 10.53473131 61.8125 13.3125 C62.69679688 13.66570312 63.58109375 14.01890625 64.4921875 14.3828125 C83.24159441 23.39053468 94.05257096 40.165292 101.28125 59.03515625 C110.48161442 85.26180483 112.24125483 112.48278464 112.4375 140.0625 C112.48640296 144.97403061 112.54228554 149.88545921 112.6015625 154.796875 C112.6156163 155.97003769 112.6296701 157.14320038 112.64414978 158.35191345 C112.64008935 177.69630903 112.64008935 177.69630903 115.5 196.75 C115.67297607 197.4824292 115.84595215 198.2148584 116.02416992 198.96948242 C118.53830307 208.93095654 121.79398321 216.90138992 130.8125 222.3125 C130.8125 222.9725 130.8125 223.6325 130.8125 224.3125 C125.05000637 228.93958705 118.35025204 232.15746677 111.625 235.125 C110.97273437 235.41463623 110.32046875 235.70427246 109.6484375 236.00268555 C103.899814 238.45842926 97.12572008 241.29894064 90.8125 240.3125 C88.8125 238.7734375 88.8125 238.7734375 86.8125 236.6875 C79.49103519 229.79241001 70.04250822 226.55169633 60.640625 223.3671875 C58.8125 222.3125 58.8125 222.3125 58.0859375 220.69140625 C56.83171553 209.77967508 56.13772946 201.88131897 63.18017578 192.91845703 C63.59251465 192.40395996 64.00485352 191.88946289 64.4296875 191.359375 C68.69851803 185.90087038 71.64839578 179.63100544 73.9375 173.10546875 C76.45381008 166.01960947 78.61080349 163.14331385 85.3125 159.72265625 C93.56121512 155.06986538 97.01018397 146.6608891 99.89453125 138.1015625 C100.95515516 133.72366807 101.1800205 129.73396274 101.1875 125.25 C101.21199219 124.47333984 101.23648438 123.69667969 101.26171875 122.89648438 C101.28877748 117.57042377 100.43127886 114.46853784 96.8125 110.3125 C92.83534371 107.14460855 88.65632216 106.60930642 83.75 105.9375 C63.07444398 102.67130688 46.52650986 90.69628924 33.8125 74.3125 C31.93173385 71.14887726 30.17318546 67.96941436 28.515625 64.68359375 C27.01149384 62.09616668 27.01149384 62.09616668 24.234375 61.47265625 C22.76266462 61.37533347 21.2874248 61.3125 19.8125 61.3125 C19.54695312 62.04855469 19.28140625 62.78460938 19.0078125 63.54296875 C11.58920763 80.73182774 -7.81304873 92.23957291 -24.32910156 99.21728516 C-35.02761343 103.46360172 -45.25950681 106.19636919 -56.828125 106.46875 C-57.85083496 106.49670654 -58.87354492 106.52466309 -59.92724609 106.5534668 C-61.98184539 106.60034404 -64.03715357 106.62350778 -66.09228516 106.62036133 C-72.38420943 106.71520112 -72.38420943 106.71520112 -77.765625 109.66015625 C-82.7354634 115.10293088 -83.76265133 120.01803608 -83.53515625 127.21875 C-82.08594946 140.11506209 -77.26840361 151.32114593 -67.41015625 159.83984375 C-65.09336333 161.51895474 -65.09336333 161.51895474 -61.64453125 162.453125 C-57.40777759 164.73187612 -56.94181931 166.21804026 -55.5402832 170.62280273 C-55.30011475 171.44852783 -55.05994629 172.27425293 -54.8125 173.125 C-51.63711103 182.82300932 -47.48436751 192.28277885 -39.94140625 199.4453125 C-38.1875 201.3125 -38.1875 201.3125 -37.8125 205.25 C-38.0766869 211.32629859 -39.15157279 217.32817051 -40.1875 223.3125 C-41.425 223.704375 -42.6625 224.09625 -43.9375 224.5 C-45.69053024 225.095317 -47.44027587 225.70035197 -49.1875 226.3125 C-50.12722656 226.64121094 -51.06695312 226.96992187 -52.03515625 227.30859375 C-57.97431897 229.57001408 -62.29043018 232.09788265 -67.125 236.25 C-71.45321526 239.61264713 -73.9344564 240.97069387 -79.4375 240.3125 C-91.16250812 237.43045364 -103.75457974 231.88681521 -113.1875 224.3125 C-113.1875 223.6525 -113.1875 222.9925 -113.1875 222.3125 C-111.61328125 221.33984375 -111.61328125 221.33984375 -109.5 220.25 C-102.60007872 216.03202692 -100.37438472 209.87744675 -98.5 202.25 C-95.59542865 186.24657712 -95.03429572 169.9843943 -94.9140625 153.75390625 C-94.90832151 153.03087248 -94.90258053 152.30783871 -94.89666557 151.56289482 C-94.84580101 144.82869525 -94.81411113 138.09449533 -94.80664062 131.36010742 C-94.7429403 91.70853561 -90.00013636 53.41558556 -61.6875 23.4375 C-44.86614512 7.62620338 -22.74047581 0.20124315 0 0 Z " fill="#FBFBFB" transform="translate(502.1875,285.6875)"/>
<path d="M0 0 C3.80037583 1.26679194 4.4072977 2.71451512 6.625 6 C19.29442442 23.79697731 37.81319118 34.97080801 59 40 C61.70365231 40.32728423 64.35265194 40.55318344 67.07421875 40.62890625 C67.70972656 40.75136719 68.34523438 40.87382812 69 41 C72.54007932 46.31011898 71.75644208 53.77808027 71 60 C68.85041887 67.77617397 65.60967685 74.7272405 58.625 79.125 C56.41342441 80.3093983 54.37222571 81.22065737 51.98828125 82.05859375 C47.67094971 84.86344836 47.03262664 88.16074201 45.5625 92.9375 C38.95030272 112.43999414 27.45023202 128.44105571 8.8125 137.875 C-2.16330615 143.26882474 -14.1077338 145.01201144 -26.125 142.0625 C-43.41375065 135.77831425 -57.86806309 121.17125495 -66 105 C-68.68429089 99.08978531 -71.24830851 93.04690482 -72.8046875 86.73828125 C-74.41158832 83.05711304 -76.07737271 82.59587809 -79.75 81.125 C-88.24433976 77.21313301 -91.77413673 71.55765245 -95.25390625 63.08203125 C-97.26754004 57.4628333 -97.82096361 50.92266603 -97 45 C-95.76342773 42.88354492 -95.76342773 42.88354492 -94 41 C-91.89379883 40.50170898 -91.89379883 40.50170898 -89.45703125 40.49609375 C-88.55629883 40.47981934 -87.65556641 40.46354492 -86.72753906 40.44677734 C-85.76557617 40.44371582 -84.80361328 40.4406543 -83.8125 40.4375 C-56.40567976 39.71158 -29.20848365 30.08156946 -9 11 C-5.73272315 7.54522112 -2.80541326 3.83703348 0 0 Z " fill="#FCFCFC" transform="translate(524,360)"/>
<path d="M0 0 C-0.39842559 1.60879422 -0.81953157 3.21198173 -1.25 4.8125 C-1.48203125 5.70582031 -1.7140625 6.59914063 -1.953125 7.51953125 C-3.51964188 11.23124102 -5.98590889 12.52372095 -9.57104492 14.20751953 C-10.53115479 14.59536621 -11.49126465 14.98321289 -12.48046875 15.3828125 C-13.55449951 15.82343018 -14.62853027 16.26404785 -15.73510742 16.71801758 C-16.87439697 17.18232178 -18.01368652 17.64662598 -19.1875 18.125 C-27.15412626 21.43831837 -35.04684036 24.7955259 -42.6875 28.8125 C-43.33807373 29.14846191 -43.98864746 29.48442383 -44.65893555 29.83056641 C-58.43213217 37.27524325 -64.52098473 49.8816434 -68.9765625 64.33984375 C-81.3941862 108.74943691 -75.55517483 152.84853218 -76 200 C36.2 200 148.4 200 264 200 C266.45296411 133.85124196 266.45296411 133.85124196 257.625 68.125 C257.41222412 67.33891357 257.19944824 66.55282715 256.98022461 65.74291992 C254.23071477 55.88654906 250.97435914 46.67681258 244 39 C243.47277344 38.41863281 242.94554687 37.83726562 242.40234375 37.23828125 C230.08133559 25.18806448 210.19716855 19.67848285 194.54345703 13.08813477 C190.07552083 11.17667463 190.07552083 11.17667463 188.9296875 8.49609375 C188.58164062 7.48675781 188.23359375 6.47742188 187.875 5.4375 C187.34519531 3.91962891 187.34519531 3.91962891 186.8046875 2.37109375 C186.53914063 1.58863281 186.27359375 0.80617188 186 0 C194.35698749 2.16920141 202.2199461 5.44003393 210.1394043 8.82324219 C212.29448985 9.74231923 214.45449679 10.64899206 216.61523438 11.5546875 C237.14776039 20.2319003 253.06326735 29.31072826 262.625 50.5 C264.61549675 55.58100485 266.18435727 60.74192587 267.625 66 C267.81916504 66.69158203 268.01333008 67.38316406 268.21337891 68.09570312 C272.83271358 85.88347193 273.44137279 103.66638628 273.36328125 121.9453125 C273.36276129 124.37816365 273.36328422 126.81101523 273.36479187 129.24386597 C273.36470296 134.29464136 273.35442715 139.34525442 273.33618164 144.39599609 C273.31327688 150.87917268 273.31299831 157.36211744 273.31969929 163.84532356 C273.32302965 168.84656858 273.31643047 173.84776028 273.30657005 178.84899521 C273.30271801 181.24209185 273.30156985 183.6351944 273.3031559 186.02829361 C273.30352474 189.34987135 273.29096479 192.67114375 273.2746582 195.99267578 C273.27837433 197.47763046 273.27837433 197.47763046 273.28216553 198.99258423 C273.27508072 199.8919873 273.26799591 200.79139038 273.26069641 201.7180481 C273.25864354 202.50140596 273.25659067 203.28476383 273.25447559 204.09185982 C273 206 273 206 271 208 C268.48404598 208.25069833 268.48404598 208.25069833 265.23094177 208.25168228 C263.99507104 208.25689778 262.75920031 208.26211327 261.48587894 208.26748681 C260.10183213 208.26316203 258.71778589 208.25864869 257.33374023 208.25396729 C255.87325859 208.25626965 254.41277811 208.25944466 252.95230007 208.26342177 C248.92449164 208.27180923 244.89677737 208.26762669 240.86896849 208.26144934 C236.53081324 208.25694192 232.19267468 208.26390007 227.85452271 208.26940918 C219.35035222 208.27832319 210.84621696 208.27637226 202.34204507 208.2705839 C195.43325781 208.26607528 188.52448045 208.26545103 181.61569214 208.26763153 C180.63406269 208.267938 179.65243323 208.26824446 178.64105743 208.26856022 C176.64717396 208.26919964 174.65329049 208.26984806 172.65940702 208.2705054 C153.94318716 208.27621457 135.22698686 208.2696416 116.5107702 208.25890467 C100.43588127 208.24996862 84.36102122 208.2515205 68.28613281 208.26074219 C49.63891785 208.27143446 30.99172005 208.2756652 12.34450245 208.26951766 C10.35777092 208.26888053 8.37103939 208.26825179 6.38430786 208.26763153 C4.91787241 208.2671687 4.91787241 208.2671687 3.421812 208.26669653 C-3.48223408 208.26496645 -10.38626932 208.2678914 -17.29031372 208.27259064 C-25.69893295 208.27818791 -34.10751481 208.27670743 -42.51612973 208.26602915 C-46.80997732 208.26075683 -51.10376252 208.25874208 -55.39760971 208.26532745 C-59.32304222 208.27125694 -63.2483541 208.26806188 -67.17377555 208.25737235 C-68.59904354 208.25512549 -70.02432157 208.25630311 -71.44958317 208.26112393 C-73.37669587 208.26714564 -75.30383683 208.25981485 -77.23094177 208.25168228 C-78.30446616 208.25135758 -79.37799055 208.25103287 -80.48404598 208.25069833 C-83 208 -83 208 -85 206 C-85.26006222 204.09858894 -85.26006222 204.09858894 -85.27415466 201.73391724 C-85.28412979 200.83766129 -85.29410492 199.94140533 -85.30438232 199.01799011 C-85.305047 198.03123795 -85.30571167 197.04448578 -85.30639648 196.02783203 C-85.31472 194.98986984 -85.32304352 193.95190765 -85.33161926 192.88249207 C-85.3558498 189.42422784 -85.3645174 185.96615287 -85.37109375 182.5078125 C-85.38006666 180.08910061 -85.38918862 177.67038926 -85.39845276 175.25167847 C-85.41499187 170.15540219 -85.42264894 165.05919184 -85.42553711 159.96289062 C-85.43085496 153.5129393 -85.46823556 147.06363425 -85.51428127 140.61386299 C-85.54445564 135.59951708 -85.55126965 130.58531719 -85.55226326 125.57088852 C-85.5564043 123.19924916 -85.56858384 120.82760675 -85.58978081 118.4560585 C-85.831148 89.05121826 -82.88534692 52.7323319 -61.4375 30.33203125 C-51.16150011 20.50066597 -38.93017947 15.51395312 -26 10 C-24.35813721 9.29713867 -24.35813721 9.29713867 -22.68310547 8.58007812 C-19.37581819 7.16930068 -16.06451037 5.76871728 -12.75 4.375 C-11.7081958 3.93687988 -10.6663916 3.49875977 -9.59301758 3.04736328 C-8.62904053 2.64759277 -7.66506348 2.24782227 -6.671875 1.8359375 C-5.8169043 1.48063965 -4.96193359 1.1253418 -4.08105469 0.75927734 C-2 0 -2 0 0 0 Z " fill="#223854" transform="translate(418,540)"/>
<path d="M0 0 C1.03382813 -0.01224609 2.06765625 -0.02449219 3.1328125 -0.03710938 C11.8993066 -0.05367076 20.01429138 0.3720559 27.5625 5.1875 C34.08388272 8.67568145 40.22455399 8.99605158 47.45581055 9.50878906 C64.283909 10.75945467 77.36205499 17.33821498 89.25 29.1875 C90.39275391 30.29544922 90.39275391 30.29544922 91.55859375 31.42578125 C109.35718429 49.77961378 115.72543403 76.05294142 119.9375 100.5 C120.11684082 101.53846069 120.11684082 101.53846069 120.29980469 102.59790039 C122.06147147 113.4627888 122.39644361 124.34391734 122.4609375 135.33203125 C122.4739669 136.67226423 122.48778966 138.01248969 122.50234985 139.35270691 C122.56287549 144.96675921 122.6174574 150.58078634 122.65136719 156.19506836 C121.26453705 189.01599543 121.26453705 189.01599543 131.25 219.1875 C135.27112565 222.90953366 140.00054869 224.74390089 145.25 226.1875 C145.92578125 228.4453125 145.92578125 228.4453125 146.25 231.1875 C138.92155578 244.68030343 118.9348535 252.63481168 105.02734375 256.86328125 C102.9375 257.3125 102.9375 257.3125 99.25 257.1875 C96.88398342 255.39715656 95.86972659 253.76893926 94.25 251.1875 C94.25 250.5275 94.25 249.8675 94.25 249.1875 C95.219375 248.919375 96.18875 248.65125 97.1875 248.375 C108.9400315 244.98882774 120.40461515 240.59454187 130.25 233.1875 C130.91 233.1875 131.57 233.1875 132.25 233.1875 C131.693125 232.630625 131.13625 232.07375 130.5625 231.5 C129.799375 230.736875 129.03625 229.97375 128.25 229.1875 C127.445625 228.48625 126.64125 227.785 125.8125 227.0625 C120.25972411 220.83255632 117.88783868 213.74776172 116 205.75 C115.83685303 205.09040283 115.67370605 204.43080566 115.50561523 203.7512207 C112.70819502 190.80924417 113.19944005 177.0188633 113.07421875 163.84765625 C113.05613663 162.07368217 113.05613663 162.07368217 113.03768921 160.26387024 C112.98974183 155.3789497 112.94208893 150.49426688 112.92407227 145.60913086 C112.76905157 110.1809405 109.44623395 70.42270878 87.25 41.1875 C86.79496094 40.53910156 86.33992187 39.89070313 85.87109375 39.22265625 C78.85266252 29.98346768 66.58973799 22.79563163 55.375 20.5625 C54.73151611 20.43335205 54.08803223 20.3042041 53.42504883 20.17114258 C48.57959328 19.26521492 43.8557059 19.00770329 38.9375 18.875 C32.76250379 18.67733497 28.54793962 17.38614482 23.55859375 13.66015625 C16.97512212 9.46054744 9.74492045 9.83605004 2.1875 9.875 C0.51349121 9.88237183 0.51349121 9.88237183 -1.19433594 9.88989258 C-23.93415122 10.21243142 -45.52991942 18.83569851 -61.71484375 34.93359375 C-89.44979332 63.92962091 -92.32945271 104.45790014 -92.37164307 142.4909668 C-92.38161826 149.20372943 -92.42290259 155.91636368 -92.4765625 162.62890625 C-92.48202087 163.3464464 -92.48747925 164.06398655 -92.49310303 164.80327034 C-92.93100312 215.42662933 -92.93100312 215.42662933 -104.75 228.1875 C-108.75 231.1875 -108.75 231.1875 -111.75 231.1875 C-111.75 231.8475 -111.75 232.5075 -111.75 233.1875 C-111.03714844 233.44917969 -110.32429688 233.71085938 -109.58984375 233.98046875 C-106.61440112 235.24513419 -104.05203705 236.78636448 -101.3125 238.5 C-92.67622944 243.61778996 -83.36163919 246.49526646 -73.75 249.1875 C-74.82401108 252.10267292 -75.52810176 253.96560176 -77.75 256.1875 C-83.10017352 256.66543113 -87.44121699 255.61541447 -92.375 253.6875 C-93.06940186 253.41977783 -93.76380371 253.15205566 -94.47924805 252.8762207 C-105.20193242 248.57169039 -117.19199573 242.00264727 -124.75 233.1875 C-125.16796875 230.01953125 -125.16796875 230.01953125 -124.75 227.1875 C-121.52811685 224.46903609 -117.58149587 223.32697725 -113.6171875 222.03125 C-111.34564211 221.00477761 -110.27142394 220.17902685 -108.75 218.1875 C-107.54474718 215.08836022 -107.54474718 215.08836022 -106.625 211.5625 C-106.29242188 210.39460937 -105.95984375 209.22671875 -105.6171875 208.0234375 C-104.01360322 200.93010524 -103.57218519 193.70388423 -103.21875 186.453125 C-103.17721802 185.60888977 -103.13568604 184.76465454 -103.09289551 183.89483643 C-102.46191903 169.96589101 -102.38637376 156.01641325 -102.19775391 142.07617188 C-101.65112123 102.61831991 -101.65112123 102.61831991 -97.75 85.1875 C-97.47285156 83.94097656 -97.19570313 82.69445312 -96.91015625 81.41015625 C-92.57009786 63.65875861 -84.4523818 47.24624375 -72.75 33.1875 C-72.24210937 32.53394531 -71.73421875 31.88039063 -71.2109375 31.20703125 C-54.27083556 10.30311236 -26.2204909 0.01610595 0 0 Z " fill="#253A56" transform="translate(500.75,276.8125)"/>
<path d="M0 0 C0.22324951 0.61029053 0.44649902 1.22058105 0.67651367 1.84936523 C11.0700106 30.25040817 21.52430128 58.6291882 32 87 C32.40142212 88.08720337 32.80284424 89.17440674 33.21643066 90.29455566 C35.41236954 96.24018318 37.61182459 102.18448968 39.81655884 108.12686157 C40.46485927 109.87505776 41.1123426 111.62355725 41.75888062 113.37240601 C45.52109373 123.54536506 49.40753179 133.6533406 53.5214386 143.69013977 C53.84525009 144.4867955 54.16906158 145.28345123 54.50268555 146.10424805 C54.79209518 146.80954147 55.08150482 147.5148349 55.37968445 148.24150085 C56 150 56 150 56 152 C58.31 152 60.62 152 63 152 C63.1549292 151.44335663 63.3098584 150.88671326 63.46948242 150.3132019 C65.68155489 142.63947148 68.46859873 135.21545835 71.3125 127.7578125 C71.83985868 126.36666686 72.36683676 124.97537688 72.89346313 123.58395386 C74.01206584 120.62972313 75.13241211 117.67616289 76.25421143 114.72314453 C79.20776728 106.94668317 82.14814458 99.16524031 85.0859375 91.3828125 C85.52823763 90.2113908 85.52823763 90.2113908 85.97947311 89.01630402 C92.40054364 72.00252431 98.66339069 54.93350438 104.859375 37.83642578 C109.45038302 25.17610039 114.16266721 12.56837676 119 0 C119.7213916 0.14453613 120.4427832 0.28907227 121.18603516 0.43798828 C122.95384462 0.79105937 124.72974762 1.1076119 126.51318359 1.37060547 C129.63730569 2.14419182 131.49623556 2.94255425 134 5 C136.46592593 10.51853481 137.51251868 16.20976762 138.625 22.125 C138.96089836 23.72869602 139.30070487 25.33157875 139.64453125 26.93359375 C142 38.0899596 142 38.0899596 142 41 C141.45698242 41.21615967 140.91396484 41.43231934 140.35449219 41.6550293 C135.98153169 43.39690364 131.61179106 45.14624466 127.24609375 46.90625 C124.18948789 48.13569822 121.12877196 49.33580786 118.03515625 50.46875 C116.97167969 50.8709375 115.90820312 51.273125 114.8125 51.6875 C113.89082031 52.02136719 112.96914063 52.35523438 112.01953125 52.69921875 C109.83696916 53.85958442 109.83696916 53.85958442 108.9296875 56.17578125 C109.03462892 60.39092829 111.03664071 63.04343175 113.3125 66.5 C114.90346922 68.9835841 116.46124113 71.48382898 118 74 C118.79664063 75.23169922 118.79664063 75.23169922 119.609375 76.48828125 C120.17249283 80.1091289 118.67534389 81.6873731 116.57080078 84.56762695 C116.03181152 85.26718506 115.49282227 85.96674316 114.9375 86.6875 C114.38819824 87.43153076 113.83889648 88.17556152 113.27294922 88.94213867 C112.11043423 90.51583525 110.94064152 92.08417797 109.76416016 93.64746094 C107.00057817 97.33274685 104.3163806 101.07435645 101.625 104.8125 C101.08866943 105.55266357 100.55233887 106.29282715 99.99975586 107.05541992 C95.94029515 112.66265902 91.95837524 118.32106852 88 124 C81.43898276 133.41093629 74.74710907 142.7218606 68 152 C67.1366718 153.18876799 66.27338722 154.37756766 65.41015625 155.56640625 C63.60855887 158.04558155 61.80545609 160.52363424 60 163 C56.38543898 161.79514633 55.91464053 160.80241457 53.84765625 157.6875 C53.24228027 156.78547852 52.6369043 155.88345703 52.01318359 154.95410156 C51.36945801 153.97924805 50.72573242 153.00439453 50.0625 152 C48.70291731 149.97322378 47.34222855 147.9471891 45.98046875 145.921875 C45.3054834 144.91447266 44.63049805 143.90707031 43.93505859 142.86914062 C41.29858707 138.96000445 38.60117801 135.09693496 35.875 131.25 C35.39200439 130.56760254 34.90900879 129.88520508 34.41137695 129.18212891 C31.41587206 124.96298146 28.38816592 120.76786749 25.34936523 116.57983398 C19.6053036 108.66125352 13.92829792 100.69764013 8.3125 92.6875 C7.61672852 91.70249512 6.92095703 90.71749023 6.20410156 89.70263672 C5.55538086 88.77338379 4.90666016 87.84413086 4.23828125 86.88671875 C3.66118408 86.06389404 3.08408691 85.24106934 2.48950195 84.39331055 C0.94890639 81.91790352 -0.24583107 79.82309076 -1 77 C-0.20141602 74.859375 -0.20141602 74.859375 1.24609375 72.75 C1.75333984 71.9765625 2.26058594 71.203125 2.78320312 70.40625 C3.32912109 69.6121875 3.87503906 68.818125 4.4375 68 C5.51212898 66.4257516 6.57392754 64.84264823 7.62109375 63.25 C8.0998999 62.55390625 8.57870605 61.8578125 9.07202148 61.140625 C10.16148158 58.99514541 10.16148158 58.99514541 10.06054688 56.42675781 C8.76151824 53.45430279 7.31702111 52.8058388 4.36402893 51.62957764 C3.39686195 51.27926483 3.39686195 51.27926483 2.41015625 50.921875 C1.42057167 50.53651581 1.42057167 50.53651581 0.41099548 50.14337158 C-1.69845952 49.3266515 -3.81719168 48.53805794 -5.9375 47.75 C-7.36203782 47.20497633 -8.78587665 46.65812193 -10.20898438 46.109375 C-12.81342633 45.10657917 -15.42188488 44.11592757 -18.03491211 43.13574219 C-21 42 -21 42 -23 41 C-21.59063986 32.7915135 -19.94933274 24.66008362 -18 16.5625 C-17.75894531 15.40556641 -17.51789063 14.24863281 -17.26953125 13.05664062 C-15.2514936 4.89448363 -15.2514936 4.89448363 -11.66015625 2.32763672 C-7.57224534 0.61758735 -4.45261919 0 0 0 Z " fill="#F7F8F8" transform="translate(452,533)"/>
<path d="M0 0 C1 2 1 2 0.6015625 4.13671875 C-1.23125084 8.9240272 -3.12531622 11.84011343 -7.83984375 13.96875 C-10.08323091 14.86785458 -12.34460398 15.69919057 -14.61547852 16.52612305 C-22.326195 19.35630175 -28.36333685 23.31682279 -32.20703125 30.88671875 C-33.60256151 34.60584126 -34.39561256 38.43805514 -35.20703125 42.3203125 C-35.77360246 44.9494262 -36.38268876 47.5219803 -37.07421875 50.1171875 C-37.25855469 50.81465088 -37.44289063 51.51211426 -37.6328125 52.23071289 C-37.99182188 53.57810418 -38.35729214 54.92379752 -38.73046875 56.26733398 C-39.97095636 61.00214436 -40.15605623 65.15149451 -40 70 C-30.4105414 75.24896681 -20.16308375 79.03092377 -10 83 C-10.99659904 87.52440441 -13.3186579 90.66855905 -15.91796875 94.46484375 C-17.26578844 96.9063765 -17.26578844 96.9063765 -16.421875 99.21484375 C-15.95265625 100.13394531 -15.4834375 101.05304688 -15 102 C-14.37549337 103.48752442 -13.76351554 104.98033558 -13.16015625 106.4765625 C-12.82072998 107.30687988 -12.48130371 108.13719727 -12.1315918 108.99267578 C-9.23831282 116.11652459 -6.39418607 123.125872 -4.5859375 130.6171875 C-3.9486831 133.20868873 -3.13806341 135.71271795 -2.3125 138.25 C-0.67460115 143.76484028 0.04966514 148.37309507 -2.5625 153.6875 C-6.10269871 159.2667531 -11.87128099 161.14713146 -18 163 C-18.66 163.33 -19.32 163.66 -20 164 C-24.59539817 164.48836113 -28.62240148 164.85279908 -32.625 162.375 C-34.42208081 159.27095134 -34.58890625 157.53343747 -34 154 C-32.5 151.625 -32.5 151.625 -30 150 C-24.78492028 149.50332574 -21.81669059 150.0472876 -17 152 C-13.62067741 151.68564441 -12.42520546 151.42520546 -10 149 C-11.29550478 133.82408683 -18.04016297 105.51751229 -29.99609375 95.29296875 C-36.79420522 90.90666291 -45.20945387 91.27899994 -53 92 C-59.69819114 94.70277888 -62.20156207 101.05964828 -65.07250977 107.34985352 C-66.08369172 109.74152951 -67.05245371 112.14491969 -68 114.5625 C-68.3403125 115.42584961 -68.680625 116.28919922 -69.03125 117.17871094 C-75.36082386 132.62979694 -75.36082386 132.62979694 -77 149 C-75.4607536 151.21750908 -75.4607536 151.21750908 -73 152 C-70.30190224 151.74303831 -68.41649307 151.20824654 -66 150 C-61.43795404 149.62606181 -59.04336178 149.4348457 -55 151.625 C-53 154 -53 154 -52.4375 157 C-53 160 -53 160 -54.375 162.375 C-58.34472475 164.83244866 -62.44810038 164.80971291 -67 164 C-68.35847446 163.03443025 -69.69341755 162.03470772 -71 161 C-72.9478674 160.37351204 -72.9478674 160.37351204 -74.9375 160.0625 C-78.79986806 159.1922085 -81.15414748 157.84585252 -84 155 C-87.396707 149.25080334 -86.59369258 143.55499841 -85.125 137.234375 C-73.72018861 95.72720306 -73.72018861 95.72720306 -61 86 C-57.48196896 84.07345919 -54.94979406 83.94094992 -51 84 C-51.01571045 83.06486572 -51.01571045 83.06486572 -51.03173828 82.11083984 C-51.31650896 62.54817584 -51.27627254 42.91440881 -40 26 C-40.495 25.01 -40.495 25.01 -41 24 C-40.401875 23.773125 -39.80375 23.54625 -39.1875 23.3125 C-36.43648112 21.66188867 -35.47515363 19.8027919 -34 17 C-34.99 16.67 -35.98 16.34 -37 16 C-36.28585937 16.08507812 -35.57171875 16.17015625 -34.8359375 16.2578125 C-31.01100871 15.9100917 -29.53492649 14.34476954 -26.625 11.875 C-18.92893822 5.67011911 -9.79253944 1.63518685 0 0 Z " fill="#41B2E6" transform="translate(461,509)"/>
<path d="M0 0 C15.91277076 4.92687896 30.78879111 11.18738029 40 26 C40.3403125 26.69609375 40.680625 27.3921875 41.03125 28.109375 C41.96460976 30.16917698 41.96460976 30.16917698 44 32 C44.8515625 33.83984375 44.8515625 33.83984375 45.625 35.9375 C45.88539063 36.62714844 46.14578125 37.31679688 46.4140625 38.02734375 C47 40 47 40 47 43 C47.99 43.495 47.99 43.495 49 44 C49.62775772 46.63718316 50.13040084 49.20467292 50.5625 51.875 C50.68818359 52.58914063 50.81386719 53.30328125 50.94335938 54.0390625 C52.67268084 64.25201857 53.14486707 74.34092906 53.0625 84.6875 C53.05798828 85.78255859 53.05347656 86.87761719 53.04882812 88.00585938 C53.03719156 90.67063309 53.02084564 93.33528517 53 96 C53.763125 96.13019531 54.52625 96.26039063 55.3125 96.39453125 C61.56507554 97.80317836 65.31738665 102.08984887 69 107 C72.21452368 112.17021291 71.55470579 118.1369704 71 124 C69.30279272 130.29084616 65.2933539 134.40007076 60 138 C54.38820412 141.17648823 49.31585461 141.86396124 43 141 C36.36727345 139.10323108 31.85027924 134.58810797 28 129 C24.9923095 122.97452609 25.18352348 116.568262 26 110 C28.37996943 103.8663288 32.50836415 100.09440933 38.0703125 96.77734375 C40 96 40 96 44 96 C43.75447489 77.19773003 43.75447489 77.19773003 40.09765625 58.83984375 C39.06699824 55.23437464 38.31002008 51.67263792 37.59570312 47.99707031 C36.01872038 40.04999337 34.10641107 33.48551478 29 27 C28.52175781 26.34773437 28.04351563 25.69546875 27.55078125 25.0234375 C23.91583779 20.72010394 20.26753071 19.23183963 14.9375 17.5 C8.92736713 15.53920213 4.93907863 13.76059412 2 8 C1.04396455 5.30227621 0.49772228 2.83701697 0 0 Z " fill="#41B2E6" transform="translate(561,508)"/>
<path d="M0 0 C3.18994412 1.49207064 5.97333628 3.3236697 8.875 5.3125 C21.28399504 13.14803452 34.59273827 16.3438328 49.11303711 13.60083008 C58.97623924 11.25089211 67.53774937 6.97824827 75.91796875 1.35546875 C78 0 78 0 79 0 C83.40781726 17.35361127 83.40781726 17.35361127 80.5703125 22.6875 C77.84942373 24.81290806 75.03900948 26.35645406 72 28 C69.77089402 29.51435528 67.58900997 31.08509628 65.40527344 32.6640625 C62.57989028 34.70656647 59.71888599 36.69546472 56.85595703 38.68481445 C54.94808991 40.00033342 54.94808991 40.00033342 53.06225586 41.61572266 C47.25313712 45.51506009 37.70979907 44.36849368 31.04443359 43.67626953 C23.04170094 41.89859756 16.99085033 36.03163798 11.01513672 30.72216797 C7.51992613 27.73510527 3.624306 25.38859938 -0.26171875 22.94140625 C-2 21 -2 21 -2.33203125 17.7421875 C-1.9989944 13.98866632 -1.56767379 10.28785922 -1 6.5625 C-0.814375 5.32628906 -0.62875 4.09007812 -0.4375 2.81640625 C-0.293125 1.88699219 -0.14875 0.95757812 0 0 Z " fill="#F9FAFA" transform="translate(472,497)"/>
<path d="M0 0 C4.29 0 8.58 0 13 0 C13.96107153 3.96506249 14.92160984 7.93024878 15.88085938 11.89575195 C16.20640441 13.240877 16.5322435 14.58593091 16.85839844 15.9309082 C17.63714526 19.14264167 18.41140531 22.35533509 19.17871094 25.56982422 C19.6660642 27.60529194 20.16111915 29.63898124 20.67285156 31.66845703 C23.36981028 42.73930608 20.74094445 50.4914584 16.75 60.875 C16.25273171 62.19877814 15.75662925 63.52299482 15.26171875 64.84765625 C12.60270092 71.93594396 9.85016798 78.98627023 7 86 C4.10447762 83.53976236 3.11399297 81.14934649 1.87890625 77.58984375 C1.50056641 76.51669922 1.12222656 75.44355469 0.73242188 74.33789062 C0.34634766 73.21576172 -0.03972656 72.09363281 -0.4375 70.9375 C-1.20530173 68.73767683 -1.97481383 66.53844984 -2.74609375 64.33984375 C-3.11847168 63.26718262 -3.49084961 62.19452148 -3.87451172 61.08935547 C-5.18606747 57.48926296 -6.68630148 53.99508838 -8.28540039 50.51391602 C-10.13055735 44.02277108 -8.73896812 37.64817341 -7.28515625 31.23046875 C-7.10995956 30.42764969 -6.93476288 29.62483063 -6.7542572 28.79768372 C-6.1981019 26.2591734 -5.63030256 23.72342738 -5.0625 21.1875 C-4.68481968 19.46695634 -4.30785986 17.74625436 -3.93164062 16.02539062 C-1.19680823 3.59042469 -1.19680823 3.59042469 0 0 Z " fill="#36B2E9" transform="translate(505,582)"/>
<path d="M0 0 C1.40971069 0.01909424 1.40971069 0.01909424 2.84790039 0.03857422 C7.09848745 0.25456009 9.88491313 0.58886005 13.5625 2.8203125 C16.36025319 6.14828504 17.62354483 8.56544654 17.4375 12.9375 C16.81875 13.948125 16.2 14.95875 15.5625 16 C15.19253906 16.85464844 14.82257812 17.70929687 14.44140625 18.58984375 C12.53584497 22.27186324 10.76962476 25.19560489 6.71630859 26.67285156 C1.62977431 27.7978845 -3.55254418 27.98376279 -8.4375 26 C-12.88797606 22.4011903 -15.4891623 17.28322249 -17.4375 12 C-16.11229912 2.24748097 -8.7121997 -0.22980909 0 0 Z " fill="#35B0E8" transform="translate(511.4375,547)"/>
<path d="M0 0 C4.34925493 2.17462747 7.5173806 4.79864409 10 9 C10.62409585 14.61686269 10.18169427 18.1726018 7 23 C2.16208299 27.36592511 -0.96703529 28.4590367 -7.38671875 28.421875 C-11.70559085 27.72465798 -14.22282122 25.24267181 -17 22 C-19.70827845 17.93758233 -19.64175877 14.76961455 -19 10 C-17.70613416 6.34920017 -15.75112414 3.68484848 -12.875 1.0625 C-8.54784009 -0.53666779 -4.55387147 -0.65786265 0 0 Z " fill="#EFF6F9" transform="translate(614,612)"/>
<path d="M0 0 C5.15236658 3.37140386 10.14074742 6.94830706 15.125 10.5625 C15.92292969 11.13935547 16.72085937 11.71621094 17.54296875 12.31054688 C21.04892362 14.84782807 24.54317197 17.39599827 28 20 C26.64891034 22.96325944 25.11293352 25.20785165 22.9375 27.625 C22.32648438 28.30820312 21.71546875 28.99140625 21.0859375 29.6953125 C20.39757812 30.45585938 19.70921875 31.21640625 19 32 C18.18789063 32.90492188 17.37578125 33.80984375 16.5390625 34.7421875 C14.36330206 37.16503746 12.18333356 39.58397556 10 42 C7.37633224 39.37633224 6.43448507 36.38575245 5.14453125 32.98046875 C4.74568977 31.93709099 4.74568977 31.93709099 4.33879089 30.87263489 C3.77864932 29.4001794 3.22154002 27.92656736 2.66723633 26.4519043 C1.81784636 24.20166381 0.94946746 21.95937299 0.08007812 19.71679688 C-0.46212401 18.2843027 -1.00317767 16.85137319 -1.54296875 15.41796875 C-1.80434128 14.75008835 -2.06571381 14.08220795 -2.33500671 13.39408875 C-3.75165695 9.55469056 -4.36790943 6.91434597 -3 3 C-1.4375 1.1875 -1.4375 1.1875 0 0 Z " fill="#F8F9F9" transform="translate(464,524)"/>
<path d="M0 0 C1.75 1.6875 1.75 1.6875 3 4 C2.49385164 8.37663691 0.83867006 12.39781591 -0.72265625 16.48828125 C-0.98759384 17.19147995 -1.25253143 17.89467865 -1.52549744 18.6191864 C-2.3675549 20.85167447 -3.21494143 23.08209538 -4.0625 25.3125 C-4.6364214 26.8312466 -5.20999294 28.35012545 -5.78320312 29.86914062 C-7.18475585 33.58097067 -8.59108953 37.29095685 -10 41 C-10.66 41 -11.32 41 -12 41 C-13.41170765 39.40324822 -14.75399468 37.74486398 -16.0625 36.0625 C-20.37556009 30.65717145 -25.00912725 25.77849518 -30 21 C-25.77041089 16.43717053 -21.00668649 12.95902531 -15.9375 9.375 C-14.34228474 8.23720791 -12.74722724 7.0991946 -11.15234375 5.9609375 C-10.45101318 5.46384277 -9.74968262 4.96674805 -9.02709961 4.45458984 C-7.62874607 3.45117055 -6.26327512 2.40086307 -4.92797852 1.31494141 C-3 0 -3 0 0 0 Z " fill="#F7F8F8" transform="translate(560,525)"/>
<path d="M0 0 C1.85202026 -0.00945648 1.85202026 -0.00945648 3.74145508 -0.019104 C5.09456525 -0.01552432 6.44767412 -0.01142238 7.80078125 -0.00683594 C9.18318754 -0.00818268 10.56559338 -0.01012329 11.94799805 -0.01263428 C14.84656276 -0.01558511 17.74500428 -0.0112893 20.64355469 -0.00195312 C24.36288762 0.00944152 28.08193193 0.00288181 31.80125427 -0.00909805 C34.65623152 -0.01631782 37.5111401 -0.01402822 40.36611938 -0.00884247 C41.73768142 -0.00750629 43.10924964 -0.0091526 44.48080444 -0.01380157 C46.39605595 -0.01886842 48.31132926 -0.00977925 50.2265625 0 C51.31751221 0.00159119 52.40846191 0.00318237 53.5324707 0.00482178 C56.11328125 0.25878906 56.11328125 0.25878906 58.11328125 2.25878906 C58.36328125 4.75878906 58.36328125 4.75878906 58.11328125 7.25878906 C55.4098621 9.96220821 54.0074408 9.51206359 50.2265625 9.51757812 C48.99188232 9.52388245 47.75720215 9.53018677 46.48510742 9.53668213 C45.13199725 9.53310245 43.77888838 9.52900051 42.42578125 9.52441406 C41.04337496 9.52576081 39.66096912 9.52770142 38.27856445 9.5302124 C35.37999974 9.53316324 32.48155822 9.52886742 29.58300781 9.51953125 C25.86367488 9.50813661 22.14463057 9.51469631 18.42530823 9.52667618 C15.57033098 9.53389594 12.7154224 9.53160634 9.86044312 9.52642059 C8.48888108 9.52508441 7.11731286 9.52673072 5.74575806 9.5313797 C3.83050655 9.53644654 1.91523324 9.52735737 0 9.51757812 C-1.09094971 9.51598694 -2.18189941 9.51439575 -3.3059082 9.51275635 C-5.88671875 9.25878906 -5.88671875 9.25878906 -7.88671875 7.25878906 C-8.13671875 4.75878906 -8.13671875 4.75878906 -7.88671875 2.25878906 C-5.1832996 -0.44463008 -3.7808783 0.00551454 0 0 Z " fill="#213751" transform="translate(581.88671875,664.7412109375)"/>
<path d="M0 0 C3.98305411 1.3276847 4.57284485 3.05180913 6.6875 6.625 C7.31011719 7.64851562 7.93273437 8.67203125 8.57421875 9.7265625 C11.9281264 17.42676691 8.96315425 25.16004881 7 32.9375 C6.71382813 34.09830078 6.42765625 35.25910156 6.1328125 36.45507812 C5.42906533 39.30525417 4.71794201 42.15337266 4 45 C0.17113975 41.17113975 -1.06048601 35.28804453 -2.90551758 30.25146484 C-3.68357976 28.1356604 -4.47893756 26.02690753 -5.27539062 23.91796875 C-5.77190802 22.57331301 -6.26738557 21.22827275 -6.76171875 19.8828125 C-7.21506592 18.65965332 -7.66841309 17.43649414 -8.13549805 16.17626953 C-8.96909898 13.11353356 -9.25335834 11.84942552 -8 9 C-6.15234375 6.640625 -6.15234375 6.640625 -3.9375 4.25 C-3.20402344 3.45078125 -2.47054688 2.6515625 -1.71484375 1.828125 C-1.14894531 1.22484375 -0.58304687 0.6215625 0 0 Z " fill="#F5F6F7" transform="translate(486,565)"/>
<path d="M0 0 C3.30168752 1.4275589 5.39904641 3.15516057 7.8125 5.8125 C8.75029297 6.81216797 8.75029297 6.81216797 9.70703125 7.83203125 C11 10 11 10 10.73730469 12.19482422 C9.8507722 15.56775741 8.70705988 18.77978077 7.49609375 22.05078125 C7.2533522 22.70958786 7.01061066 23.36839447 6.76051331 24.04716492 C5.98963528 26.13690759 5.21365204 28.22471117 4.4375 30.3125 C3.91177031 31.73490077 3.38637609 33.15742557 2.86132812 34.58007812 C1.57809843 38.05482955 0.29028535 41.52786146 -1 45 C-4.0153658 40.4769513 -4.59075406 35.52437935 -5.6875 30.25 C-5.92533203 29.1775 -6.16316406 28.105 -6.40820312 27 C-7.88046281 19.98841721 -8.84114954 14.49244432 -5.37109375 7.91015625 C-4.41396484 6.50056641 -4.41396484 6.50056641 -3.4375 5.0625 C-2.79683594 4.10472656 -2.15617188 3.14695312 -1.49609375 2.16015625 C-0.75552734 1.09087891 -0.75552734 1.09087891 0 0 Z " fill="#F4F6F7" transform="translate(535,565)"/>
<path d="M0 0 C3.80362761 1.52145104 7.60096876 3.05537115 11.39453125 4.6015625 C13.19760742 5.33632813 13.19760742 5.33632813 15.03710938 6.0859375 C16.29557434 6.59895485 17.55403786 7.11197572 18.8125 7.625 C20.09048879 8.14584805 21.36848353 8.66668153 22.64648438 9.1875 C25.76438134 10.45819008 28.8822177 11.72902861 32 13 C31.22788397 16.43625599 30.02871107 18.80789444 28.0625 21.75 C27.53785156 22.54921875 27.01320313 23.3484375 26.47265625 24.171875 C25.98667969 24.77515625 25.50070312 25.3784375 25 26 C24.34 26 23.68 26 23 26 C21.93642013 24.7861637 20.92363775 23.52754962 19.9375 22.25 C14.55670137 15.92951928 8.11258647 13.69043289 0 13 C0 8.71 0 4.42 0 0 Z " fill="#F7F9F9" transform="translate(419,579)"/>
<path d="M0 0 C3.37013879 0.67402776 4.51677007 1.7087875 6.5 4.5 C6.95319325 7.67235276 7.02990283 9.56487736 5.4375 12.375 C2.3930714 14.14273274 -0.0631012 13.86823916 -3.5 13.5 C-5.4375 12.375 -5.4375 12.375 -6.5 10.5 C-7.04624158 6.83237794 -6.97898298 5.1741242 -4.8125 2.125 C-2.5 0.5 -2.5 0.5 0 0 Z " fill="#44B2E8" transform="translate(609.5,618.5)"/>
<path d="M0 0 C1.10703391 3.32110174 0.88418759 4.36385839 0.07421875 7.67578125 C-0.14556641 8.58650391 -0.36535156 9.49722656 -0.59179688 10.43554688 C-0.82962891 11.38494141 -1.06746094 12.33433594 -1.3125 13.3125 C-1.53873047 14.25029297 -1.76496094 15.18808594 -1.99804688 16.15429688 C-3.14514537 20.84516941 -4.37541618 25.44658902 -6 30 C-6.33 30 -6.66 30 -7 30 C-7.73308216 19.55357924 -4.93140284 9.19869127 0 0 Z " fill="#E2EDF2" transform="translate(426,544)"/>
<path d="M0 0 C2.19742354 2.19742354 2.51320936 3.23727674 3.2890625 6.17578125 C3.50820313 7.00400391 3.72734375 7.83222656 3.953125 8.68554688 C4.28570313 9.98588867 4.28570313 9.98588867 4.625 11.3125 C4.85445312 12.16779297 5.08390625 13.02308594 5.3203125 13.90429688 C6.38647142 18.00075869 7.3346996 21.72817617 7 26 C5.20615077 23.30922616 4.51100011 21.72613768 3.7109375 18.69140625 C3.49179687 17.86189453 3.27265625 17.03238281 3.046875 16.17773438 C2.82515625 15.31470703 2.6034375 14.45167969 2.375 13.5625 C2.03082031 12.27375977 2.03082031 12.27375977 1.6796875 10.95898438 C0.67505691 7.10491048 0 4.02613481 0 0 Z " fill="#C9DEE6" transform="translate(597,546)"/>
<path d="M0 0 C0.33 0.99 0.66 1.98 1 3 C-3.29 7.29 -7.58 11.58 -12 16 C-12.33 15.01 -12.66 14.02 -13 13 C-8.71 8.71 -4.42 4.42 0 0 Z " fill="#395369" transform="translate(157,145)"/>
<path d="M0 0 C0.99 0.33 1.98 0.66 3 1 C2.71682074 2.60568666 2.42312209 4.20952047 2.125 5.8125 C1.96257812 6.70582031 1.80015625 7.59914063 1.6328125 8.51953125 C1 11 1 11 -1 14 C-1.18451025 4.58997722 -1.18451025 4.58997722 0 0 Z " fill="#C5DEEB" transform="translate(420,560)"/>
<path d="M0 0 C5.452999 1.56818272 9.76486783 3.03810217 14 7 C4.0872211 5.1643002 4.0872211 5.1643002 0 2 C0 1.34 0 0.68 0 0 Z " fill="#D9E4E9" transform="translate(567,519)"/>
<path d="M0 0 C0.99 0.33 1.98 0.66 3 1 C0 4 -3 7 -6 10 C-5.58578031 5.16743695 -3.53586014 3.17320782 0 0 Z " fill="#31ADE4" transform="translate(398,597)"/>
<path d="M0 0 C0.99 0.33 1.98 0.66 3 1 C0.42215154 3.64752004 -1.91648098 5.94432065 -5 8 C-3.62845496 5.04590299 -2.01136276 2.55991624 0 0 Z " fill="#DCE2E5" transform="translate(524,360)"/>
</svg>
